<?xml version="1.0" encoding="utf-8"?>
<!-- Generator: Adobe Illustrator 23.0.3, SVG Export Plug-In . SVG Version: 6.00 Build 0)  -->
<svg version="1.1" id="Layer_1" xmlns="http://www.w3.org/2000/svg" xmlns:xlink="http://www.w3.org/1999/xlink" x="0px" y="0px"
	 viewBox="0 0 502 502" style="enable-background:new 0 0 502 502;" xml:space="preserve">
<style type="text/css">
	.st0{clip-path:url(#SVGID_2_);}
	.st1{fill:#035DA8;}
	.st2{opacity:0.4;fill:#035DA8;}
	.st3{fill:#414042;}
	.st4{fill:#FBB931;}
	.st5{opacity:0.4;}
	.st6{fill:#A2D5F3;}
	.st7{opacity:0.4;fill:#A2D5F3;}
	.st8{fill:#80CDC8;}
	.st9{opacity:0.3;fill:#FFFFFF;}
	.st10{fill:#0076BE;}
	.st11{opacity:0.4;fill:#0076BE;}
	.st12{fill:#193988;}
	.st13{opacity:0.2;fill:#193988;}
	.st14{fill:#F6951D;}
	.st15{opacity:0.4;fill:#F6951D;}
	.st16{fill:#FDD001;}
	.st17{opacity:0.4;fill:#FDD001;}
	.st18{fill:#0494D4;}
	.st19{fill:#007DC1;}
</style>
<title>music (1)</title>
<g>
	<defs>
		<rect id="SVGID_1_" y="29.8" width="502" height="485.1"/>
	</defs>
	<clipPath id="SVGID_2_">
		<use xlink:href="#SVGID_1_"  style="overflow:visible;"/>
	</clipPath>
	<g class="st0">
		<g>
			<g>
				<g>
					<path class="st1" d="M120.5,299.2c0,0,52.9-19.9,59.3-19.5c6.4,0.4,3.7,4.4,3.7,4.4s-21.1,89.1,5.3,135c0,0-34.1,25-48.2,12.5
						C126.5,419,114.6,337.7,120.5,299.2z"/>
					<path class="st2" d="M188.8,419c-26.4-45.9-5.3-135-5.3-135s2.7-4.1-3.7-4.4c-6.4-0.4-59.3,19.5-59.3,19.5
						c-0.9,6.2-1.4,13.6-1.5,21.6c0,0,43.2-18.2,44.8-9.8c1.6,8.5-13.4,10.9-16.9,19.6c-3.5,8.7,1.4,14.7-3.1,18.2
						c-4.5,3.5-4.6,8.7-2.4,15.1c2.2,6.4,8.4,7.3,8.3,12.7c-0.2,5.4,10.1,12.1,10.1,12.1s-2.4-0.2,1.6,5.1
						c4.1,5.3,16.1,4.1,15.3,18.6c-0.8,14.6-32.9,21.1-40.5,3.9c-1.4-3.1-3.1-3.9-4.9-3.1c2.8,8.9,6,15.4,9.2,18.3
						C154.7,444.1,188.8,419,188.8,419z"/>
				</g>
				<g>
					<g>
						<g>
							<g>
								<g>
									<polygon class="st3" points="-34.5,447.4 -34.5,447.4 -34.5,447.4 									"/>
								</g>
							</g>
						</g>
					</g>
				</g>
			</g>
			<g>
				<g>
					<path class="st4" d="M86.1,253.6c0,0-15,10.7-14.9,20.5c0.1,9.7,8.3,25.7,14.3,30.3c6,4.7,22.1,3,22.1,3S89.3,280.5,86.1,253.6
						z"/>
					<g class="st5">
						<path class="st4" d="M80.1,258.7C80.1,258.7,80.1,258.7,80.1,258.7C80.1,258.7,80.1,258.7,80.1,258.7
							C80.1,258.7,80.1,258.7,80.1,258.7z"/>
						<path class="st4" d="M92.7,304c-5.5,0.9-13.8-7.8-13.8-7.9c2.2,3.6,4.5,6.7,6.6,8.3c6,4.7,22.1,3,22.1,3s-18.3-26.9-21.5-53.8
							c0,0-2.4,1.7-5.2,4.4c3.1-2.6,5.3,0,4.2,14.7C83.9,288.7,107.3,301.7,92.7,304z"/>
					</g>
				</g>
				<g>
					<g>
						<g>
							<path class="st6" d="M197.5,192.8c0,0-13.7-0.8-35.1,7.2c-76.4,28.8-75.7,38.9-75.7,38.9s-8.1,47.5,28,74.9l90.4-33.2
								c0,0,19.4-5.8,23.2-11.4C228.5,269.1,229.1,222.5,197.5,192.8z"/>
							<path class="st7" d="M167.4,216.2c-11.2,23.3,0.1,39.3,10.1,49.6c9.9,10.3-22.4,33.2-58.3,30.8C94,294.9,87.6,268,87.6,268
								l0,0c2.8,14.9,9.9,32.6,27.2,45.7l90.4-33.2c0,0,19.4-5.8,23.2-11.4c0,0,0-2.5-0.3-6.7C222.1,255.5,178.1,194,167.4,216.2z"
								/>
						</g>
						<path class="st8" d="M238.1,224.4c8.7,22.3,0.4,44.8-18.5,50.3c-18.9,5.5-41.3-8.1-50-30.4c-8.7-22.3-0.5-44.8,18.5-50.3
							C207,188.5,229.3,202.1,238.1,224.4z"/>
					</g>
					<path class="st9" d="M158.6,208l-3.7,9.4l-62.2,26.8c0,0,1.8-6.6,10.5-10.8C111.9,229.1,158.6,208,158.6,208z"/>
				</g>
				<g>
					<g>
						<path class="st10" d="M264.5,101c0,0,10.2,141.8,80.6,193.3c0,0-87.3-26.1-110.1-24c-26.9,2.5-49.7-2.5-59.6-25.6
							c-9.8-23.1,1.5-40.3,16.2-48C212.5,185.8,252.2,128,264.5,101z"/>
						<path class="st11" d="M264.5,101c-2.7,6-5.4,10.8-5.4,10.8c-1.8,30.1-6.3,68.9,17.6,113.4c18.7,34.8-13.8,36.5-13.8,36.5
							c-12.2-1.5-36,10.2-68.7-12.1c-19.5-13.3-11.5-42.6,0.6-49.1c6.8-3.6,11.9-15.8,11.9-15.8v0c-5.5,5.6-10.6,9.8-14.9,12.1
							c-14.8,7.7-26.1,24.9-16.2,48c9.8,23.1,32.7,28,59.6,25.6c22.7-2.1,110.1,24,110.1,24C274.6,242.8,264.5,101,264.5,101z"/>
					</g>
					<g>
						<g>
							<path class="st12" d="M382.4,163.6c24,64.6,23,124.6-2.4,134.1c-25.3,9.4-65.4-35.3-89.4-99.9c-24-64.6-23-124.6,2.4-134.1
								C318.4,54.3,358.4,99,382.4,163.6z"/>
							<path class="st13" d="M382.4,163.6C364.3,114.8,337,77.3,313.8,66c17.1,18,34.4,46.6,47.1,80.9c24,64.6,23,124.6-2.4,134.1
								c-6.2,2.3-13.2,1.4-20.7-2.3c15.2,16,30.4,23.5,42.3,19.1C405.4,288.2,406.5,228.2,382.4,163.6z"/>
						</g>
						<g>
							<g>
								<g>
									<path class="st14" d="M327,155l19.1,51.4l-45.6,31.5c0,0-21.3-53.3-25.4-72.4L327,155z"/>
									<path class="st15" d="M275.1,165.5c4.1,19.1,25.4,72.4,25.4,72.4l45.6-31.5l-9.6-25.8c-7.6-3.8-14.7-4.9-13.4,5.1
										c2.7,20.5,0.6,28.2-10.6,23.2c-31-14-20.1-46.8-20.1-46.9L275.1,165.5z"/>
								</g>
							</g>
							<g>
								<path class="st16" d="M350,175.7c5.3,14.2,3.6,27.9-3.8,30.7c-7.4,2.8-17.7-6.5-23-20.7c-5.3-14.2-3.6-27.9,3.8-30.7
									C334.4,152.2,344.7,161.5,350,175.7z"/>
								<path class="st17" d="M350,175.7c-2-5.3-4.6-9.9-7.6-13.4c1.1,2,2.1,4.2,3,6.5c5.3,14.2,3.6,27.9-3.8,30.7
									c-4.6,1.7-10.4-1.3-15.4-7.3c5.6,10.4,13.8,16.5,20,14.2C353.5,203.6,355.3,189.9,350,175.7z"/>
							</g>
						</g>
						<path class="st18" d="M392.4,159.9c-26.7-71.8-74.2-120.3-106-108.5c-31.9,11.8-36.1,79.6-9.4,151.4
							c26.7,71.8,74.2,120.3,106,108.5C414.9,299.5,419.1,231.7,392.4,159.9z M380.1,297.7c-25.3,9.4-65.4-35.3-89.4-99.9
							c-24-64.6-23-124.6,2.4-134.1c25.3-9.4,65.3,35.3,89.4,99.9C406.5,228.2,405.4,288.2,380.1,297.7z"/>
					</g>
				</g>
			</g>
		</g>
		<g>
			<g>
				<path class="st19" d="M478.4,199.8c-0.1,0-0.2,0-0.3,0l-55.9-3.4c-2.9-0.2-5.2-2.7-5-5.6c0.2-2.9,2.7-5.2,5.6-5l55.9,3.4
					c2.9,0.2,5.2,2.7,5,5.6C483.6,197.7,481.2,199.8,478.4,199.8z"/>
			</g>
			<g>
				<path class="st19" d="M408.2,159c-2,0-3.9-1.1-4.8-3c-1.3-2.6-0.2-5.8,2.4-7.1l57.8-28.2c2.6-1.3,5.8-0.2,7.1,2.4
					c1.3,2.6,0.2,5.8-2.4,7.1l-57.8,28.2C409.8,158.8,409,159,408.2,159z"/>
			</g>
			<g>
				<path class="st19" d="M390.4,123.8c-1.3,0-2.6-0.5-3.6-1.4c-2.2-2-2.3-5.3-0.3-7.5L419,79.4c2-2.2,5.3-2.3,7.5-0.3
					c2.2,2,2.3,5.3,0.3,7.5l-32.6,35.4C393.3,123.2,391.8,123.8,390.4,123.8z"/>
			</g>
		</g>
	</g>
</g>
</svg>
