<svg id="Layer_1" data-name="Layer 1" xmlns="http://www.w3.org/2000/svg" viewBox="0 0 502 502"><defs><style>.cls-1{fill:#4479fa;}.cls-2{fill:#79acab;}.cls-3{fill:#7cbea5;}</style></defs><title>music (1)</title><path class="cls-1" d="M252,229.36a23.42,23.42,0,0,0,4.7,4.23c1.63-4.33,5.07-8.85,12-12.08q-.74-4.15-1.45-8.32C261.51,215.68,253.69,220.61,252,229.36Z" transform="translate(0 0)"/><path class="cls-1" d="M284.55,254.44c-1.72-11.29-3.68-23.2-5.62-35l-.9,0a20.8,20.8,0,0,0-3.8.33,19.65,19.65,0,0,0-4.06,1.15c-.52.21-1,.44-1.49.66,2.27,12.84,4.6,25.52,6.66,37.13A31.58,31.58,0,0,0,284.55,254.44Z" transform="translate(0 0)"/><path class="cls-1" d="M281.81,308.73c0-.1-.6,10.69-8,13.3,0,0-8.4,3.22-8.17-6.57,0,0-.11-.73-.12-.75a3.22,3.22,0,0,0-3.55-2.6,3.57,3.57,0,0,0-3.15,3.41,8.68,8.68,0,0,0,.82,4.73c5.63,13,23.5,9.27,28.51-2.85,3.15-7.51,1.49-27.29-1.9-51.41a62.75,62.75,0,0,1-9.07,3.05C280.47,288.27,282.63,303.23,281.81,308.73Z" transform="translate(0 0)"/><path class="cls-1" d="M275.34,258.64c.64,3.58,1.25,7.06,1.83,10.4a62.75,62.75,0,0,0,9.07-3.05c-.53-3.75-1.09-7.61-1.69-11.55A31.58,31.58,0,0,1,275.34,258.64Z" transform="translate(0 0)"/><path class="cls-1" d="M267.23,213.19a38.91,38.91,0,0,1,6.22-2.13,36.81,36.81,0,0,1,4-.59c-1.65-10.2-3.23-20.2-4.56-29.54q-5.27,4.88-9.48,9.39C264.6,197.79,265.89,205.48,267.23,213.19Z" transform="translate(0 0)"/><path class="cls-1" d="M261.15,174.84c.68,5,1.45,10.18,2.28,15.48q4.23-4.51,9.48-9.39c-.75-5.34-1.43-10.45-2-15.27C267.77,168.8,264.47,171.84,261.15,174.84Z" transform="translate(0 0)"/><path class="cls-1" d="M244.44,247.15c-2.83-3.91-12.85-22.83,19-56.83-.83-5.3-1.6-10.48-2.28-15.48-3.92,3.55-7.88,7.07-11.66,10.71-9.15,8.81-18.21,18.57-22.68,30.12-5.82,15-.92,30.69,9.54,42.32a37.28,37.28,0,0,0,21.5,12.16A48,48,0,0,0,277.17,269c-.58-3.34-1.19-6.82-1.83-10.4C265.09,261.46,253.07,259.07,244.44,247.15Z" transform="translate(0 0)"/><path class="cls-1" d="M293.08,126.06c-6.55-9.24-25.68-19.56-33.18-2.64-3.38,7.65-2,27.43,1.25,51.42,3.32-3,6.62-6,9.78-9.18-2.85-24.66-2.62-41.35,5.24-38.42a15.41,15.41,0,0,1,9.5,13.31c.58,7.13-4.34,13.81-9.12,19.2-1.8,2-3.69,4-5.62,5.91.55,4.82,1.23,9.93,2,15.27q2.26-2.1,4.74-4.26c10.37-9.07,18.7-22.35,19.92-31.23C297.56,145.46,299.48,135.08,293.08,126.06Z" transform="translate(0 0)"/><path class="cls-1" d="M282.24,219.84a21.22,21.22,0,0,1,7.52,3.18c-1.42-1,7.95,3.73,5.95,15.74-1,6.08-5.29,11.77-11.16,15.68.6,3.94,1.16,7.8,1.69,11.55l1.4-.61c34-15.3,20.26-57.53-10.17-54.91q.72,4.46,1.46,8.94A19.09,19.09,0,0,1,282.24,219.84Z" transform="translate(0 0)"/><path class="cls-1" d="M267.23,213.19q.72,4.17,1.45,8.32c.49-.22,1-.45,1.49-.66a19.65,19.65,0,0,1,4.06-1.15,20.8,20.8,0,0,1,3.8-.33l.9,0q-.74-4.49-1.46-8.94a36.81,36.81,0,0,0-4,.59A38.91,38.91,0,0,0,267.23,213.19Z" transform="translate(0 0)"/><path class="cls-1" d="M269,231.6c1.7,6.13-.64,12-5.24,13.2s-9.7-2.89-11.4-9,.64-12.05,5.23-13.2S267.26,225.46,269,231.6Z" transform="translate(0 0)"/><path class="cls-1" d="M275.49,313.94c1.7,6.13-.64,12-5.24,13.2s-9.7-2.89-11.4-9,.64-12,5.23-13.2S273.78,307.81,275.49,313.94Z" transform="translate(0 0)"/><rect class="cls-1" x="389.96" y="264.7" width="54.97" height="102.95"/><path class="cls-2" d="M444.93,318H390v49.69h55Z" transform="translate(0 0)"/><rect class="cls-1" x="327.73" y="323.55" width="168.5" height="180.03" rx="79.95" transform="translate(825.55 1.57) rotate(90)"/><rect class="cls-2" x="347.04" y="347.46" width="129.88" height="134.87" rx="60.84" transform="translate(826.88 2.91) rotate(90)"/><ellipse class="cls-1" cx="390.9" cy="389.85" rx="4.33" ry="4.12"/><ellipse class="cls-1" cx="410.2" cy="389.85" rx="4.33" ry="4.12"/><ellipse class="cls-1" cx="429.51" cy="389.85" rx="4.33" ry="4.12"/><ellipse class="cls-1" cx="390.9" cy="404.8" rx="4.33" ry="4.12"/><ellipse class="cls-1" cx="410.2" cy="404.8" rx="4.33" ry="4.12"/><ellipse class="cls-1" cx="429.51" cy="404.8" rx="4.33" ry="4.12"/><path class="cls-1" d="M390.9,415.62a4.13,4.13,0,1,0,4.33,4.12A4.24,4.24,0,0,0,390.9,415.62Z" transform="translate(0 0)"/><path class="cls-1" d="M410.2,415.62a4.13,4.13,0,1,0,4.33,4.12A4.23,4.23,0,0,0,410.2,415.62Z" transform="translate(0 0)"/><path class="cls-1" d="M429.51,415.62a4.13,4.13,0,1,0,4.33,4.12A4.23,4.23,0,0,0,429.51,415.62Z" transform="translate(0 0)"/><path class="cls-1" d="M204.45,227.24c-.09-.1-9.63-10-27.85-16.1-26-8.71-70.59.83-83.83-26.46a23.21,23.21,0,0,1-2.47-8.84.46.46,0,0,1,.92,0h0a23,23,0,0,0,2.41,8.53c13,26.69,57.13,17.2,83.28,26,13.08,4.38,23.84,11.71,28.23,16.35C205.55,227.08,204.86,227.67,204.45,227.24Z" transform="translate(0 0)"/><path class="cls-1" d="M204.09,222.56c-.36-.37-9-9.21-25.26-14.68-17.69-6-44.91-4.51-61.26-11.47-9.93-4.23-14.79-10.28-17.11-14.61a21.31,21.31,0,0,1-2.7-8.53.46.46,0,0,1,.92,0,21.08,21.08,0,0,0,2.62,8.2c2.26,4.19,7,10.05,16.65,14.17,16.19,6.88,43.34,5.42,61.19,11.44,16.45,5.54,25.26,14.54,25.63,14.92a.42.42,0,0,1,0,.62A.48.48,0,0,1,204.09,222.56Z" transform="translate(0 0)"/><path class="cls-1" d="M203.72,217.88c-3.85-4-11.83-9.58-22.67-13.25-17.09-5.83-40.32-5.67-54.92-11.5-10.4-4.14-15.53-10-18-14.19a19.49,19.49,0,0,1-2.91-8.25.46.46,0,0,1,.92,0h0a19.36,19.36,0,0,0,2.82,7.9c2.41,4,7.4,9.73,17.52,13.77,7.38,2.94,16.93,4.33,27,5.79,9.56,1.39,19.43,2.82,27.85,5.69,11,3.73,19.1,9.41,23,13.49C204.82,217.72,204.14,218.31,203.72,217.88Z" transform="translate(0 0)"/><path class="cls-1" d="M203.36,213.2c-16.52-17.12-50-16.44-68.68-23.34-10.88-4-16.28-9.7-18.89-13.75a18.33,18.33,0,0,1-3.12-8,.47.47,0,0,1,.93-.05,17.86,17.86,0,0,0,3,7.63c2.54,3.92,7.8,9.42,18.41,13.34,18.62,6.88,52.23,6.17,69,23.57a.42.42,0,0,1,0,.62A.47.47,0,0,1,203.36,213.2Z" transform="translate(0 0)"/><path class="cls-2" d="M131.51,178.46h0c-1.53-1.52-3.47-5.94-4.63-8.59-1.56-3.55-1.37-2.82-2-3.11-1.25-.24-.2.62-10.12,19.91-4.11-5.11-15.9-3.86-15.86,2.08,0,3.07,3.43,5.82,8,5.79,3.19,0,6.06-1.4,7.31-3.54h0c.32-.57,4.64-8.95,8.19-15.73,1.24,4.48,6.79,7.75,10.26,5.58l1-.66-1.06-.63A9.21,9.21,0,0,1,131.51,178.46Z" transform="translate(0 0)"/><path class="cls-3" d="M195.6,196.91h0c-1.88-.51-5.46-3.09-7.6-4.63s-2.49-1.8-3.05-1.58c-1.18.38,0,.9,1.49,19.82-5.64-2-14,3.75-11.18,8.35,3,4.87,13.17,1.17,13-4.86h0c0-.57-.65-10.17-1.11-16.78,3.14,2.8,8.87,4.29,10.52,1.12l.56-1.07A6.83,6.83,0,0,1,195.6,196.91Z" transform="translate(0 0)"/><path class="cls-1" d="M164.83,197c0-.8-.63-9.52-1.38-20.23-11.83,1.19-11.43,1.31-22.33-.34.37,5.5.76,11,1.1,15.47-5.74-2.08-12.85,4.3-10,8.85,3,4.9,12.6-.24,12.47-6.25,0,0-.64-4.78-1.18-12.42l18.43.16c.17,2.37.37,7,.72,11.53-5.7-2.06-13.66,3.53-10.83,8.09,1.56,2.51,5.61,3,9,1.06,2.48-1.39,4-3.71,4-5.92Z" transform="translate(0 0)"/><rect class="cls-2" x="28.38" y="289.89" width="206.76" height="217.46" rx="98.1" transform="translate(530.38 266.86) rotate(90)"/><path class="cls-1" d="M75.46,260.35c.26-8-2.84-87,18.14-149.39,14.31-42.63,30.23-61,49.3-76,.87-.65,1.72-1.31,2.6-1.94s1.75-1.26,2.65-1.87l2.68-1.8c62.23-41.07,188.32-42.94,241.24,19.07,19.33,22.31,32.14,58.29,37.74,86.95,9.76,49.81,7,104.31,5.64,157.94H410c-4.59-66.68,2.91-150.43-29.47-211.85l-1.21-2.25c-1.44-1.6-18.7-41.58-74.45-60.74C234.5-4.09,162.24,28.69,138,89.44c-22.08,53.85-20,117-20,170.91Z" transform="translate(0 0)"/><rect class="cls-1" x="56.49" y="219.52" width="77.6" height="106.41"/><path class="cls-2" d="M134.09,280.62a93.46,93.46,0,0,0-17.27-1.6H76.7a93.27,93.27,0,0,0-20.21,2.21v44.7h77.6Z" transform="translate(0 0)"/><path class="cls-3" d="M355.81,222.69c1.8,3.21,5.55,4.69,8.44,3.29s3.87-5.25,2.1-8.57-5.59-4.86-8.52-3.44a5,5,0,0,0-1.88,1.55L351.29,206l17.1-2.85,8,16.3h0l0,.06c1.78,3.31,5.59,4.86,8.53,3.44s3.87-5.26,2.1-8.58-5.59-4.86-8.52-3.44a5.08,5.08,0,0,0-1.87,1.55L368.09,195a1.37,1.37,0,0,0-1.42-.8l-21.3,4.11a1.12,1.12,0,0,0-.67,1.68l11.09,22.69Z" transform="translate(0 0)"/><rect class="cls-1" x="-3.26" y="298.5" width="206.76" height="200.23" rx="90.33" transform="translate(498.74 298.5) rotate(90)"/><rect class="cls-2" x="34.02" y="334.61" width="105.04" height="110.48" rx="49.84" transform="translate(476.39 303.31) rotate(90)"/><rect class="cls-1" x="13.56" y="334.61" width="105.04" height="110.48" rx="49.84" transform="translate(455.93 323.76) rotate(90)"/></svg>