<?xml version="1.0" encoding="utf-8"?>
<!-- Generator: Adobe Illustrator 23.0.3, SVG Export Plug-In . SVG Version: 6.00 Build 0)  -->
<svg version="1.1" id="Layer_1" xmlns="http://www.w3.org/2000/svg" xmlns:xlink="http://www.w3.org/1999/xlink" x="0px" y="0px"
	 viewBox="0 0 512 512" style="enable-background:new 0 0 512 512;" xml:space="preserve">
<style type="text/css">
	.st0{fill:#FF1600;}
	.st1{fill:#FFFFFF;}
	.st2{fill:#FFFCFB;}
</style>
<path class="st0" d="M0,512C0,321.8,0,152.2,0,2.6c0-0.9,0-1.7,0-2.6C0.8,0.1,1.5,0,2.3,0c169.5,0,339,0,508.4,0
	c0.4,0,0.8,0,1.3,0.1c0,2.3,0,4.7,0,7c0,155.8,0,322.9,0,501.3c0,1.2,0,2.3,0,3.5c-0.4,0-0.8,0.1-1.2,0.1c-170,0-340,0-510.1,0
	C0.5,512,0.2,512,0,512z"/>
<path class="st1" d="M358.9,401.7c-2.1-0.8-3.4-1.9-4.7-3.1c-13.7-11.7-22-26-24.2-43.4c-1-8-1.7-15.9-2-24c0-0.9-0.1-1.6-1.1-2.1
	c-11.2-5.7-21.1-13.4-31.9-19.6c-0.2-0.1-0.5-0.2-0.7-0.4c-1.5-1.1-1.6-0.3-1.6,1c-0.1,4.4,0.2,8.9-0.5,13.3
	c-1.5,9.2-5.1,17.5-12.7,23.7c-7.3,6-16.5,5.8-23.6-0.4c-6.6-5.6-10-12.8-11.6-20.9c-1.1-5.6-1.4-11.2-1.3-16.9
	c-1.2-0.1-2,0.6-2.9,1.1c-6.6,3.3-12.3,7.9-18.6,11.6c-3.8,2.2-7.5,4.3-11.2,6.7c-1.9,1.2-2.7,2.7-2.7,4.9
	c-0.1,10.6-1.4,21-3.8,31.3c-2.2,9.5-7.5,17.5-13.5,25.1c-2.8,3.5-5.7,6.9-9.3,9.7c-1.2,0.9-2.4,1.8-4.2,2.1
	c0.6-1.9,1.6-3.6,3.2-4.7c10.9-7.8,15-19.1,18.4-30.8c2.9-10.4,4.7-21,6.2-31.6c0.8-5.4,3-9.8,7.2-13.5c8.9-7.8,18.3-15.1,29-20.6
	c2.9-1.5,5.2-3.5,6.8-6.3c1-1.9,2.2-3.7,3.3-5.5c2.1-3.7,5-6.5,8.8-8.6c1.3-0.7,1.8-1.8,2.1-3.2c1.1-6.5-1.6-11.5-7.2-14.8
	c-12.5-7.5-24.7-15.4-37.7-22.2c-1.9-1-2.8-0.6-3.5,1.1c-2,4.7-4,9.5-6.2,14.1c-7,14.2-16.2,26.9-29,37.1c-2.3,1.8-4.8,3.2-7.7,3.9
	c-2.4,0.6-4.7,0.5-6.8-0.9c-0.5-0.4-1.4-0.6-0.8-1.5c0.4-0.7,0.7-1.5,1.8-1.4c1,0.1,2.1,0,3.1,0.2c3.5,0.6,6.4-0.5,8.8-2.7
	c3.4-3,5.9-6.6,8.3-10.2c6.7-10,12.3-20.6,18.6-30.9c2.5-4.1,5.1-8.2,8.3-11.9c0.9-1,1.6-1.3,3-0.7c12.1,5,24.3,9.9,36.4,14.9
	c0.4,0.2,0.8,0.3,1.5,0.6c-0.9-5.9-0.4-11.7-2.1-17.2c-0.7-2.3-2.3-4-4.8-4.9c-3.1-1.1-6.1-2.4-9-3.9c-5.9-3.1-9.9-7.6-11.6-13.7
	c-4.6-16.9-12.6-32.5-21.8-47.5c-1.4-2.2-2.5-4.6-3.6-6.9c-0.5-1.1-1.1-2.3-0.8-3.8c1.4,0.4,2,1.5,2.7,2.4c2.5,3.4,4.3,7.3,6.3,11
	c1.7,3.4,3.9,6.2,7.3,8.5c4.4,3,6.1,7.8,8,12.4c2.3,5.8,2.9,11.9,3.3,17.9c0.4,5.4,2.4,9.6,7.2,12.8c4.4,3,8.9,5.8,14,7.6
	c1.6,0.6,2,0.3,1.9-1.4c-0.3-4.6-0.2-9.3,1.1-13.8c0.7-2.3,1.8-4.4,3.1-6.7c-2.3,0.1-4.3,0.2-6.3,0.3c-0.9,0-1.8,0.2-2.7,0.2
	c-6.8,0-9.7-3.1-9.1-9.5c1-10,4.9-18.8,13-25.7c3.8-3.3,3.7-3.4,0.5-7.3c-1.9-2.2-3.8-4.5-5.9-6.5c-2.9-2.8-3.8-5.9-3.1-9.8
	c2.3-12.5-0.7-24.2-7-35.2c-1.3-2.2-2.6-4.4-3.8-6.6c-0.5-0.9-0.8-1.8-1.1-2.8c-0.6-1.6,0.3-2.7,1.6-3.6c1.4-0.9,2.7-0.5,3.8,0.4
	c1.8,1.5,2.9,3.4,3.9,5.4c6.6,12.7,8.9,26,6.2,40c-0.2,1.2-0.4,2.4-0.6,3.5c-0.6,3.3,0.2,6.1,2.7,8.6c2.6,2.7,5.4,5.4,7.6,8.5
	c0.5,0.7,1,0.5,1.6,0.3c2.7-0.8,5.5-1.5,8.2-2.4c3-1,6-1,9.1,0c2.5,0.8,5.1,1.4,7.6,2.2c1.1,0.3,1.8,0.2,2.5-0.7
	c2.9-3.3,5.9-6.6,9-9.8c1.6-1.6,2-3.3,1.6-5.4c-0.6-4.2-1-8.4-1.6-12.6c-0.9-6.3,0.5-12.4,1.9-18.5c1.2-5.2,2.7-10.3,5.4-14.9
	c0.8-1.3,1.7-2.6,2.9-3.6c1.7-1.3,3.7-1.4,5.2-0.2c1.7,1.3,1.5,2.9,0.6,4.4c-1,1.7-2.3,3.3-3.3,5c-6.6,10.3-9.9,21.4-8.7,33.5
	c0.3,2.5,0.1,5,0.3,7.5c0.1,2.4-0.7,4.3-2.5,6.1c-2.7,2.7-5.2,5.5-7.7,8.4c-2,2.3-1.9,2.4,0.1,4.5c2.5,2.7,5.2,5.4,7.6,8.2
	c5.8,6.7,7.5,14.5,6.2,23c-0.6,4.3-3.1,6-7.7,5.8c-3.1-0.2-6.3-0.6-9.9-0.9c4.7,7.1,5.1,14.6,4.3,22.5c2.5-0.4,4.4-1.3,6.3-2.2
	c4.5-2.2,8.6-5,12.5-8c3.4-2.6,3.6-6.3,4.1-9.9c1-6.8,1.7-13.7,4.3-20.2c1.1-2.9,2.6-5.7,4.5-8.3c0.6-0.8,1.1-1.7,1.9-2.1
	c4.2-2.4,6.3-6.3,8.6-10.1c2.1-3.4,4-6.8,5.9-10.3c0.7-1.2,1.5-2,3.1-2c0,1.4-0.7,2.5-1.2,3.6c-3.5,7.4-8.3,14.2-12.1,21.6
	c-5.2,10.2-10,20.5-12.9,31.5c-2.8,10.5-11,16.1-21.2,19.4c-3.2,1-4.5,2.6-4.8,5.5c-0.6,5.3-1.3,10.6-1.9,16.1
	c1.4,0.1,2.6-0.6,3.7-1c8.8-3.2,17-7.5,25.6-11c3-1.2,5.9-2.4,9.1-3.1c1.2-0.3,1.9,0,2.6,0.9c4.6,5.6,8.4,11.7,12.1,17.9
	c5.4,9,10.8,18.1,16.2,27.1c1.1,1.9,2.4,3.7,3.9,5.4c2.9,3.2,6.4,5.1,11,4.9c1.4-0.1,2.8-0.1,4.2,0.3c0.7,0.2,1.3,0.6,1.5,1.3
	c0.2,0.7-0.6,1-1,1.3c-2,1.4-4.2,1.7-6.6,1.1c-3.7-0.9-6.7-3-9.5-5.4c-9-7.7-15.7-17.1-22.1-26.6c-4.8-7-7.6-14.9-10.9-22.5
	c-1.4-3.2-1.4-3.3-4.7-1.6c-10.1,5.3-19.7,11.5-29.6,17.1c-2.3,1.3-4.7,2.7-7,4c-6,3.4-7.7,8.8-7.6,15c0,1,0.5,1.8,1.2,2.5
	c1.1,1.2,2.3,2.4,3.5,3.4c4.2,3.4,7.7,7.3,10,12.1c1.4,2.9,3.7,4.7,6.7,6.3c11.6,6,21.7,13.9,30.9,22.8c2.7,2.6,3.4,5.7,4.1,8.9
	c2.6,12.1,4.9,24.2,7.8,36.2c2.6,10.6,7,20.4,16.4,27.5C356.5,397.4,358.1,399,358.9,401.7z"/>
<path class="st1" d="M434,262.4c3.7,0,7.3,0.1,11,0c1.5,0,2,0.3,2,1.9c-0.7,16.4-12.7,27-30.4,26.8c-12.4-0.2-22.3-4.5-29.1-14.6
	c-10.5-15.5-2-37.7,16.7-43.2c14.5-4.2,27.2-1.2,38.4,8.3c0.8,0.7,0.8,1,0,1.7c-1.2,1-2.2,2.6-3.6,2.9c-1.4,0.3-2.4-1.6-3.6-2.4
	c-8.5-6-17.7-8.4-28.1-5.3c-10.6,3.2-18,12.3-18.1,22.5c-0.1,10.1,7.5,20.1,18.1,23.2c9.4,2.8,18.4,2.2,26.3-4.2
	c3.4-2.7,5.3-6.3,6.4-10.3c0.3-1.3,0.2-1.8-1.5-1.8c-5.3,0.1-10.5,0-15.8,0.1c-1.3,0-1.6-0.4-1.6-1.6c0-4-0.1-4,4.1-4
	C428.1,262.4,431.1,262.4,434,262.4C434,262.4,434,262.4,434,262.4z"/>
<path class="st1" d="M54.8,261.3c0.2-16.9,14.1-30.2,31.9-29.8c19,0.4,32,13.6,31.4,31.6c-0.5,14.6-14.1,29.3-34.1,28
	C67.6,290,54.3,276.7,54.8,261.3z"/>
<path class="st1" d="M147.3,263.2c7.3,8.9,14.3,17.5,21.6,26.3c-2.5,0-4.7,0-6.9,0c-0.8,0-1.1-0.7-1.5-1.3
	c-6.5-7.9-13-15.8-19.5-23.7c-0.4-0.5-0.7-1.3-1.6-1.4c-2.3-0.4-2.8,0-2.8,2.2c0,7.4-0.1,14.7,0,22.1c0,1.6-0.3,2.2-2.2,2.1
	c-4-0.1-4,0-4-3.8c0-17,0-33.9,0-50.9c0-1.8,0.5-2.2,2.3-2.2c6.9,0.2,13.8-0.2,20.6,0.5c8.7,0.8,14.5,6.3,14.8,14.5
	c0.3,7.7-5.2,13.7-13.8,15C152.2,263.1,150,263.2,147.3,263.2z"/>
<path class="st1" d="M42.7,261.2c0,8.9,0,17.8,0,26.6c0,1.4-0.4,1.8-1.9,1.7c-4.1-0.1-4.1,0-4.1-3.9c0-7.2,0-14.4,0-21.7
	c0-1.3-0.3-1.8-1.8-1.8c-9.1,0.1-18.1,0.1-27.2,0c-1.4,0-1.7,0.4-1.7,1.7c0.1,8,0,15.9,0.1,23.9c0,1.5-0.4,1.9-2,1.8
	c-4-0.1-4.1,0-4.1-3.8c0-16.9,0-33.8,0-50.7c0-1.7,0.3-2.4,2.3-2.3c3.7,0.2,3.7,0,3.7,3.6c0,6.2,0,12.5,0,18.7
	c0,1.2,0.3,1.7,1.7,1.7c9.1-0.1,18.3-0.1,27.4,0c1.3,0,1.6-0.4,1.6-1.6c-0.1-6.8,0-13.6-0.1-20.5c0-1.4,0.3-1.9,1.9-1.9
	c4.1,0.1,4.1,0,4.1,3.8C42.7,244.8,42.7,253,42.7,261.2z"/>
<path class="st1" d="M510.9,289.6c-2,0-3.8,0-5.6,0c-1.1,0-1.3-0.9-1.6-1.6c-2.6-5.2-5.3-10.3-7.8-15.6c-0.5-1.1-1.2-1.6-2.5-1.6
	c-7.6,0.1-15.2,0-22.7,0c-1.1,0-1.6,0.3-2.1,1.2c-2.6,5.3-5.4,10.6-7.9,16c-0.6,1.2-1.3,1.6-2.7,1.6c-4.7-0.1-4.8-0.1-2.7-4.2
	c8.5-17.1,17.1-34.2,25.6-51.3c0.3-0.6,0.4-1.4,1.5-1.4c1,0.1,1,0.8,1.3,1.4c9,18.1,17.9,36.3,26.9,54.4
	C510.7,288.9,510.8,289.1,510.9,289.6z"/>
<path class="st2" d="M371.6,261.2c0,8.7,0,17.5,0,26.2c0,1.6-0.3,2.2-2.1,2.2c-4-0.1-4,0-4-3.8c0-17,0-33.9-0.1-50.9
	c0-1.8,0.5-2.2,2.3-2.2c3.8,0.1,3.8,0,3.8,3.5C371.6,244.6,371.6,252.9,371.6,261.2z"/>
<path class="st0" d="M111.8,261.1c0.1,14-10.9,24.3-25.8,24.3c-13.8,0.1-25.2-10.7-25.2-23.7c0-13.8,11.2-24.8,25.3-24.8
	C100.5,236.9,111.8,247.6,111.8,261.1z"/>
<path class="st0" d="M136.5,247.9c0-2.7,0-5.4,0-8.1c0-0.8-0.1-1.4,1.1-1.4c5.3,0.2,10.7-0.3,16,0.5c4.6,0.7,7.9,4,8.2,8.3
	c0.4,4.5-2.4,8.4-6.9,9.7c-3.5,1-7.2,0.8-10.9,0.9c-1.9,0-3.8-0.1-5.7,0c-1.7,0.1-2-0.5-1.9-1.9
	C136.6,253.2,136.5,250.6,136.5,247.9z"/>
<path class="st0" d="M472,265.5c3.5-7,6.9-13.6,10.3-20.6c3.3,6.7,6.5,13.1,9.7,19.4c0.5,0.9,0.2,1.1-0.8,1.1
	C484.9,265.5,478.6,265.5,472,265.5z"/>
</svg>
