<?xml version="1.0" encoding="utf-8"?>
<!-- Generator: Adobe Illustrator 23.0.3, SVG Export Plug-In . SVG Version: 6.00 Build 0)  -->
<svg version="1.1" id="Layer_1" xmlns="http://www.w3.org/2000/svg" xmlns:xlink="http://www.w3.org/1999/xlink" x="0px" y="0px"
	 viewBox="0 0 512 512" style="enable-background:new 0 0 512 512;" xml:space="preserve">
<style type="text/css">
	.st0{clip-path:url(#SVGID_2_);fill:#FF1600;}
	.st1{clip-path:url(#SVGID_2_);fill:#FFFFFF;}
	.st2{clip-path:url(#SVGID_2_);fill:#FFFCFB;}
</style>
<g>
	<defs>
		<circle id="SVGID_1_" cx="256" cy="255.9" r="256"/>
	</defs>
	<clipPath id="SVGID_2_">
		<use xlink:href="#SVGID_1_"  style="overflow:visible;"/>
	</clipPath>
	<path class="st0" d="M0,512C0,321.8,0,152.2,0,2.6C0,1.7,0,0.9,0,0c0.8,0.1,1.5,0,2.3,0c169.5,0,339,0,508.4,0c0.4,0,0.8,0,1.3,0.1
		c0,2.3,0,4.7,0,7c0,155.8,0,322.9,0,501.3c0,1.2,0,2.3,0,3.5c-0.4,0-0.8,0.1-1.2,0.1c-170,0-340,0-510.1,0C0.5,512,0.2,512,0,512z"
		/>
	<path class="st1" d="M355.4,401.7c-2-0.8-3.3-1.8-4.6-3c-13.3-11.4-21.3-25.2-23.5-42.1c-1-7.8-1.6-15.4-1.9-23.3
		c0-0.9-0.1-1.6-1.1-2c-10.9-5.5-20.5-13-31-19c-0.2-0.1-0.5-0.2-0.7-0.4c-1.5-1.1-1.6-0.3-1.6,1c-0.1,4.3,0.2,8.6-0.5,12.9
		c-1.5,8.9-4.9,17-12.3,23c-7.1,5.8-16,5.6-22.9-0.4c-6.4-5.4-9.7-12.4-11.3-20.3c-1.1-5.4-1.4-10.9-1.3-16.4
		c-1.2-0.1-1.9,0.6-2.8,1.1c-6.4,3.2-11.9,7.7-18,11.3c-3.7,2.1-7.3,4.2-10.9,6.5c-1.8,1.2-2.6,2.6-2.6,4.8
		c-0.1,10.3-1.4,20.4-3.7,30.4c-2.1,9.2-7.3,17-13.1,24.4c-2.7,3.4-5.5,6.7-9,9.4c-1.2,0.9-2.3,1.7-4.1,2c0.6-1.8,1.6-3.5,3.1-4.6
		c10.6-7.6,14.6-18.5,17.9-29.9c2.8-10.1,4.6-20.4,6-30.7c0.8-5.2,2.9-9.5,7-13.1c8.6-7.6,17.8-14.7,28.1-20c2.8-1.5,5-3.4,6.6-6.1
		c1-1.8,2.1-3.6,3.2-5.3c2-3.6,4.9-6.3,8.5-8.3c1.3-0.7,1.7-1.7,2-3.1c1.1-6.3-1.6-11.2-7-14.4c-12.1-7.3-24-14.9-36.6-21.5
		c-1.8-1-2.7-0.6-3.4,1.1c-1.9,4.6-3.9,9.2-6,13.7c-6.8,13.8-15.7,26.1-28.1,36c-2.2,1.7-4.7,3.1-7.5,3.8c-2.3,0.6-4.6,0.5-6.6-0.9
		c-0.5-0.4-1.4-0.6-0.8-1.5c0.4-0.7,0.7-1.5,1.7-1.4c1,0.1,2,0,3,0.2c3.4,0.6,6.2-0.5,8.5-2.6c3.3-2.9,5.7-6.4,8.1-9.9
		c6.5-9.7,11.9-20,18-30c2.4-4,4.9-8,8.1-11.5c0.9-1,1.6-1.3,2.9-0.7c11.7,4.9,23.6,9.6,35.3,14.5c0.4,0.2,0.8,0.3,1.5,0.6
		c-0.9-5.7-0.4-11.4-2-16.7c-0.7-2.2-2.2-3.9-4.7-4.8c-3-1.1-5.9-2.3-8.7-3.8c-5.7-3-9.6-7.4-11.3-13.3
		c-4.5-16.4-12.2-31.5-21.2-46.1c-1.4-2.1-2.4-4.5-3.5-6.7c-0.5-1.1-1.1-2.2-0.8-3.7c1.4,0.4,1.9,1.5,2.6,2.3
		c2.4,3.3,4.2,7.1,6.1,10.7c1.6,3.3,3.8,6,7.1,8.2c4.3,2.9,5.9,7.6,7.8,12c2.2,5.6,2.8,11.5,3.2,17.4c0.4,5.2,2.3,9.3,7,12.4
		c4.3,2.9,8.6,5.6,13.6,7.4c1.6,0.6,1.9,0.3,1.8-1.4c-0.3-4.5-0.2-9,1.1-13.4c0.7-2.2,1.7-4.3,3-6.5c-2.2,0.1-4.2,0.2-6.1,0.3
		c-0.9,0-1.7,0.2-2.6,0.2c-6.6,0-9.4-3-8.8-9.2c1-9.7,4.8-18.2,12.6-24.9c3.7-3.2,3.6-3.3,0.5-7.1c-1.8-2.1-3.7-4.4-5.7-6.3
		c-2.8-2.7-3.7-5.7-3-9.5c2.2-12.1-0.7-23.5-6.8-34.2c-1.3-2.1-2.5-4.3-3.7-6.4c-0.5-0.9-0.8-1.7-1.1-2.7c-0.6-1.6,0.3-2.6,1.6-3.5
		c1.4-0.9,2.6-0.5,3.7,0.4c1.7,1.5,2.8,3.3,3.8,5.2c6.4,12.3,8.6,25.2,6,38.8c-0.2,1.2-0.4,2.3-0.6,3.4c-0.6,3.2,0.2,5.9,2.6,8.3
		c2.5,2.6,5.2,5.2,7.4,8.2c0.5,0.7,1,0.5,1.6,0.3c2.6-0.8,5.3-1.5,8-2.3c2.9-1,5.8-1,8.8,0c2.4,0.8,4.9,1.4,7.4,2.1
		c1.1,0.3,1.7,0.2,2.4-0.7c2.8-3.2,5.7-6.4,8.7-9.5c1.6-1.6,1.9-3.2,1.6-5.2c-0.6-4.1-1-8.2-1.6-12.2c-0.9-6.1,0.5-12,1.8-17.9
		c1.2-5,2.6-10,5.2-14.5c0.8-1.3,1.6-2.5,2.8-3.5c1.6-1.3,3.6-1.4,5-0.2c1.6,1.3,1.5,2.8,0.6,4.3c-1,1.6-2.2,3.2-3.2,4.9
		c-6.4,10-9.6,20.8-8.4,32.5c0.3,2.4,0.1,4.9,0.3,7.3c0.1,2.3-0.7,4.2-2.4,5.9c-2.6,2.6-5,5.3-7.5,8.2c-1.9,2.2-1.8,2.3,0.1,4.4
		c2.4,2.6,5,5.2,7.4,8c5.6,6.5,7.3,14.1,6,22.3c-0.6,4.2-3,5.8-7.5,5.6c-3-0.2-6.1-0.6-9.6-0.9c4.6,6.9,4.9,14.2,4.2,21.8
		c2.4-0.4,4.3-1.3,6.1-2.1c4.4-2.1,8.3-4.9,12.1-7.8c3.3-2.5,3.5-6.1,4-9.6c1-6.6,1.6-13.3,4.2-19.6c1.1-2.8,2.5-5.5,4.4-8.1
		c0.6-0.8,1.1-1.6,1.8-2c4.1-2.3,6.1-6.1,8.3-9.8c2-3.3,3.9-6.6,5.7-10c0.7-1.2,1.5-1.9,3-1.9c0,1.4-0.7,2.4-1.2,3.5
		c-3.4,7.2-8.1,13.8-11.7,21c-5,9.9-9.7,19.9-12.5,30.6c-2.7,10.2-10.7,15.6-20.6,18.8c-3.1,1-4.4,2.5-4.7,5.3
		c-0.6,5.1-1.3,10.3-1.8,15.6c1.4,0.1,2.5-0.6,3.6-1c8.5-3.1,16.5-7.3,24.8-10.7c2.9-1.2,5.7-2.3,8.8-3c1.2-0.3,1.8,0,2.5,0.9
		c4.5,5.4,8.2,11.4,11.7,17.4c5.2,8.7,10.5,17.6,15.7,26.3c1.1,1.8,2.3,3.6,3.8,5.2c2.8,3.1,6.2,4.9,10.7,4.8
		c1.4-0.1,2.7-0.1,4.1,0.3c0.7,0.2,1.3,0.6,1.5,1.3c0.2,0.7-0.6,1-1,1.3c-1.9,1.4-4.1,1.6-6.4,1.1c-3.6-0.9-6.5-2.9-9.2-5.2
		c-8.7-7.5-15.2-16.6-21.4-25.8c-4.7-6.8-7.4-14.5-10.6-21.8c-1.4-3.1-1.4-3.2-4.6-1.6c-9.8,5.1-19.1,11.2-28.7,16.6
		c-2.2,1.3-4.6,2.6-6.8,3.9c-5.8,3.3-7.5,8.5-7.4,14.6c0,1,0.5,1.7,1.2,2.4c1.1,1.2,2.2,2.3,3.4,3.3c4.1,3.3,7.5,7.1,9.7,11.7
		c1.4,2.8,3.6,4.6,6.5,6.1c11.3,5.8,21.1,13.5,30,22.1c2.6,2.5,3.3,5.5,4,8.6c2.5,11.7,4.8,23.5,7.6,35.1
		c2.5,10.3,6.8,19.8,15.9,26.7C353.1,397.5,354.6,399.1,355.4,401.7z"/>
	<path class="st1" d="M428.3,266.5c3.6,0,7.1,0.1,10.7,0c1.5,0,1.9,0.3,1.9,1.8c-0.7,15.9-12.3,26.2-29.5,26
		c-12-0.2-21.6-4.4-28.2-14.2c-10.2-15-1.9-36.6,16.2-41.9c14.1-4.1,26.4-1.2,37.3,8.1c0.8,0.7,0.8,1,0,1.6c-1.2,1-2.1,2.5-3.5,2.8
		c-1.4,0.3-2.3-1.6-3.5-2.3c-8.2-5.8-17.2-8.2-27.3-5.1c-10.3,3.1-17.5,11.9-17.6,21.8c-0.1,9.8,7.3,19.5,17.6,22.5
		c9.1,2.7,17.9,2.1,25.5-4.1c3.3-2.6,5.1-6.1,6.2-10c0.3-1.3,0.2-1.7-1.5-1.7c-5.1,0.1-10.2,0-15.3,0.1c-1.3,0-1.6-0.4-1.6-1.6
		c0-3.9-0.1-3.9,4-3.9C422.6,266.5,425.5,266.5,428.3,266.5L428.3,266.5z"/>
	<path class="st1" d="M60.4,265.5c0.2-16.4,13.7-29.3,31-28.9c18.4,0.4,31,13.2,30.5,30.7c-0.5,14.2-13.7,28.4-33.1,27.2
		C72.8,293.3,59.9,280.4,60.4,265.5z"/>
	<path class="st1" d="M150.1,267.3c7.1,8.6,13.9,17,21,25.5c-2.4,0-4.6,0-6.7,0c-0.8,0-1.1-0.7-1.5-1.3c-6.3-7.7-12.6-15.3-18.9-23
		c-0.4-0.5-0.7-1.3-1.6-1.4c-2.2-0.4-2.7,0-2.7,2.1c0,7.2-0.1,14.3,0,21.4c0,1.6-0.3,2.1-2.1,2c-3.9-0.1-3.9,0-3.9-3.7
		c0-16.5,0-32.9,0-49.4c0-1.7,0.5-2.1,2.2-2.1c6.7,0.2,13.4-0.2,20,0.5c8.4,0.8,14.1,6.1,14.4,14.1c0.3,7.5-5,13.3-13.4,14.6
		C154.9,267.2,152.7,267.3,150.1,267.3z"/>
	<path class="st1" d="M48.6,265.4c0,8.6,0,17.3,0,25.8c0,1.4-0.4,1.7-1.8,1.6c-4-0.1-4,0-4-3.8c0-7,0-14,0-21.1
		c0-1.3-0.3-1.7-1.7-1.7c-8.8,0.1-17.6,0.1-26.4,0c-1.4,0-1.6,0.4-1.6,1.6c0.1,7.8,0,15.4,0.1,23.2c0,1.5-0.4,1.8-1.9,1.7
		c-3.9-0.1-4,0-4-3.7c0-16.4,0-32.8,0-49.2c0-1.6,0.3-2.3,2.2-2.2c3.6,0.2,3.6,0,3.6,3.5c0,6,0,12.1,0,18.1c0,1.2,0.3,1.6,1.6,1.6
		c8.8-0.1,17.8-0.1,26.6,0c1.3,0,1.6-0.4,1.6-1.6c-0.1-6.6,0-13.2-0.1-19.9c0-1.4,0.3-1.8,1.8-1.8c4,0.1,4,0,4,3.7
		C48.6,249.5,48.6,257.4,48.6,265.4z"/>
	<path class="st1" d="M502.9,292.9c-1.9,0-3.7,0-5.4,0c-1.1,0-1.3-0.9-1.6-1.6c-2.5-5-5.1-10-7.6-15.1c-0.5-1.1-1.2-1.6-2.4-1.6
		c-7.4,0.1-14.7,0-22,0c-1.1,0-1.6,0.3-2,1.2c-2.5,5.1-5.2,10.3-7.7,15.5c-0.6,1.2-1.3,1.6-2.6,1.6c-4.6-0.1-4.7-0.1-2.6-4.1
		c8.2-16.6,16.6-33.2,24.8-49.8c0.3-0.6,0.4-1.4,1.5-1.4c1,0.1,1,0.8,1.3,1.4c8.7,17.6,17.4,35.2,26.1,52.8
		C502.7,292.3,502.8,292.4,502.9,292.9z"/>
	<path class="st2" d="M367.7,265.4c0,8.4,0,17,0,25.4c0,1.6-0.3,2.1-2,2.1c-3.9-0.1-3.9,0-3.9-3.7c0-16.5,0-32.9-0.1-49.4
		c0-1.7,0.5-2.1,2.2-2.1c3.7,0.1,3.7,0,3.7,3.4C367.7,249.3,367.7,257.3,367.7,265.4z"/>
	<path class="st0" d="M115.7,265.3c0.1,13.6-10.6,23.6-25,23.6c-13.4,0.1-24.5-10.4-24.5-23c0-13.4,10.9-24.1,24.5-24.1
		C104.7,241.8,115.7,252.2,115.7,265.3z"/>
	<path class="st0" d="M139.6,252.5c0-2.6,0-5.2,0-7.9c0-0.8-0.1-1.4,1.1-1.4c5.1,0.2,10.4-0.3,15.5,0.5c4.5,0.7,7.7,3.9,8,8.1
		c0.4,4.4-2.3,8.2-6.7,9.4c-3.4,1-7,0.8-10.6,0.9c-1.8,0-3.7-0.1-5.5,0c-1.6,0.1-1.9-0.5-1.8-1.8
		C139.7,257.6,139.6,255.1,139.6,252.5z"/>
	<path class="st0" d="M465.2,269.6c3.4-6.8,6.7-13.2,10-20c3.2,6.5,6.3,12.7,9.4,18.8c0.5,0.9,0.2,1.1-0.8,1.1
		C477.7,269.6,471.6,269.6,465.2,269.6z"/>
</g>
</svg>
