<svg xmlns="http://www.w3.org/2000/svg" xmlns:xlink="http://www.w3.org/1999/xlink" viewBox="0 0 501 430.8"><defs><style>.cls-1{isolation:isolate;}.cls-12,.cls-2{opacity:0.09;}.cls-13,.cls-2{mix-blend-mode:multiply;}.cls-3{fill:#c73e00;}.cls-4{fill:#d16300;}.cls-5{fill:#d09200;}.cls-6{font-size:91.64px;fill:#fff;font-family:Corbel;}.cls-7{letter-spacing:-0.05em;}.cls-8{letter-spacing:-0.02em;}.cls-9{letter-spacing:0em;}.cls-10{fill:none;stroke:#5c4921;stroke-miterlimit:10;}.cls-11{fill:#c79f01;}.cls-13{opacity:0.13;}.cls-14{fill:url(#Degradado_sin_nombre_8);}</style><radialGradient id="Degradado_sin_nombre_8" cx="286.22" cy="356.19" r="57.96" gradientTransform="translate(-617.97 -309.76) scale(3.01 2.01)" gradientUnits="userSpaceOnUse"><stop offset="0" stop-color="#fff"/><stop offset="0.02" stop-color="#f7f7f7"/><stop offset="0.31" stop-color="#a1a1a1"/><stop offset="0.55" stop-color="#5c5c5c"/><stop offset="0.76" stop-color="#2a2a2a"/><stop offset="0.91" stop-color="#0b0b0b"/><stop offset="1"/></radialGradient></defs><title>chat</title><g class="cls-1"><g id="Layer_1" data-name="Layer 1"><g class="cls-2"><polygon points="116.36 356.18 39.58 355.78 186.32 34.53 262.52 36.18 116.36 356.18"/></g><polygon class="cls-3" points="113.36 352.18 36.58 351.78 183.32 30.53 259.52 32.18 113.36 352.18"/><g class="cls-2"><polygon points="337.87 246.22 400.72 180.16 356.47 36.92 276.32 34.53 337.87 246.22"/></g><polygon class="cls-4" points="334.87 242.22 397.72 176.16 353.47 32.92 273.32 30.53 334.87 242.22"/><g class="cls-2"><polygon points="354.83 354.89 278.05 354.49 424.8 33.24 501 34.89 354.83 354.89"/></g><polygon class="cls-4" points="351.83 350.89 275.05 350.49 421.8 29.24 498 30.89 351.83 350.89"/><g class="cls-2"><polygon points="247.39 267.71 170.72 267.71 276.47 34.53 352.67 36.18 247.39 267.71"/></g><polygon class="cls-5" points="244.39 263.71 167.72 263.71 273.47 30.53 349.67 32.18 244.39 263.71"/><text class="cls-6" transform="matrix(0.57, -1.26, 0.89, 0.47, 357.71, 327.06)">J<tspan class="cls-7" x="34.32" y="0">A</tspan><tspan class="cls-8" x="87.61" y="0">T</tspan><tspan class="cls-9" x="136.25" y="0">O</tspan></text><path class="cls-10" d="M128.32,17.1" transform="translate(-13 -29.39)"/><path class="cls-10" d="M170.07,21.22" transform="translate(-13 -29.39)"/><path class="cls-10" d="M128.32,21.22" transform="translate(-13 -29.39)"/><path class="cls-10" d="M170.07,38.65" transform="translate(-13 -29.39)"/><polyline class="cls-11" points="95.95 0 157.07 0 158.54 71.57 95.95 197.88"/><g class="cls-12"><g class="cls-13"><ellipse cx="247.68" cy="408.14" rx="244.68" ry="22.66"/></g><ellipse class="cls-14" cx="244.68" cy="406.14" rx="244.68" ry="22.66"/></g></g></g></svg>