<svg id="Layer_1" data-name="Layer 1" xmlns="http://www.w3.org/2000/svg" xmlns:xlink="http://www.w3.org/1999/xlink" viewBox="0 0 512 512"><defs><style>.cls-1{fill:none;}.cls-2{clip-path:url(#clip-path);}.cls-3{fill:#fff;}.cls-4{fill:#2879fe;}</style><clipPath id="clip-path"><rect class="cls-1" x="-83.49" y="-23.59" width="693.43" height="562.51"/></clipPath></defs><title>clock</title><g class="cls-2"><rect class="cls-3" width="512" height="512"/><path class="cls-4" d="M339.29,298c4.71,8.07,7.48,16.59,5.71,26.3a29.38,29.38,0,0,1-8.95,16.49c-9.91,9.34-23.8,10.36-33.19,2.33a32.76,32.76,0,0,1-11.25-21.21c-1.19-8.87,1.3-16.67,6.12-24H241.1c-.09.46.29.84.51,1.25a43.39,43.39,0,0,1,5,12.94A31.77,31.77,0,0,1,240.25,338c-13.68,18-38.64,12.29-45.85-10.35a31.92,31.92,0,0,1,2-24.57c.44-.88.9-1.75,1.35-2.61s.85-1.65,1.35-2.6l-4.7-.37a16.94,16.94,0,0,1-4.09-.86c-3.8-1.28-5.35-4.18-4.67-8.61a64.16,64.16,0,0,1,2.66-9.92q5.37-16.8,10.71-33.61a9.38,9.38,0,0,1,3.74-5.47c.66-.42.76-.88.53-1.72-2.95-10.74-6.22-21.36-9.48-32q-16.06-52.49-32.22-104.94c-.89-2.89-1.7-5.82-2.44-8.77a8.28,8.28,0,0,0-5-6c-11.23-4.94-22.41-10-33.64-15-3.61-1.58-6-4.15-6.44-8.59-.75-7.85,4.64-13.16,11.4-11.34,3.89,1,7.5,3,11.2,4.61,9.89,4.39,19.74,8.88,29.65,13.22,4.24,1.86,6.85,5.06,8.21,10.06,1.95,7.2,4,14.36,6.4,21.39a9,9,0,0,1,.39,1.1c.22,1.13.81,1.42,1.82,1.46,16.79.58,33.58.24,50.38.07,17.88-.18,35.75-.08,53.63-.09q46.44,0,92.88,0a21.33,21.33,0,0,1,8.12,1.28c3.23,1.3,4.77,3.73,4.84,7.63.07,4.2-1.09,8.12-2.19,12q-15.27,54.09-30.54,108.19c-1.38,4.88-2.56,9.83-4,14.67-1.86,6.15-5.15,8.9-10.86,9q-25.47.24-51,.28c-24.57,0-49.15.22-73.72-.27-2.44,0-4.87-.14-7.31-.32a1.24,1.24,0,0,0-1.48,1q-4,11.22-7.13,22.78c-.34,1.28,0,1.43,1,1.42q25.14,0,50.27,0h85.21a38.07,38.07,0,0,1,6.83.45q6.17,1.11,6.35,7.61c.12,4.5-2.37,8.32-6,9.26a22.8,22.8,0,0,1-5.89.33A12.18,12.18,0,0,0,339.29,298Z"/><path class="cls-4" d="M76.87,389.05v20.76q0,12,0,24a9,9,0,0,1-1.36,5.31,5,5,0,0,1-5.64,2.06c-2.11-.5-3.34-2.24-3.87-4.57a11.2,11.2,0,0,1-.28-2.6q0-26.87,0-53.74c0-4.35,1.87-6.58,5.7-7a40.34,40.34,0,0,1,8.58.05c2.31.23,3.79,1.66,4.53,4.18,1.19,4.07,2,8.23,3,12.36,2.21,9.35,4.38,18.7,6.77,28.09.53-2.21,1.06-4.43,1.58-6.64,2.47-10.5,4.89-21,7.4-31.5,1.32-5.48,2.12-6.2,7.09-6.64a29.26,29.26,0,0,1,7.18.15c3.55.56,5.2,2.92,5.23,7.43,0,4.7,0,9.4,0,14.09q0,19,0,37.94a19.71,19.71,0,0,1-.27,3.53c-.64,3.45-2.86,5.23-6.1,5-2.45-.19-4.52-2.72-4.73-5.86-.07-1.09-.07-2.19-.07-3.29v-43c-.33.21-.34.58-.42.92q-4.74,21.39-9.52,42.79c-.55,2.44-1.13,4.87-2.93,6.69a6.59,6.59,0,0,1-10.6-2.32c-1.4-3.22-1.92-6.73-2.69-10.15-2.83-12.55-5.59-25.11-8.39-37.67C77.08,389.35,77,389.29,76.87,389.05Z"/><path class="cls-4" d="M162,434.44a35.9,35.9,0,0,1-7,4.83c-5.62,2.58-11.3,3.24-16.86-.11-6.22-3.75-8.28-12.63-4.52-19.18a13.41,13.41,0,0,1,8.83-6.4c5.75-1.45,11.55-2.59,17.21-4.44,1.6-.53,1.6-.5,1.38-2.33-.07-.56-.13-1.12-.24-1.67-.81-3.95-2.11-5.35-5.64-5.72a21.09,21.09,0,0,0-5.2.13,9,9,0,0,0-6.62,4.92c-.5.88-1,1.75-1.54,2.61a3.73,3.73,0,0,1-4.72,1.66,4.75,4.75,0,0,1-3.27-4.39A11.38,11.38,0,0,1,138,395.1c3.68-3.22,8-4.37,12.56-4.64a33.26,33.26,0,0,1,12.17,1.2c5.07,1.61,7.9,5.42,8.87,11.21a46.31,46.31,0,0,1,.49,8c0,4.3,0,8.6-.05,12.9-.07,3.63.86,7,1.75,10.39a5.32,5.32,0,0,1-2.43,6.47c-1.94,1.32-4.3.84-6-1.17-.64-.76-1.25-1.55-1.82-2.38S162.51,435.35,162,434.44Z"/><path class="cls-4" d="M445.65,415.9c.12,3.77-.26,7.54.19,11.31.3,2.44,1.06,4.73,1.58,7.1.8,3.62-1.41,6.85-4.72,7a4,4,0,0,1-3.09-1.21,18.21,18.21,0,0,1-3.48-4.72c-.4-.78-.69-.93-1.44-.31-3.23,2.65-6.6,5-10.62,5.79-4.91.92-9.66.76-13.94-2.77-7.23-6-6.19-18.64,1.91-23,3-1.6,6.19-2.08,9.35-2.83q6.15-1.46,12.23-3.25c1-.29,1.2-.83,1-1.87a30.91,30.91,0,0,0-.77-3.83,4.94,4.94,0,0,0-3.87-3.67,17.31,17.31,0,0,0-7.71.15c-2.93.74-4.62,3.11-6.13,5.76-.25.44-.53.87-.74,1.33-1,2.18-2.79,2.22-4.54,1.87a4.25,4.25,0,0,1-3.47-3.57,9.48,9.48,0,0,1,1-5.94,14.33,14.33,0,0,1,9-7.47,31.06,31.06,0,0,1,19.53.09c4.78,1.55,7.34,5.45,8.28,10.89C445.92,407.13,445.56,411.53,445.65,415.9Z"/><path class="cls-4" d="M198.93,427.22c2.27-7.35,4.52-14.68,6.81-22,1.2-3.86,2.24-7.8,3.77-11.52,1-2.52,2.87-3.64,5.15-3.16a5.21,5.21,0,0,1,4.15,5.06,20.56,20.56,0,0,1-1.47,6.56q-6.92,20.63-13.88,41.23a74.78,74.78,0,0,1-3.34,8.63c-2.18,4.52-5.57,7.06-10,7.62a23.14,23.14,0,0,1-9.22-.5,4.62,4.62,0,0,1-3.7-4.92c0-2.49,1.22-4.16,3.4-4.49a6.42,6.42,0,0,1,2.65.09c4.08,1.06,6,0,7.84-4.26.68-1.61,1.25-3.28,1.89-4.92a1.78,1.78,0,0,0-.05-1.36q-6.82-19.47-13.66-38.93c-.86-2.44-1.38-4.81.14-7.21,1.95-3.07,6.84-4.26,8.95.57,1.79,4.08,2.78,8.51,4.13,12.78,2,6.49,4,13,5.93,19.55C198.5,426.44,198.49,426.94,198.93,427.22Z"/><path class="cls-4" d="M266.89,415.87c.05,6.52-1.39,12.5-5.2,17.51a19,19,0,0,1-11.76,7.44c-5.16,1-10.24.77-15.07-1.81-6.44-3.46-10.11-9.38-11.44-17.2a33.26,33.26,0,0,1,1.39-17.14c2.81-7.78,8.1-12.15,15.23-13.69a21.57,21.57,0,0,1,14.42,1.59c7.07,3.49,10.87,9.84,12.13,18.32A39.51,39.51,0,0,1,266.89,415.87Z"/><path class="cls-4" d="M350.2,441.3c-5,.12-9.81-.91-13.95-4.28a11.56,11.56,0,0,1-4.68-8.9,5.12,5.12,0,0,1,3-5.05,4.12,4.12,0,0,1,5.33,2.11c1.17,2.06,2.23,4.17,4,5.7,3.25,2.79,9.47,3,12.78.33a5.21,5.21,0,0,0-.37-8.15c-2.78-1.85-5.91-2.45-8.95-3.42-3.48-1.1-6.95-2.22-10.08-4.41-7.79-5.47-6.35-16.29.08-21.16,4-3.07,8.57-3.77,13.28-3.56a22.32,22.32,0,0,1,10.4,2.73,12.75,12.75,0,0,1,5.44,5.68c1.25,2.65.89,5.6-1,7.11-1.58,1.29-4.84,1.64-6.62-.54-1.31-1.61-2.54-3.31-4-4.78-2.91-3-9.19-2.74-11.72.37a4,4,0,0,0,.38,5.44c2,1.85,4.43,2.37,6.8,3.1,3.67,1.13,7.43,1.91,10.91,3.74a18,18,0,0,1,5.73,4.56c3.57,4.38,2.58,11.63.31,15.57-2.53,4.37-6.41,6.23-10.72,7.22A26.85,26.85,0,0,1,350.2,441.3Z"/><path class="cls-4" d="M391.5,386.09c0,1.37.09,2.74,0,4.09s.36,1.54,1.36,1.48a27.18,27.18,0,0,1,3.72.07,4.31,4.31,0,0,1,3.76,4.21,4.11,4.11,0,0,1-3,4.35,14.64,14.64,0,0,1-4.83.48c-.71,0-1,.16-1,1.08,0,8.26,0,16.51,0,24.77a12.26,12.26,0,0,0,.23,2.08,3.09,3.09,0,0,0,2.93,2.81,11.91,11.91,0,0,0,4.11-.64,3.84,3.84,0,0,1,4.76,2.57,5,5,0,0,1-2,5.85,11.34,11.34,0,0,1-5.37,1.83,22.47,22.47,0,0,1-9-.46c-4-1.22-6.25-4.75-6.62-10-.54-7.67-.13-15.36-.26-23,0-1.76-.07-3.52,0-5.27.07-1.23-.21-1.74-1.37-1.64a4.47,4.47,0,0,1-3.31-.9,4.79,4.79,0,0,1-1.57-4.88,4.44,4.44,0,0,1,3.59-3.24h.23c2.41-.29,2.37-.29,2.42-3.13,0-3.33-.26-6.67.25-10,.46-3.06,2.88-5.23,5.51-5.06s4.91,2.69,5.19,5.71C391.5,381.53,391.52,383.81,391.5,386.09Z"/><path class="cls-4" d="M286.17,397.66c.75-1.15,1.41-2.26,2.14-3.3,2.63-3.71,6.12-4.49,10-3.54,2.46.6,4.83,1.53,6.44,4a5.67,5.67,0,0,1,.08,6c-1.24,2-2.95,2.68-4.94,2s-3.81-1.41-5.86-1.38c-2.53,0-4.32,1.34-5.43,3.9-1.65,3.83-1.92,8-2,12.14-.12,5.13-.07,10.26-.11,15.4a13.75,13.75,0,0,1-.54,4.52,5.39,5.39,0,0,1-6.18,3.82c-2.2-.33-4.09-2.81-4.33-5.72-.08-.87-.12-1.75-.12-2.62q0-16.65,0-33.31a16.68,16.68,0,0,1,.6-5.31c.83-2.53,2.73-4,5.11-3.83s4,1.53,4.61,4.29C285.84,395.66,286,396.61,286.17,397.66Z"/><path class="cls-4" d="M322.56,415.84c0,6.41.08,12.83,0,19.23-.08,4.53-3.8,7.42-7.45,5.9-1.94-.8-3-2.59-3.39-4.8a16.12,16.12,0,0,1-.25-2.87q0-17.52,0-35c0-2.12.21-4.24,1.6-5.87a4.82,4.82,0,0,1,5.94-1.5,5.76,5.76,0,0,1,3.54,5.6C322.63,402.94,322.56,409.39,322.56,415.84Z"/><path class="cls-4" d="M322.6,378.79c0,3.63-2.22,6.1-5.48,6.09s-5.64-2.46-5.67-6.1c0-3.39,2.58-6.31,5.67-6.26A5.63,5.63,0,0,1,322.6,378.79Z"/><path class="cls-3" d="M215.4,126.32q12.87,0,25.76,0c.75,0,1.19,0,1.17,1.15q-.15,9.93-.16,19.88c0,1-.27,1.22-1.12,1.21q-22.52,0-45,0a1.25,1.25,0,0,1-1.37-1c-2.26-6.47-4.31-13-6-19.73-.38-1.5-.35-1.51,1-1.51H215.4Z"/><path class="cls-3" d="M281.16,168.81c6.31.05,12.62-.14,18.92.28,1.6.1,1.66.13,1.83,1.94a113.64,113.64,0,0,1,.1,13.81c-.08,2.9.06,5.79,0,8.69,0,1.6-.22,1.87-1.58,1.9-12.26.25-24.53.49-36.78-.09-3.52-.16-3.43.59-3.44-4.07q0-10.28,0-20.54c0-1.58.26-1.82,1.76-1.84,3.25,0,6.5-.06,9.75-.07S278,168.81,281.16,168.81Z"/><path class="cls-3" d="M345.66,126.36c8.16,0,16.32,0,24.49,0,1,0,1.21.2.88,1.33q-2.89,9.86-5.67,19.73c-.23.83-.51,1.16-1.34,1.16q-21.48-.18-42.95-.24c-.89,0-1.16-.24-1.15-1.29q.07-9.75,0-19.49c0-1,.25-1.24,1.11-1.24,8.2,0,16.4,0,24.61,0Z"/><path class="cls-3" d="M222.08,168.88h17.76a6.4,6.4,0,0,1,1.16.06c1.56.29,1.89.74,1.9,2.53,0,5.84-.11,11.68.16,17.52a21.24,21.24,0,0,1-.31,5,1.35,1.35,0,0,1-1.22,1.3,43.58,43.58,0,0,1-6.14.41q-7.54-.06-15.08-.22c-2.71-.06-5.41.15-8.12.2s-3.3-.57-4.13-3.37q-2.42-8.16-4.86-16.3c-.19-.63-.21-1.37-.95-1.68-.44-.18,0-.71-.09-1.06-.26-1-.5-1.93-.82-2.87s-.09-1.17.69-1.29a33.43,33.43,0,0,1,5.08-.46c5,0,10,0,15,0Z"/><path class="cls-3" d="M281,149.2c-6.46-.09-12.91,0-19.37-.33-1-.05-1.27-.45-1.32-1.53-.27-6.58,0-13.16-.08-19.74,0-1.31.38-1.73,1.53-1.73,12.34-.06,24.67-.47,37,0,3.75.15,3.05-.11,3.26,3.49a176.87,176.87,0,0,1-.12,18.42c-.05,1.12-.74.94-1.31,1-3.89.36-7.8.32-11.7.4C286.25,149.25,283.62,149.2,281,149.2Z"/><path class="cls-3" d="M339.27,169.38c6.19,0,12.38,0,18.56,0,.95,0,1.18.23,1,1.33a91.65,91.65,0,0,1-3.39,12,72.28,72.28,0,0,0-2.84,10.4c-.11.68.23,1.6-.25,2s-1.19.21-1.81.26c-6,.48-12,.41-18,.38-3.71,0-7.42-.14-11.12-.49-1.88-.17-1.86-.14-1.9-2.33q-.19-9.81-.4-19.61c0-1,.06-2,.12-3,.05-.73.32-1,.88-1.07a11.14,11.14,0,0,1,1.16,0h18Z"/><path class="cls-3" d="M280.82,237.84h-18c-.5,0-1-.07-1.5-.12-.84-.09-1.26-.64-1.2-1.58.37-6.18-.42-12.37.17-18.55.18-2,.19-2,2-2.13a308.11,308.11,0,0,1,32-.29c2.13.07,4.25.24,6.37.45.91.09,1.14.55,1.19,1.49.18,3.59.16,7.19.1,10.79,0,2.24-.06,4.48,0,6.72.08,2.66-.78,3.24-2.85,3.23C293.05,237.83,286.94,237.84,280.82,237.84Z"/><path class="cls-3" d="M229,215a107.31,107.31,0,0,1,12.29.41c1.08.1,1.56.45,1.55,1.88-.08,6.06,0,12.12,0,18.18,0,1.72-.06,1.76-1.56,1.79l-17.76.28c-1.74,0-1.74,0-2.31-1.94-1.31-4.45-2.6-8.89-3.9-13.33a22.49,22.49,0,0,0-1-3.35,10.08,10.08,0,0,1-.71-2.24c-.25-1.19.31-1.18.92-1.23,2.2-.17,4.4-.36,6.6-.44C225.09,215,227.07,215,229,215Z"/><path class="cls-3" d="M333.25,215.77c4,0,8,0,12.06,0,.33,0,.75-.19.94.27a1.1,1.1,0,0,1-.18,1.21,1.42,1.42,0,0,0-.32,1.31c.1.45-.75.75-.47,1-.28-.21-.47.76-.58,1.18-1.37,5.06-2.75,10.12-4,15.2-.29,1.14-.73,1.45-1.76,1.44-5.72-.06-11.45,0-17.17,0-1.67,0-1.91-.19-1.9-2.19,0-4,.12-8.07.19-12.1,0-2.11.13-4.21.12-6.32,0-.82.24-1,.93-1,4.06,0,8.12,0,12.18,0Z"/><path class="cls-3" d="M231.53,321c0,7.37-4.95,12.75-11.74,12.77-6.27,0-11.46-6.17-11.44-13.64a12.47,12.47,0,0,1,12.4-12.79C226.76,307.36,231.53,313.4,231.53,321Z"/><path class="cls-3" d="M318.87,307.4c6.17,0,11.08,6,11.1,13.64,0,7.45-4.9,12.7-11.88,12.72-6.38,0-11.15-5.76-11.14-13.46C307,312.88,312,307.41,318.87,307.4Z"/><path class="cls-3" d="M161.16,418.88a29,29,0,0,1-.55,5.59c-.94,4.58-3.83,6.88-7.58,8a8.91,8.91,0,0,1-6.15,0c-2.55-1-3.92-3.49-3.88-6.57,0-2.75,1.66-4.73,4.66-5.7,3.58-1.15,7.24-2,10.87-2.93a7.3,7.3,0,0,0,1.65-.56c.89-.46,1.07-.07,1,.86C161.13,418,161.17,418.44,161.16,418.88Z"/><path class="cls-3" d="M434.71,419a26.77,26.77,0,0,1-.56,5.59c-.94,4.6-3.88,6.85-7.63,8-2.55.76-5.1.86-7.46-.88a6.77,6.77,0,0,1-1.62-8.74,7.51,7.51,0,0,1,4.49-3c3.54-1,7.15-1.67,10.65-2.83C434.73,416.38,434.73,416.39,434.71,419Z"/><path class="cls-3" d="M255.69,416.45a22,22,0,0,1-2.89,11.17,9.5,9.5,0,0,1-16.8-1.88A25.26,25.26,0,0,1,234.23,415a21.67,21.67,0,0,1,2.29-9.91,9.46,9.46,0,0,1,17,.24C255.19,408.66,255.66,412.25,255.69,416.45Z"/></g></svg>