<svg id="a471f049-e354-48fe-8068-f4a98ae792c4" data-name="Layer 1" xmlns="http://www.w3.org/2000/svg" xmlns:xlink="http://www.w3.org/1999/xlink" viewBox="0 0 606.3 595.1">
  <defs>
    <style>
      .bad552f5-5648-4a67-a884-9d08b07fa10e {
        fill: none;
      }

      .f349404a-36ad-41a1-a532-c92dfa47b9b4 {
        clip-path: url(#b2d9ada7-8ffe-4d9a-8290-29327213a43e);
      }

      .eb199d6b-b524-4f36-9716-7ef6cfeb1dbb {
        fill: #fff;
      }

      .a7bf48be-05c3-4ce6-8bc3-a42c5a67840e {
        fill: #007aff;
      }

      .f1b7c76c-82df-444a-89f3-ce0ab2a03d7b {
        font-size: 31.99px;
        fill: #2979ff;
        font-family: ArialRoundedMTBold, Arial Rounded MT Bold;
      }

      .b34b5aa3-f562-4f1f-90a8-282fa7aee6c4 {
        letter-spacing: -0.04em;
      }
    </style>
    <clipPath id="b2d9ada7-8ffe-4d9a-8290-29327213a43e">
      <ellipse class="bad552f5-5648-4a67-a884-9d08b07fa10e" cx="303.1" cy="297.5" rx="303.1" ry="297.5"/>
    </clipPath>
  </defs>
  <title>clock</title>
  <g class="f349404a-36ad-41a1-a532-c92dfa47b9b4">
    <g>
      <rect class="eb199d6b-b524-4f36-9716-7ef6cfeb1dbb" x="-51.9" y="-14.6" width="748.8" height="602.34"/>
      <path class="a7bf48be-05c3-4ce6-8bc3-a42c5a67840e" d="M394.4,329.8c5.1,8.6,8.1,17.7,6.2,28.1a31.4,31.4,0,0,1-9.7,17.7c-10.7,10-25.7,11.1-35.8,2.5a35.2,35.2,0,0,1-12.2-22.7c-1.2-9.5,1.4-17.9,6.7-25.7H288.4c-.1.5.3.9.6,1.3a52.1,52.1,0,0,1,5.4,13.9,33.9,33.9,0,0,1-6.9,27.7c-14.8,19.2-41.7,13.2-49.5-11.1-3-9.1-2-17.9,2.1-26.3l1.5-2.8,1.4-2.8-5-.4a16.4,16.4,0,0,1-4.4-.9c-4.1-1.4-5.8-4.5-5.1-9.2a75.3,75.3,0,0,1,2.9-10.6c3.8-12,7.7-24,11.5-36a10.1,10.1,0,0,1,4.1-5.9c.7-.4.8-.9.6-1.8-3.2-11.5-6.8-22.9-10.3-34.3-11.5-37.4-23.2-74.9-34.8-112.3-.9-3.1-1.8-6.3-2.6-9.4a8.8,8.8,0,0,0-5.4-6.5l-36.4-16c-3.8-1.7-6.4-4.4-6.9-9.2-.8-8.4,5-14.1,12.3-12.1,4.2,1.1,8.1,3.2,12.1,4.9l32,14.2c4.6,2,7.4,5.4,8.9,10.7,2.1,7.7,4.3,15.4,6.9,23,.1.3.3.7.4,1.1s.9,1.5,2,1.6c18.1.6,36.2.2,54.4.1s38.6-.1,57.9-.1H438.4a22.3,22.3,0,0,1,8.8,1.4c3.4,1.3,5.1,3.9,5.2,8.1s-1.2,8.7-2.4,12.9L417,258.8c-1.4,5.2-2.7,10.5-4.3,15.7s-5.6,9.5-11.7,9.6l-55.1.3c-26.5,0-53,.2-79.6-.3l-7.9-.4a1.5,1.5,0,0,0-1.6,1.1c-2.8,8-5.4,16.1-7.7,24.4-.3,1.3,0,1.5,1.1,1.5H396.5a36.4,36.4,0,0,1,7.4.5c4.5.8,6.7,3.5,6.9,8.1s-2.6,8.9-6.5,9.9a23,23,0,0,1-6.4.4A14.2,14.2,0,0,0,394.4,329.8Z"/>
      <path class="a7bf48be-05c3-4ce6-8bc3-a42c5a67840e" d="M111.1,427.2v22.3c0,8.5,0,17.1-.1,25.7a9,9,0,0,1-1.4,5.6,5.3,5.3,0,0,1-6.1,2.2c-2.3-.5-3.6-2.4-4.2-4.8a13.3,13.3,0,0,1-.3-2.8V417.8c0-4.6,2-7,6.2-7.5a47.1,47.1,0,0,1,9.2.1c2.5.2,4.1,1.8,4.9,4.5,1.3,4.3,2.2,8.8,3.3,13.2,2.4,10,4.7,20,7.3,30.1.6-2.4,1.1-4.8,1.7-7.1,2.7-11.3,5.3-22.5,8-33.8,1.4-5.8,2.3-6.6,7.6-7.1a33.9,33.9,0,0,1,7.8.2c3.8.6,5.6,3.1,5.7,7.9v55.8a23.1,23.1,0,0,1-.3,3.7c-.7,3.7-3.1,5.6-6.6,5.4s-4.9-2.9-5.1-6.3c-.1-1.2-.1-2.4-.1-3.5v-46a.9.9,0,0,0-.4.9c-3.5,15.3-6.9,30.6-10.3,45.9-.6,2.6-1.2,5.2-3.2,7.1a7.1,7.1,0,0,1-11.4-2.5c-1.6-3.4-2.1-7.2-2.9-10.8-3.1-13.5-6.1-26.9-9.1-40.4Z"/>
      <path class="a7bf48be-05c3-4ce6-8bc3-a42c5a67840e" d="M202.9,475.9a36.8,36.8,0,0,1-7.5,5.1c-6.1,2.8-12.3,3.5-18.3-.1s-8.9-13.5-4.8-20.5a14.4,14.4,0,0,1,9.5-6.9c6.2-1.5,12.5-2.8,18.6-4.7,1.7-.6,1.7-.6,1.5-2.5l-.3-1.8c-.9-4.3-2.3-5.8-6.1-6.1a21.1,21.1,0,0,0-5.6.1,9.4,9.4,0,0,0-7.1,5.3l-1.7,2.7a4,4,0,0,1-5.1,1.8,4.9,4.9,0,0,1-3.5-4.7c-.2-4.2,1.7-7.4,4.6-9.9a21.6,21.6,0,0,1,13.6-4.9,36.3,36.3,0,0,1,13.1,1.2c5.5,1.8,8.5,5.8,9.6,12a49.7,49.7,0,0,1,.5,8.6c0,4.6,0,9.2-.1,13.8s1,7.5,1.9,11.1-.6,5.6-2.6,7-4.6.9-6.5-1.3-1.3-1.7-1.9-2.5Z"/>
      <path class="a7bf48be-05c3-4ce6-8bc3-a42c5a67840e" d="M509.3,456c.1,4-.3,8.1.2,12.1a64.3,64.3,0,0,0,1.7,7.6c.9,3.9-1.5,7.3-5.1,7.5a4.1,4.1,0,0,1-3.3-1.3,20.7,20.7,0,0,1-3.8-5c-.4-.9-.7-1-1.6-.4-3.4,2.9-7.1,5.4-11.4,6.2s-10.4.8-15.1-2.9c-7.8-6.4-6.7-20,2.1-24.6,3.2-1.7,6.7-2.3,10.1-3.1s8.8-2.2,13.2-3.5c1-.3,1.3-.8,1.1-2s-.4-2.7-.8-4a5.5,5.5,0,0,0-4.2-4,19.3,19.3,0,0,0-8.3.2c-3.2.8-5,3.3-6.7,6.2l-.8,1.4c-1.1,2.3-3,2.3-4.9,2a4.7,4.7,0,0,1-3.7-3.8,10.8,10.8,0,0,1,1-6.4,15.5,15.5,0,0,1,9.7-8,33.1,33.1,0,0,1,21.1.1c5.2,1.6,8,5.8,9,11.6S509.2,451.3,509.3,456Z"/>
      <path class="a7bf48be-05c3-4ce6-8bc3-a42c5a67840e" d="M242.9,468.1c2.4-7.9,4.8-15.7,7.3-23.5a128.6,128.6,0,0,1,4.1-12.4c1.1-2.7,3.1-3.9,5.6-3.3a5.5,5.5,0,0,1,4.4,5.4,21.6,21.6,0,0,1-1.6,7c-4.9,14.7-10,29.4-14.9,44.1a75,75,0,0,1-3.7,9.3c-2.3,4.8-6,7.5-10.8,8.1a24.2,24.2,0,0,1-10-.5c-2.7-.7-3.9-2.5-3.9-5.3s1.3-4.4,3.6-4.8a9.4,9.4,0,0,1,2.9.1c4.4,1.2,6.5,0,8.4-4.5.8-1.8,1.4-3.5,2.1-5.3a2,2,0,0,0-.1-1.5l-14.7-41.6c-.9-2.7-1.5-5.2.1-7.8s7.4-4.5,9.7.6,3,9.2,4.5,13.7c2.2,7,4.2,14,6.4,21C242.4,467.3,242.4,467.8,242.9,468.1Z"/>
      <path class="a7bf48be-05c3-4ce6-8bc3-a42c5a67840e" d="M316.3,456c0,6.9-1.6,13.3-5.7,18.7a20.3,20.3,0,0,1-12.7,8c-5.5,1-11,.8-16.2-2-7-3.7-11-10-12.4-18.4a34.5,34.5,0,0,1,1.5-18.3c3-8.4,8.8-13,16.5-14.7a23.7,23.7,0,0,1,15.5,1.7c7.7,3.8,11.8,10.6,13.1,19.6A49,49,0,0,1,316.3,456Z"/>
      <path class="a7bf48be-05c3-4ce6-8bc3-a42c5a67840e" d="M406.2,483.2c-5.4.1-10.6-1-15.1-4.6a12.3,12.3,0,0,1-5-9.5,5.4,5.4,0,0,1,3.3-5.4c2.3-.9,4.4-.1,5.7,2.2s2.4,4.5,4.3,6.1c3.5,3,10.3,3.3,13.8.4a5.4,5.4,0,0,0-.4-8.7c-3-2-6.4-2.7-9.6-3.7s-7.5-2.4-10.9-4.7c-8.4-5.9-6.9-17.5.1-22.7,4.3-3.3,9.2-4,14.3-3.8a24.6,24.6,0,0,1,11.2,2.9,13.4,13.4,0,0,1,5.9,6.1c1.4,2.9,1,6-1,7.6s-5.3,1.8-7.2-.6-2.7-3.5-4.3-5.1c-3.1-3.2-9.9-2.9-12.6.4a4.2,4.2,0,0,0,.4,5.9c2.1,1.9,4.8,2.5,7.3,3.3,4,1.2,8,2,11.8,4a19.2,19.2,0,0,1,6.2,4.9c3.8,4.7,2.8,12.4.3,16.6s-6.9,6.7-11.6,7.8A32.2,32.2,0,0,1,406.2,483.2Z"/>
      <path class="a7bf48be-05c3-4ce6-8bc3-a42c5a67840e" d="M450.8,424.1c0,1.4.1,2.9,0,4.4s.4,1.6,1.5,1.5h4a4.6,4.6,0,0,1,4,4.5,4.3,4.3,0,0,1-3.2,4.7,18.4,18.4,0,0,1-5.2.5c-.8,0-1.1.2-1.1,1.2v26.5a16.6,16.6,0,0,0,.3,2.2,3.3,3.3,0,0,0,3.2,3,13.1,13.1,0,0,0,4.4-.7,4.1,4.1,0,0,1,5.1,2.8,5.3,5.3,0,0,1-2.1,6.2,11.6,11.6,0,0,1-5.8,2c-3.3.3-6.5.5-9.7-.5s-6.8-5.1-7.2-10.7c-.5-8.2-.1-16.4-.2-24.6a54.2,54.2,0,0,1,0-5.7c.1-1.3-.2-1.8-1.5-1.7a4.8,4.8,0,0,1-3.6-1,5.2,5.2,0,0,1-1.7-5.2,4.9,4.9,0,0,1,3.9-3.5h.3c2.6-.3,2.5-.3,2.6-3.3s-.3-7.2.2-10.7a6.2,6.2,0,0,1,6-5.5c2.9.2,5.3,2.9,5.6,6.2S450.8,421.6,450.8,424.1Z"/>
      <path class="a7bf48be-05c3-4ce6-8bc3-a42c5a67840e" d="M337.1,436.5c.8-1.3,1.5-2.5,2.3-3.6,2.8-3.9,6.6-4.8,10.8-3.8,2.6.7,5.2,1.7,6.9,4.3a5.9,5.9,0,0,1,.1,6.4c-1.3,2.1-3.2,2.9-5.3,2.2s-4.1-1.5-6.3-1.5a6.3,6.3,0,0,0-5.9,4.2c-1.8,4.1-2.1,8.6-2.2,13s-.1,11-.1,16.5a12.9,12.9,0,0,1-.6,4.8,5.7,5.7,0,0,1-6.7,4.1c-2.3-.3-4.4-3-4.6-6.1a26.4,26.4,0,0,1-.2-2.8V438.5a18.6,18.6,0,0,1,.7-5.7c.9-2.7,2.9-4.2,5.5-4.1s4.3,1.7,5,4.6C336.7,434.3,336.9,435.3,337.1,436.5Z"/>
      <path class="a7bf48be-05c3-4ce6-8bc3-a42c5a67840e" d="M376.4,455.9c0,6.9.1,13.8-.1,20.6,0,4.9-4.1,8-8,6.3-2.1-.8-3.2-2.7-3.7-5.1a15.6,15.6,0,0,1-.2-3.1V437.1c0-2.3.2-4.5,1.7-6.3a5.2,5.2,0,0,1,6.4-1.6,6.2,6.2,0,0,1,3.8,6C376.4,442.1,376.4,449,376.4,455.9Z"/>
      <path class="a7bf48be-05c3-4ce6-8bc3-a42c5a67840e" d="M376.4,416.3c0,3.8-2.4,6.5-5.9,6.5s-6.1-2.7-6.1-6.6a6.5,6.5,0,0,1,6.1-6.7A6.2,6.2,0,0,1,376.4,416.3Z"/>
      <path class="eb199d6b-b524-4f36-9716-7ef6cfeb1dbb" d="M260.6,145.9h27.9c.8,0,1.3,0,1.2,1.2-.1,7.1-.1,14.2-.1,21.3,0,1.1-.3,1.3-1.3,1.3H239.7a1.3,1.3,0,0,1-1.5-1.1c-2.4-6.9-4.6-13.9-6.4-21.1-.4-1.6-.4-1.6,1-1.6Z"/>
      <path class="eb199d6b-b524-4f36-9716-7ef6cfeb1dbb" d="M331.7,191.4c6.8.1,13.6-.1,20.4.3,1.7.1,1.8.1,2,2.1a145.9,145.9,0,0,1,.1,14.8c-.1,3.1,0,6.2,0,9.3s-.3,2-1.7,2c-13.3.3-26.5.5-39.7-.1-3.8-.2-3.7.7-3.8-4.3,0-7.4,0-14.7.1-22,0-1.7.3-2,1.9-2h20.7Z"/>
      <path class="eb199d6b-b524-4f36-9716-7ef6cfeb1dbb" d="M401.3,146h26.5c1.1,0,1.3.2.9,1.5-2.1,7-4.1,14-6.1,21.1-.3.9-.6,1.2-1.5,1.2l-46.3-.2c-1,0-1.3-.3-1.3-1.4.1-7,.1-13.9,0-20.9,0-1.1.3-1.3,1.2-1.3h26.6Z"/>
      <path class="eb199d6b-b524-4f36-9716-7ef6cfeb1dbb" d="M267.9,191.5h20.4c1.7.3,2,.7,2,2.7.1,6.2-.1,12.5.2,18.7a23.3,23.3,0,0,1-.3,5.3c-.2.9-.5,1.3-1.3,1.4a49.1,49.1,0,0,1-6.7.5l-16.3-.3-8.7.3c-2.8,0-3.6-.7-4.5-3.7-1.7-5.8-3.5-11.6-5.2-17.4-.2-.7-.3-1.5-1.1-1.8s.1-.8-.1-1.1a28.1,28.1,0,0,0-.8-3.1c-.3-.9-.1-1.3.7-1.4a34.1,34.1,0,0,1,5.5-.5h16.2Z"/>
      <path class="eb199d6b-b524-4f36-9716-7ef6cfeb1dbb" d="M331.5,170.4c-7-.1-14,0-20.9-.3-1.2-.1-1.4-.5-1.5-1.7-.3-7,.1-14.1-.1-21.1,0-1.4.5-1.9,1.7-1.9,13.3,0,26.6-.5,40,.1,4,.1,3.2-.2,3.5,3.7a161.9,161.9,0,0,1-.2,19.7c0,1.2-.7,1-1.4,1.1-4.2.4-8.4.3-12.6.4Z"/>
      <path class="eb199d6b-b524-4f36-9716-7ef6cfeb1dbb" d="M394.4,192h20.1c1,0,1.2.2,1,1.4a95.1,95.1,0,0,1-3.7,12.9,78.7,78.7,0,0,0-3,11.1c-.1.7.2,1.7-.3,2.1s-1.3.2-1.9.3c-6.5.5-13,.4-19.4.4-4.1,0-8.1-.2-12.1-.5-2-.2-2-.2-2-2.5-.1-7-.3-14-.4-21a18.2,18.2,0,0,1,.1-3.3,1,1,0,0,1,.9-1.1h20.7Z"/>
      <path class="eb199d6b-b524-4f36-9716-7ef6cfeb1dbb" d="M331.3,265.3H310.2c-.9-.1-1.3-.7-1.3-1.7.4-6.6-.4-13.2.2-19.9.2-2.1.2-2.1,2.2-2.2a332.8,332.8,0,0,1,34.6-.3c2.3,0,4.6.2,6.9.4s1.2.6,1.3,1.6c.2,3.9.1,7.7.1,11.6s-.1,4.8,0,7.2-.9,3.4-3.1,3.4Z"/>
      <path class="eb199d6b-b524-4f36-9716-7ef6cfeb1dbb" d="M275.4,240.9a119.2,119.2,0,0,1,13.3.5c1.1.1,1.6.4,1.6,2-.1,6.5,0,12.9,0,19.4,0,1.9,0,1.9-1.7,1.9l-19.1.3c-1.9.1-1.9.1-2.5-2-1.5-4.8-2.9-9.5-4.3-14.3a15,15,0,0,0-1.1-3.6,16.8,16.8,0,0,1-.7-2.4c-.3-1.3.3-1.3,1-1.3l7.1-.5Z"/>
      <path class="eb199d6b-b524-4f36-9716-7ef6cfeb1dbb" d="M387.9,241.7h13c.4,0,.8-.2,1.1.3a1.5,1.5,0,0,1-.2,1.3,1.4,1.4,0,0,0-.4,1.4c.1.5-.8.8-.5,1s-.5.8-.6,1.3c-1.5,5.4-3,10.8-4.4,16.3-.3,1.2-.8,1.5-1.9,1.5-6.2-.1-12.4,0-18.5,0-1.8,0-2.1-.2-2.1-2.4,0-4.3.1-8.6.2-12.9.1-2.3.2-4.5.2-6.8s.2-1.1,1-1.1h13.1Z"/>
      <path class="eb199d6b-b524-4f36-9716-7ef6cfeb1dbb" d="M278.1,354.4c0,7.9-5.4,13.6-12.7,13.6S253,361.4,253,353.4a13.5,13.5,0,0,1,13.4-13.7C272.9,339.8,278.1,346.2,278.1,354.4Z"/>
      <path class="eb199d6b-b524-4f36-9716-7ef6cfeb1dbb" d="M372.4,339.8c6.6,0,11.9,6.5,12,14.6S379.1,368,371.5,368s-12-6.1-12-14.4S365,339.8,372.4,339.8Z"/>
      <path class="eb199d6b-b524-4f36-9716-7ef6cfeb1dbb" d="M202.1,459.2a30.5,30.5,0,0,1-.6,6c-1,4.9-4.2,7.3-8.2,8.6a9.4,9.4,0,0,1-6.6-.1c-2.8-1.1-4.3-3.7-4.2-7s1.8-5.1,5-6.1,7.8-2.1,11.7-3.1a9.5,9.5,0,0,0,1.8-.6c1-.5,1.2-.1,1.1.9Z"/>
      <path class="eb199d6b-b524-4f36-9716-7ef6cfeb1dbb" d="M497.5,459.3a30.5,30.5,0,0,1-.6,6c-1.1,4.9-4.2,7.3-8.3,8.5s-5.5.9-8-.9a7.3,7.3,0,0,1-1.8-9.4,8,8,0,0,1,4.9-3.2c3.8-1.1,7.7-1.8,11.5-3S497.5,456.5,497.5,459.3Z"/>
      <path class="eb199d6b-b524-4f36-9716-7ef6cfeb1dbb" d="M304.2,456.6a22.9,22.9,0,0,1-3.2,11.9c-3.7,6.1-14.3,6.7-18.1-2a26.1,26.1,0,0,1-1.9-11.4,22.4,22.4,0,0,1,2.5-10.6,10.2,10.2,0,0,1,18.3.2C303.6,448.2,304.1,452.1,304.2,456.6Z"/>
      <text class="f1b7c76c-82df-444a-89f3-ce0ab2a03d7b" transform="translate(272 511.9)">DISTRI<tspan class="b34b5aa3-f562-4f1f-90a8-282fa7aee6c4" x="108" y="0">B</tspan><tspan x="129.8" y="0">UIDOR</tspan></text>
    </g>
  </g>
</svg>
