<?xml version="1.0" encoding="utf-8"?>
<!-- Generator: Adobe Illustrator 23.0.3, SVG Export Plug-In . SVG Version: 6.00 Build 0)  -->
<svg version="1.1" id="Layer_1" xmlns="http://www.w3.org/2000/svg" xmlns:xlink="http://www.w3.org/1999/xlink" x="0px" y="0px"
	 viewBox="0 0 512 512" style="enable-background:new 0 0 512 512;" xml:space="preserve">
<style type="text/css">
	.st0{fill:#324042;}
	.st1{opacity:0.54;fill:#FDF6DF;stroke:#FDF6DF;stroke-width:11.7655;stroke-miterlimit:10;}
	.st2{filter:url(#Adobe_OpacityMaskFilter);}
	.st3{filter:url(#Adobe_OpacityMaskFilter_1_);}
	.st4{mask:url(#SVGID_1_);fill:url(#SVGID_2_);}
	.st5{fill:url(#SVGID_3_);}
	.st6{opacity:0.34;fill:url(#SVGID_4_);}
	.st7{opacity:0.33;fill:url(#SVGID_5_);}
	.st8{opacity:0.27;fill:url(#SVGID_6_);}
	.st9{opacity:0.27;fill:url(#SVGID_7_);}
	.st10{fill:#D67C16;}
	.st11{fill:#F6F60B;}
</style>
<g>
	<g>
		<path class="st0" d="M181.8,13C101.6,13,36.7,78,36.7,158.2s65,145.1,145.1,145.1s145.1-65,145.1-145.1S261.9,13,181.8,13z
			 M181.8,285.1c-70.1,0-126.9-56.8-126.9-126.9c0-70.1,56.8-126.9,126.9-126.9s126.9,56.8,126.9,126.9
			C308.7,228.3,251.9,285.1,181.8,285.1z"/>
		<g>
			<g>
				<path class="st1" d="M182,30.3c-70.4,0-127.4,57-127.4,127.4C54.6,228,111.6,285,182,285c70.4,0,127.4-57,127.4-127.4
					C309.3,87.3,252.3,30.3,182,30.3z M182.2,282.9c-69.1,0-125.2-56-125.2-125.2c0-69.2,56.1-125.2,125.2-125.2
					c69.1,0,125.2,56,125.2,125.2C307.4,226.8,251.3,282.9,182.2,282.9z"/>
				<defs>
					<filter id="Adobe_OpacityMaskFilter" filterUnits="userSpaceOnUse" x="54.6" y="30.3" width="254.8" height="254.8">
						<feFlood  style="flood-color:white;flood-opacity:1" result="back"/>
						<feBlend  in="SourceGraphic" in2="back" mode="normal"/>
					</filter>
				</defs>
				<mask maskUnits="userSpaceOnUse" x="54.6" y="30.3" width="254.8" height="254.8" id="SVGID_1_">
					<g class="st2">
						<defs>
							<filter id="Adobe_OpacityMaskFilter_1_" filterUnits="userSpaceOnUse" x="54.6" y="30.3" width="254.8" height="254.8">
								<feFlood  style="flood-color:white;flood-opacity:1" result="back"/>
								<feBlend  in="SourceGraphic" in2="back" mode="normal"/>
							</filter>
						</defs>
						<mask maskUnits="userSpaceOnUse" x="54.6" y="30.3" width="254.8" height="254.8" id="SVGID_1_">
							<g class="st3">
							</g>
						</mask>
						<linearGradient id="SVGID_2_" gradientUnits="userSpaceOnUse" x1="101.1956" y1="253.3328" x2="323.0688" y2="-9.5313">
							<stop  offset="0" style="stop-color:#FFFFFF"/>
							<stop  offset="1" style="stop-color:#000000"/>
						</linearGradient>
						<path class="st4" d="M182,30.3c-70.4,0-127.4,57-127.4,127.4C54.6,228,111.6,285,182,285c70.4,0,127.4-57,127.4-127.4
							C309.3,87.3,252.3,30.3,182,30.3z M182.2,282.9c-69.1,0-125.2-56-125.2-125.2c0-69.2,56.1-125.2,125.2-125.2
							c69.1,0,125.2,56,125.2,125.2C307.4,226.8,251.3,282.9,182.2,282.9z"/>
					</g>
				</mask>
				<linearGradient id="SVGID_3_" gradientUnits="userSpaceOnUse" x1="101.1956" y1="253.3328" x2="323.0688" y2="-9.5313">
					<stop  offset="0" style="stop-color:#FFFFFF"/>
					<stop  offset="1" style="stop-color:#FFFFFF"/>
				</linearGradient>
				<path class="st5" d="M182,30.3c-70.4,0-127.4,57-127.4,127.4C54.6,228,111.6,285,182,285c70.4,0,127.4-57,127.4-127.4
					C309.3,87.3,252.3,30.3,182,30.3z M182.2,282.9c-69.1,0-125.2-56-125.2-125.2c0-69.2,56.1-125.2,125.2-125.2
					c69.1,0,125.2,56,125.2,125.2C307.4,226.8,251.3,282.9,182.2,282.9z"/>
				<linearGradient id="SVGID_4_" gradientUnits="userSpaceOnUse" x1="198.1568" y1="173.7764" x2="52.8779" y2="26.9354">
					<stop  offset="5.618000e-03" style="stop-color:#FFFFFF"/>
					<stop  offset="0.1437" style="stop-color:#F1E9FE"/>
					<stop  offset="0.3587" style="stop-color:#DFCCFE"/>
					<stop  offset="0.5742" style="stop-color:#D2B8FD"/>
					<stop  offset="0.7884" style="stop-color:#CBACFD"/>
					<stop  offset="1" style="stop-color:#C8A8FD"/>
				</linearGradient>
				<path class="st6" d="M307.2,157.1c0,69.3-56.2,125.6-125.6,125.6c-69.3,0-125.6-56.2-125.6-125.6c0-69.3,56.2-125.6,125.6-125.6
					C251,31.5,307.2,87.8,307.2,157.1z"/>
				<radialGradient id="SVGID_5_" cx="216.9617" cy="68.7329" r="229.557" gradientUnits="userSpaceOnUse">
					<stop  offset="5.618000e-03" style="stop-color:#FFFFFF"/>
					<stop  offset="9.043393e-02" style="stop-color:#FBF8F5"/>
					<stop  offset="0.2356" style="stop-color:#F1E6D9"/>
					<stop  offset="0.4237" style="stop-color:#E0C8AD"/>
					<stop  offset="0.6472" style="stop-color:#C99F6F"/>
					<stop  offset="0.898" style="stop-color:#AD6B22"/>
					<stop  offset="1" style="stop-color:#A05400"/>
				</radialGradient>
				<circle class="st7" cx="188.7" cy="165.1" r="114.6"/>
			</g>
			<linearGradient id="SVGID_6_" gradientUnits="userSpaceOnUse" x1="109.4463" y1="77.3653" x2="104.9015" y2="97.8858">
				<stop  offset="2.424240e-02" style="stop-color:#FFFFFF"/>
				<stop  offset="1" style="stop-color:#FFFFFF"/>
			</linearGradient>
			<path class="st8" d="M111,74.5c-3.9,3.2-12,10.5-19.8,22.1l11.8,6.8c9.8-13.4,19.4-20.7,19.4-20.7L111,74.5z"/>
			<linearGradient id="SVGID_7_" gradientUnits="userSpaceOnUse" x1="93.0557" y1="111.7457" x2="78.5089" y2="177.4266">
				<stop  offset="2.424240e-02" style="stop-color:#FFFFFF"/>
				<stop  offset="1" style="stop-color:#FFFFFF"/>
			</linearGradient>
			<path class="st9" d="M88.6,100.5c-0.7,1.2-1.5,2.5-2.2,3.7c-10.5,18.6-20.5,49.3-10.3,91.5l11.8-0.7
				c-11.9-38.5-0.5-68.5,12.4-87.8L88.6,100.5z"/>
		</g>
	</g>
	<g>
		
			<rect x="301.2" y="250" transform="matrix(0.7832 -0.6218 0.6218 0.7832 -133.246 269.3734)" class="st0" width="37" height="151.5"/>
		
			<rect x="362" y="294.1" transform="matrix(0.7832 -0.6218 0.6218 0.7832 -168.9054 328.379)" class="st10" width="48.8" height="224.5"/>
		
			<rect x="372.8" y="305.3" transform="matrix(0.7832 -0.6218 0.6218 0.7832 -171.9706 326.4372)" class="st11" width="18.6" height="209"/>
	</g>
</g>
</svg>
