<?xml version="1.0" encoding="utf-8"?>
<!-- Generator: Adobe Illustrator 23.0.3, SVG Export Plug-In . SVG Version: 6.00 Build 0)  -->
<svg version="1.1" id="Layer_1" xmlns="http://www.w3.org/2000/svg" xmlns:xlink="http://www.w3.org/1999/xlink" x="0px" y="0px"
	 viewBox="0 0 393.5 510.3" style="enable-background:new 0 0 393.5 510.3;" xml:space="preserve">
<style type="text/css">
	.st0{opacity:0.3;}
	.st1{fill:url(#SVGID_1_);}
	.st2{fill:url(#SVGID_2_);}
	.st3{fill:url(#SVGID_3_);}
	.st4{fill:url(#SVGID_4_);}
	.st5{fill:url(#SVGID_5_);}
	.st6{fill:url(#SVGID_6_);}
	.st7{fill:url(#SVGID_7_);}
	.st8{clip-path:url(#SVGID_9_);}
	.st9{fill:url(#SVGID_10_);}
	.st10{fill:url(#SVGID_11_);}
	.st11{fill:url(#SVGID_12_);}
	.st12{fill:url(#SVGID_13_);}
	.st13{fill:url(#SVGID_14_);}
	.st14{fill:#DAF1F1;stroke:url(#SVGID_15_);stroke-width:1.3032;stroke-miterlimit:10;}
	.st15{fill:url(#SVGID_16_);}
	.st16{fill:none;stroke:#00BDB7;stroke-width:2.6064;stroke-linecap:round;stroke-linejoin:round;stroke-miterlimit:10;}
	.st17{fill:none;stroke:#007AB7;stroke-width:2.6064;stroke-linecap:round;stroke-linejoin:round;stroke-miterlimit:10;}
	.st18{clip-path:url(#SVGID_9_);fill:url(#SVGID_17_);}
	.st19{fill:url(#SVGID_18_);}
	.st20{fill:url(#SVGID_19_);}
	.st21{fill:url(#SVGID_20_);}
	.st22{fill:url(#SVGID_21_);}
	.st23{fill:url(#SVGID_22_);}
	.st24{fill:url(#SVGID_23_);}
	.st25{fill:url(#SVGID_24_);}
	.st26{fill:url(#SVGID_25_);}
	.st27{fill:url(#SVGID_26_);}
	.st28{fill:url(#SVGID_27_);}
	.st29{fill:url(#SVGID_28_);}
	.st30{fill:url(#SVGID_29_);}
	.st31{fill:url(#SVGID_30_);}
	.st32{fill:url(#SVGID_31_);}
	.st33{fill:url(#SVGID_32_);}
	.st34{fill:url(#SVGID_33_);}
	.st35{opacity:0.5;fill:url(#SVGID_34_);}
	.st36{fill:none;stroke:url(#SVGID_35_);stroke-width:2.6064;stroke-miterlimit:10;}
	.st37{fill:url(#SVGID_36_);}
	.st38{fill:url(#SVGID_37_);}
	.st39{fill:url(#SVGID_38_);}
	.st40{fill:url(#SVGID_39_);}
	.st41{fill:none;stroke:#CC5833;stroke-width:1.8794;stroke-miterlimit:10;}
	.st42{fill:#D4003C;}
	.st43{fill:#FF335B;}
	.st44{fill:#FFFFFF;}
</style>
<title>smartphone</title>
<g>
	<g class="st0">
		
			<image style="overflow:visible;" width="306" height="428" xlink:href="EFBD8B31.png"  transform="matrix(1 0 0 1 -27.9399 62.39)">
		</image>
	</g>
	<g>
		<linearGradient id="SVGID_1_" gradientUnits="userSpaceOnUse" x1="235.9278" y1="72.6464" x2="111.1599" y2="424.9802">
			<stop  offset="4.469136e-03" style="stop-color:#107D56"/>
			<stop  offset="0.215" style="stop-color:#157C52"/>
			<stop  offset="0.4767" style="stop-color:#257848"/>
			<stop  offset="0.7642" style="stop-color:#3E7237"/>
			<stop  offset="1" style="stop-color:#586C26"/>
		</linearGradient>
		<path class="st1" d="M278.4,423.9C278.5,423.9,278.5,423.8,278.4,423.9c0.1-0.1,0.1-0.2,0.2-0.2c0,0,0.1-0.1,0.1-0.1
			c0,0,0.1-0.1,0.1-0.1c0,0,0.1-0.1,0.1-0.1c0,0,0.1-0.1,0.1-0.1c0,0,0.1-0.1,0.1-0.1c0,0,0.1-0.1,0.1-0.1c0,0,0.1-0.1,0.1-0.1
			c0,0,0.1-0.1,0.1-0.1c0,0,0.1-0.1,0.1-0.1c0,0,0.1-0.1,0.1-0.1c0,0,0.1-0.1,0.1-0.1c0,0,0.1-0.1,0.1-0.1c0,0,0.1-0.1,0.1-0.1
			c0,0,0.1-0.1,0.1-0.1c0,0,0.1-0.1,0.1-0.1c0,0,0.1-0.1,0.1-0.1c0,0,0.1-0.1,0.1-0.1c0,0,0.1-0.1,0.1-0.1c0,0,0.1-0.1,0.1-0.1
			c0,0,0.1-0.1,0.1-0.1c0,0,0.1-0.1,0.1-0.1c0,0,0.1-0.1,0.1-0.1c0,0,0.1-0.1,0.1-0.1c0,0,0.1-0.1,0.1-0.1c0,0,0.1-0.1,0.1-0.1
			c0,0,0.1-0.1,0.1-0.1c0,0,0.1-0.1,0.1-0.1c0,0,0.1-0.1,0.1-0.1c0,0,0.1-0.1,0.1-0.1c0,0,0.1-0.1,0.1-0.1c0,0,0.1-0.1,0.1-0.1
			c0,0,0.1-0.1,0.1-0.1c0,0,0.1-0.1,0.1-0.1c0,0,0.1-0.1,0.1-0.1c0,0,0.1-0.1,0.1-0.1c0,0,0.1-0.1,0.1-0.1c0,0,0.1-0.1,0.1-0.1
			c0,0,0.1-0.1,0.1-0.1c0,0,0.1-0.1,0.1-0.1c0,0,0.1-0.1,0.1-0.1c0,0,0.1-0.1,0.1-0.1c0,0,0.1-0.1,0.1-0.1c0,0,0.1-0.1,0.1-0.1
			c0,0,0.1-0.1,0.1-0.1c0,0,0.1-0.1,0.1-0.1c0,0,0.1-0.1,0.1-0.1c0,0,0.1-0.1,0.1-0.1c0,0,0.1-0.1,0.1-0.1c0,0,0.1-0.1,0.1-0.1
			c0,0,0.1-0.1,0.1-0.1c0,0,0.1-0.1,0.1-0.1c0,0,0.1-0.1,0.1-0.1c0,0,0.1-0.1,0.1-0.1c0,0,0.1-0.1,0.1-0.1c0,0,0.1-0.1,0.1-0.1
			c0,0,0.1-0.1,0.1-0.1c0,0,0.1-0.1,0.1-0.1c0,0,0.1-0.1,0.1-0.1c0,0,0.1-0.1,0.1-0.1c0,0,0.1-0.1,0.1-0.1c0,0,0.1-0.1,0.1-0.1
			c0,0,0.1-0.1,0.1-0.1c0,0,0.1-0.1,0.1-0.1c0,0,0.1-0.1,0.1-0.1c0,0,0.1-0.1,0.1-0.1c0,0,0.1-0.1,0.1-0.1c0,0,0.1-0.1,0.1-0.1
			c0,0,0.1-0.1,0.1-0.1c0,0,0.1-0.1,0.1-0.1c0,0,0.1-0.1,0.1-0.1c0,0,0.1-0.1,0.1-0.1c0,0,0.1-0.1,0.1-0.1c0,0,0.1-0.1,0.1-0.1
			c0,0,0.1-0.1,0.1-0.1c0,0,0.1-0.1,0.1-0.1c0,0,0.1-0.1,0.1-0.1c0,0,0.1-0.1,0.1-0.1c0,0,0.1-0.1,0.1-0.1c0,0,0.1-0.1,0.1-0.1
			c0,0,0.1-0.1,0.1-0.1c0,0,0.1-0.1,0.1-0.1c0,0,0.1-0.1,0.1-0.1c0,0,0.1-0.1,0.1-0.1c0,0,0.1-0.1,0.1-0.1c0,0,0.1-0.1,0.1-0.1
			c0,0,0.1-0.1,0.1-0.1c0,0,0.1-0.1,0.1-0.1c0,0,0.1-0.1,0.1-0.1c0,0,0.1-0.1,0.1-0.1c0,0,0.1-0.1,0.1-0.1c0,0,0.1-0.1,0.1-0.1
			c0,0,0.1-0.1,0.1-0.1c0,0,0.1-0.1,0.1-0.1c0,0,0.1-0.1,0.1-0.1c0,0,0.1-0.1,0.1-0.1c0,0,0.1-0.1,0.1-0.1c0,0,0.1-0.1,0.1-0.1
			c0,0,0.1-0.1,0.1-0.1c0,0,0.1-0.1,0.1-0.1c0,0,0.1-0.1,0.1-0.1c0,0,0.1-0.1,0.1-0.1c0,0,0.1-0.1,0.1-0.1c0,0,0.1-0.1,0.1-0.1
			c0,0,0.1-0.1,0.1-0.1c0,0,0.1-0.1,0.1-0.1c0,0,0.1-0.1,0.1-0.1c0,0,0.1-0.1,0.1-0.1c0,0,0.1-0.1,0.1-0.1c0,0,0.1-0.1,0.1-0.1
			c0,0,0.1-0.1,0.1-0.1c0,0,0.1-0.1,0.1-0.1c0,0,0.1-0.1,0.1-0.1c0,0,0.1-0.1,0.1-0.1c0,0,0.1-0.1,0.1-0.1c0,0,0.1-0.1,0.1-0.1
			c0,0,0.1-0.1,0.1-0.1c0,0,0.1-0.1,0.1-0.1c0,0,0.1-0.1,0.1-0.1c0,0,0.1-0.1,0.1-0.1c0,0,0.1-0.1,0.1-0.1c0,0,0.1-0.1,0.1-0.1
			c0,0,0.1-0.1,0.1-0.1c0,0,0.1-0.1,0.1-0.1c0,0,0.1-0.1,0.1-0.1c0,0,0.1-0.1,0.1-0.1c0,0,0.1-0.1,0.1-0.1c0,0,0.1-0.1,0.1-0.1
			c0,0,0.1-0.1,0.1-0.1c0,0,0.1-0.1,0.1-0.1c0,0,0.1-0.1,0.1-0.1c0,0,0.1-0.1,0.1-0.1c0,0,0.1-0.1,0.1-0.1c0,0,0.1-0.1,0.1-0.1
			c0,0,0.1-0.1,0.1-0.1c0,0,0.1-0.1,0.1-0.1c0,0,0.1-0.1,0.1-0.1c0,0,0.1-0.1,0.1-0.1c0,0,0.1-0.1,0.1-0.1c0,0,0.1-0.1,0.1-0.1
			c0,0,0.1-0.1,0.1-0.1c0,0,0.1-0.1,0.1-0.1c0,0,0.1-0.1,0.1-0.1c0,0,0.1-0.1,0.1-0.1c0,0,0.1-0.1,0.1-0.1c0,0,0.1-0.1,0.1-0.1
			c0,0,0.1-0.1,0.1-0.1c0,0,0.1-0.1,0.1-0.1c0,0,0.1-0.1,0.1-0.1c0,0,0.1-0.1,0.1-0.1c0,0,0.1-0.1,0.1-0.1c0,0,0.1-0.1,0.1-0.1
			c0,0,0.1-0.1,0.1-0.1c0,0,0.1-0.1,0.1-0.1c0,0,0.1-0.1,0.1-0.1c0,0,0.1-0.1,0.1-0.1c0,0,0.1-0.1,0.1-0.1c0,0,0.1-0.1,0.1-0.1
			c0,0,0.1-0.1,0.1-0.1c0,0,0.1-0.1,0.1-0.1c0,0,0.1-0.1,0.1-0.1c0,0,0.1-0.1,0.1-0.1c0,0,0.1-0.1,0.1-0.1c0,0,0.1-0.1,0.1-0.1
			c0,0,0.1-0.1,0.1-0.1c0,0,0.1-0.1,0.1-0.1c0,0,0.1-0.1,0.1-0.1c0,0,0.1-0.1,0.1-0.1c0,0,0.1-0.1,0.1-0.1c0,0,0.1-0.1,0.1-0.1
			c0,0,0.1-0.1,0.1-0.1c0,0,0.1-0.1,0.1-0.1c0,0,0.1-0.1,0.1-0.1c0,0,0.1-0.1,0.1-0.1c0,0,0.1-0.1,0.1-0.1c0,0,0.1-0.1,0.1-0.1
			c0,0,0.1-0.1,0.1-0.1c0,0,0.1-0.1,0.1-0.1c0,0,0.1-0.1,0.1-0.1c0,0,0.1-0.1,0.1-0.1c0,0,0.1-0.1,0.1-0.1c0,0,0.1-0.1,0.1-0.1
			c0,0,0.1-0.1,0.1-0.1c0,0,0.1-0.1,0.1-0.1c0,0,0.1-0.1,0.1-0.1c0,0,0.1-0.1,0.1-0.1c0,0,0.1-0.1,0.1-0.1c0,0,0.1-0.1,0.1-0.1
			c0,0,0.1-0.1,0.1-0.1c0,0,0.1-0.1,0.1-0.1c0,0,0.1-0.1,0.1-0.1c0,0,0.1-0.1,0.1-0.1c0,0,0.1-0.1,0.1-0.1c0,0,0.1-0.1,0.1-0.1
			c0,0,0.1-0.1,0.1-0.1c0,0,0.1-0.1,0.1-0.1c0,0,0.1-0.1,0.1-0.1c3.7-4.2,5.5-10,4.7-16.4L260.5,79.2c-1.6-12.8-13.3-23.1-26.1-23.1
			H88c-6.4,0-11.9,2.6-15.5,6.8c0,0-0.1,0.1-0.1,0.1c0,0-0.1,0.1-0.1,0.1c0,0-0.1,0.1-0.1,0.1c0,0-0.1,0.1-0.1,0.1
			c0,0-0.1,0.1-0.1,0.1c0,0-0.1,0.1-0.1,0.1c0,0-0.1,0.1-0.1,0.1c0,0-0.1,0.1-0.1,0.1c0,0-0.1,0.1-0.1,0.1c0,0-0.1,0.1-0.1,0.1
			c0,0-0.1,0.1-0.1,0.1c0,0-0.1,0.1-0.1,0.1c0,0-0.1,0.1-0.1,0.1c0,0-0.1,0.1-0.1,0.1c0,0-0.1,0.1-0.1,0.1c0,0-0.1,0.1-0.1,0.1
			c0,0-0.1,0.1-0.1,0.1c0,0-0.1,0.1-0.1,0.1c0,0-0.1,0.1-0.1,0.1c0,0-0.1,0.1-0.1,0.1c0,0-0.1,0.1-0.1,0.1c0,0-0.1,0.1-0.1,0.1
			c0,0-0.1,0.1-0.1,0.1c0,0-0.1,0.1-0.1,0.1c0,0-0.1,0.1-0.1,0.1c0,0-0.1,0.1-0.1,0.1c0,0-0.1,0.1-0.1,0.1c0,0-0.1,0.1-0.1,0.1
			c0,0-0.1,0.1-0.1,0.1c0,0-0.1,0.1-0.1,0.1c0,0-0.1,0.1-0.1,0.1c0,0-0.1,0.1-0.1,0.1c0,0-0.1,0.1-0.1,0.1c0,0-0.1,0.1-0.1,0.1
			c0,0-0.1,0.1-0.1,0.1c0,0-0.1,0.1-0.1,0.1c0,0-0.1,0.1-0.1,0.1c0,0-0.1,0.1-0.1,0.1c0,0-0.1,0.1-0.1,0.1c0,0-0.1,0.1-0.1,0.1
			c0,0-0.1,0.1-0.1,0.1c0,0-0.1,0.1-0.1,0.1c0,0-0.1,0.1-0.1,0.1c0,0-0.1,0.1-0.1,0.1c0,0-0.1,0.1-0.1,0.1c0,0-0.1,0.1-0.1,0.1
			c0,0-0.1,0.1-0.1,0.1c0,0-0.1,0.1-0.1,0.1c0,0-0.1,0.1-0.1,0.1c0,0-0.1,0.1-0.1,0.1c0,0-0.1,0.1-0.1,0.1c0,0-0.1,0.1-0.1,0.1
			c0,0-0.1,0.1-0.1,0.1c0,0-0.1,0.1-0.1,0.1c0,0-0.1,0.1-0.1,0.1c0,0-0.1,0.1-0.1,0.1c0,0-0.1,0.1-0.1,0.1c0,0-0.1,0.1-0.1,0.1
			c0,0-0.1,0.1-0.1,0.1c0,0-0.1,0.1-0.1,0.1c0,0-0.1,0.1-0.1,0.1c0,0-0.1,0.1-0.1,0.1c0,0-0.1,0.1-0.1,0.1c0,0-0.1,0.1-0.1,0.1
			c0,0-0.1,0.1-0.1,0.1c0,0-0.1,0.1-0.1,0.1c0,0-0.1,0.1-0.1,0.1c0,0-0.1,0.1-0.1,0.1c0,0-0.1,0.1-0.1,0.1c0,0-0.1,0.1-0.1,0.1
			c0,0-0.1,0.1-0.1,0.1c0,0-0.1,0.1-0.1,0.1c0,0-0.1,0.1-0.1,0.1c0,0-0.1,0.1-0.1,0.1c0,0-0.1,0.1-0.1,0.1c0,0-0.1,0.1-0.1,0.1
			c0,0-0.1,0.1-0.1,0.1c0,0-0.1,0.1-0.1,0.1c0,0-0.1,0.1-0.1,0.1c0,0-0.1,0.1-0.1,0.1c0,0-0.1,0.1-0.1,0.1c0,0-0.1,0.1-0.1,0.1
			c0,0-0.1,0.1-0.1,0.1c0,0-0.1,0.1-0.1,0.1c0,0-0.1,0.1-0.1,0.1c0,0-0.1,0.1-0.1,0.1c0,0-0.1,0.1-0.1,0.1c0,0-0.1,0.1-0.1,0.1
			c0,0-0.1,0.1-0.1,0.1c0,0-0.1,0.1-0.1,0.1c0,0-0.1,0.1-0.1,0.1c0,0-0.1,0.1-0.1,0.1c0,0-0.1,0.1-0.1,0.1c0,0-0.1,0.1-0.1,0.1
			c0,0-0.1,0.1-0.1,0.1c0,0-0.1,0.1-0.1,0.1c0,0-0.1,0.1-0.1,0.1c0,0-0.1,0.1-0.1,0.1c0,0-0.1,0.1-0.1,0.1c0,0-0.1,0.1-0.1,0.1
			c0,0-0.1,0.1-0.1,0.1c0,0-0.1,0.1-0.1,0.1c0,0-0.1,0.1-0.1,0.1c0,0-0.1,0.1-0.1,0.1c0,0-0.1,0.1-0.1,0.1c0,0-0.1,0.1-0.1,0.1
			c0,0-0.1,0.1-0.1,0.1c0,0-0.1,0.1-0.1,0.1c0,0-0.1,0.1-0.1,0.1c0,0-0.1,0.1-0.1,0.1c0,0-0.1,0.1-0.1,0.1c0,0-0.1,0.1-0.1,0.1
			c0,0-0.1,0.1-0.1,0.1c0,0-0.1,0.1-0.1,0.1c0,0-0.1,0.1-0.1,0.1c0,0-0.1,0.1-0.1,0.1c0,0-0.1,0.1-0.1,0.1c0,0-0.1,0.1-0.1,0.1
			c0,0-0.1,0.1-0.1,0.1c0,0-0.1,0.1-0.1,0.1c0,0-0.1,0.1-0.1,0.1c0,0-0.1,0.1-0.1,0.1c0,0-0.1,0.1-0.1,0.1c0,0-0.1,0.1-0.1,0.1
			c0,0-0.1,0.1-0.1,0.1c0,0-0.1,0.1-0.1,0.1c0,0-0.1,0.1-0.1,0.1c0,0-0.1,0.1-0.1,0.1c0,0-0.1,0.1-0.1,0.1c0,0-0.1,0.1-0.1,0.1
			c0,0-0.1,0.1-0.1,0.1c0,0-0.1,0.1-0.1,0.1c0,0-0.1,0.1-0.1,0.1c0,0-0.1,0.1-0.1,0.1c0,0-0.1,0.1-0.1,0.1c0,0-0.1,0.1-0.1,0.1
			c0,0-0.1,0.1-0.1,0.1c0,0-0.1,0.1-0.1,0.1c0,0-0.1,0.1-0.1,0.1c0,0-0.1,0.1-0.1,0.1c0,0-0.1,0.1-0.1,0.1c0,0-0.1,0.1-0.1,0.1
			c0,0-0.1,0.1-0.1,0.1c0,0-0.1,0.1-0.1,0.1c0,0-0.1,0.1-0.1,0.1c0,0-0.1,0.1-0.1,0.1c0,0-0.1,0.1-0.1,0.1c0,0-0.1,0.1-0.1,0.1
			c0,0-0.1,0.1-0.1,0.1c0,0-0.1,0.1-0.1,0.1c0,0-0.1,0.1-0.1,0.1c0,0-0.1,0.1-0.1,0.1c0,0-0.1,0.1-0.1,0.1c0,0-0.1,0.1-0.1,0.1
			c0,0-0.1,0.1-0.1,0.1c0,0-0.1,0.1-0.1,0.1c0,0-0.1,0.1-0.1,0.1c0,0-0.1,0.1-0.1,0.1c0,0-0.1,0.1-0.1,0.1c0,0-0.1,0.1-0.1,0.1
			c0,0-0.1,0.1-0.1,0.1c0,0-0.1,0.1-0.1,0.1c0,0-0.1,0.1-0.1,0.1c0,0-0.1,0.1-0.1,0.1c0,0-0.1,0.1-0.1,0.1c0,0-0.1,0.1-0.1,0.1
			c0,0-0.1,0.1-0.1,0.1c0,0-0.1,0.1-0.1,0.1c0,0-0.1,0.1-0.1,0.1c0,0-0.1,0.1-0.1,0.1c0,0-0.1,0.1-0.1,0.1c0,0-0.1,0.1-0.1,0.1
			c0,0-0.1,0.1-0.1,0.1c0,0-0.1,0.1-0.1,0.1c0,0-0.1,0.1-0.1,0.1c0,0-0.1,0.1-0.1,0.1c0,0-0.1,0.1-0.1,0.1c0,0-0.1,0.1-0.1,0.1
			c0,0-0.1,0.1-0.1,0.1c0,0-0.1,0.1-0.1,0.1c0,0-0.1,0.1-0.1,0.1c0,0-0.1,0.1-0.1,0.1c0,0-0.1,0.1-0.1,0.1c0,0-0.1,0.1-0.1,0.1
			c0,0-0.1,0.1-0.1,0.1c0,0-0.1,0.1-0.1,0.1c0,0-0.1,0.1-0.1,0.1c0,0-0.1,0.1-0.1,0.1c0,0-0.1,0.1-0.1,0.1c0,0-0.1,0.1-0.1,0.1
			c0,0-0.1,0.1-0.1,0.1c0,0-0.1,0.1-0.1,0.1c0,0-0.1,0.1-0.1,0.1c0,0-0.1,0.1-0.1,0.1c0,0-0.1,0.1-0.1,0.1c0,0-0.1,0.1-0.1,0.1
			c0,0-0.1,0.1-0.1,0.1c0,0-0.1,0.1-0.1,0.1c0,0-0.1,0.1-0.1,0.1c-3.7,4.2-5.5,10-4.7,16.4l39.6,308.9c1.6,12.8,13.3,23.1,26.1,23.1
			h146.4C269.2,430.8,274.7,428.2,278.4,423.9C278.4,424,278.4,423.9,278.4,423.9z"/>
		<g>
			<linearGradient id="SVGID_2_" gradientUnits="userSpaceOnUse" x1="271.302" y1="116.946" x2="271.302" y2="213.1227">
				<stop  offset="0" style="stop-color:#007D73"/>
				<stop  offset="0.2358" style="stop-color:#027875"/>
				<stop  offset="0.5288" style="stop-color:#08687A"/>
				<stop  offset="0.8508" style="stop-color:#114F81"/>
				<stop  offset="1" style="stop-color:#164186"/>
			</linearGradient>
			<path class="st2" d="M273.9,191.3L273.9,191.3c-3,0-5.7-2.4-6.1-5.4l-3.8-29.3c-0.4-3,1.7-5.4,4.7-5.4l0,0c3,0,5.7,2.4,6.1,5.4
				l3.8,29.3C278.9,188.8,276.8,191.3,273.9,191.3z"/>
		</g>
		<g>
			<linearGradient id="SVGID_3_" gradientUnits="userSpaceOnUse" x1="199.4266" y1="65.5256" x2="170.0062" y2="386.9704">
				<stop  offset="0" style="stop-color:#4ADECE"/>
				<stop  offset="1" style="stop-color:#1697D7"/>
			</linearGradient>
			<path class="st3" d="M280,411.3H133.6c-12.8,0-24.4-10.3-26.1-23.1L67.9,79.2C66.3,66.5,75.3,56.1,88,56.1h146.4
				c12.8,0,24.4,10.3,26.1,23.1l39.6,308.9C301.8,400.9,292.8,411.3,280,411.3z"/>
			<linearGradient id="SVGID_4_" gradientUnits="userSpaceOnUse" x1="217.1395" y1="38.7467" x2="148.5506" y2="442.6591">
				<stop  offset="0" style="stop-color:#D3F7FF"/>
				<stop  offset="0.6857" style="stop-color:#BCDDE6"/>
				<stop  offset="1" style="stop-color:#B0CFD9"/>
			</linearGradient>
			<path class="st4" d="M273.1,399.1H137.4c-8.7,0-16.6-7-17.7-15.7L81.3,84.1c-1.1-8.7,5-15.7,13.7-15.7h135.7
				c8.7,0,16.6,7,17.7,15.7l38.4,299.3C287.9,392,281.8,399.1,273.1,399.1z"/>
			<linearGradient id="SVGID_5_" gradientUnits="userSpaceOnUse" x1="211.1374" y1="74.3588" x2="94.8994" y2="74.3588">
				<stop  offset="0" style="stop-color:#007D73"/>
				<stop  offset="0.2358" style="stop-color:#027875"/>
				<stop  offset="0.5288" style="stop-color:#08687A"/>
				<stop  offset="0.8508" style="stop-color:#114F81"/>
				<stop  offset="1" style="stop-color:#164186"/>
			</linearGradient>
			<path class="st5" d="M120.2,68.3l3.6,6.5c1.9,3.4,5.5,5.6,9.2,5.6h52.6c3.7,0,6.7-2.2,7.8-5.6l2-6.5H120.2z"/>
			<g>
				<linearGradient id="SVGID_6_" gradientUnits="userSpaceOnUse" x1="199.3385" y1="65.535" x2="170.0864" y2="386.9619">
					<stop  offset="1.385225e-07" style="stop-color:#51AE38"/>
					<stop  offset="1" style="stop-color:#00663E"/>
				</linearGradient>
				<path class="st6" d="M280,411.3H133.6c-12.8,0-24.4-10.3-26.1-23.1L67.9,79.2C66.3,66.5,75.3,56.1,88,56.1h146.4
					c12.8,0,24.4,10.3,26.1,23.1l39.6,308.9C301.8,400.9,292.8,411.3,280,411.3z"/>
				<linearGradient id="SVGID_7_" gradientUnits="userSpaceOnUse" x1="217.1395" y1="38.7467" x2="148.5506" y2="442.6591">
					<stop  offset="0" style="stop-color:#D3F7FF"/>
					<stop  offset="0.6857" style="stop-color:#BCDDE6"/>
					<stop  offset="1" style="stop-color:#B0CFD9"/>
				</linearGradient>
				<path class="st7" d="M273.1,399.1H137.4c-8.7,0-16.6-7-17.7-15.7L81.3,84.1c-1.1-8.7,5-15.7,13.7-15.7h135.7
					c8.7,0,16.6,7,17.7,15.7l38.4,299.3C287.9,392,281.8,399.1,273.1,399.1z"/>
				<g>
					<defs>
						<path id="SVGID_8_" d="M273.1,399.1H137.4c-8.7,0-16.6-7-17.7-15.7L81.3,84.1c-1.1-8.7,5-15.7,13.7-15.7h135.7
							c8.7,0,16.6,7,17.7,15.7l38.4,299.3C287.9,392,281.8,399.1,273.1,399.1z"/>
					</defs>
					<clipPath id="SVGID_9_">
						<use xlink:href="#SVGID_8_"  style="overflow:visible;"/>
					</clipPath>
					<g class="st8">
						
							<linearGradient id="SVGID_10_" gradientUnits="userSpaceOnUse" x1="135.9561" y1="159.8416" x2="469.3419" y2="159.8416" gradientTransform="matrix(1 0 0.1253 1 -33.4675 0)">
							<stop  offset="0" style="stop-color:#4ADECE"/>
							<stop  offset="1" style="stop-color:#1697D7"/>
						</linearGradient>
						<path class="st9" d="M193.5,171.3h-79.3l-12.3,10.2l-3.3-26.7c-1.1-9.1,5.3-16.5,14.4-16.5h76.4c9.1,0,17.4,7.4,18.6,16.5v0
							C209,163.9,202.6,171.3,193.5,171.3z"/>
						
							<linearGradient id="SVGID_11_" gradientUnits="userSpaceOnUse" x1="136.9311" y1="107.2003" x2="470.3169" y2="107.2003" gradientTransform="matrix(1 0 0.1253 1 -33.4675 0)">
							<stop  offset="0" style="stop-color:#4ADECE"/>
							<stop  offset="1" style="stop-color:#1697D7"/>
						</linearGradient>
						<path class="st10" d="M187.8,118.6h-79.3l-12.3,10.2l-3.3-26.7c-1.1-9.1,5.3-16.5,14.4-16.5h76.4c9.1,0,17.4,7.4,18.6,16.5v0
							C203.4,111.2,197,118.6,187.8,118.6z"/>
						
							<linearGradient id="SVGID_12_" gradientUnits="userSpaceOnUse" x1="-573.4564" y1="211.8469" x2="-786.1749" y2="211.8469" gradientTransform="matrix(-1 0 0.1253 1 -577.5309 0)">
							<stop  offset="0" style="stop-color:#4ADECE"/>
							<stop  offset="1" style="stop-color:#1697D7"/>
						</linearGradient>
						<path class="st11" d="M160.7,223.3H240l14.9,10.2l-3.3-26.7c-1.1-9.1-9.5-16.5-18.6-16.5h-76.4c-9.1,0-15.6,7.4-14.4,16.5v0
							C143.2,215.9,151.6,223.3,160.7,223.3z"/>
						
							<linearGradient id="SVGID_13_" gradientUnits="userSpaceOnUse" x1="135.9561" y1="263.8522" x2="469.3419" y2="263.8522" gradientTransform="matrix(1 0 0.1253 1 -33.4675 0)">
							<stop  offset="0" style="stop-color:#4ADECE"/>
							<stop  offset="1" style="stop-color:#1697D7"/>
						</linearGradient>
						<path class="st12" d="M206.5,275.3h-79.3l-12.3,10.2l-3.3-26.7c-1.1-9.1,5.3-16.5,14.4-16.5h76.4c9.1,0,17.4,7.4,18.6,16.5v0
							C222.1,267.9,215.6,275.3,206.5,275.3z"/>
						
							<linearGradient id="SVGID_14_" gradientUnits="userSpaceOnUse" x1="-573.4564" y1="315.8575" x2="-786.1749" y2="315.8575" gradientTransform="matrix(-1 0 0.1253 1 -577.5309 0)">
							<stop  offset="0" style="stop-color:#4ADECE"/>
							<stop  offset="1" style="stop-color:#1697D7"/>
						</linearGradient>
						<path class="st13" d="M173.7,327.3H253l14.9,10.2l-3.3-26.7c-1.1-9.1-9.5-16.5-18.6-16.5h-76.4c-9.1,0-15.6,7.4-14.4,16.5v0
							C156.3,319.9,164.6,327.3,173.7,327.3z"/>
						<g>
							
								<linearGradient id="SVGID_15_" gradientUnits="userSpaceOnUse" x1="-767.1761" y1="364.2006" x2="-622.2245" y2="364.2006" gradientTransform="matrix(-1 0 -0.2507 -1 -405.8424 725.4275)">
								<stop  offset="0" style="stop-color:#4ADECE"/>
								<stop  offset="1" style="stop-color:#1697D7"/>
							</linearGradient>
							<path class="st14" d="M136,349.6h120.2c6.4,0,12.3,5.2,13.1,11.6v0c0.8,6.4-3.8,11.6-10.2,11.6H138.9
								c-6.4,0-12.3-5.2-13.1-11.6v0C125,354.8,129.6,349.6,136,349.6z"/>
							<linearGradient id="SVGID_16_" gradientUnits="userSpaceOnUse" x1="203.1861" y1="447.4576" x2="261.1056" y2="345.3364">
								<stop  offset="0" style="stop-color:#4ADECE"/>
								<stop  offset="1" style="stop-color:#1697D7"/>
							</linearGradient>
							<path class="st15" d="M239,349.6h17.2c6.4,0,12.3,5.2,13.1,11.6v0c0.8,6.4-3.8,11.6-10.2,11.6h-17.2L239,349.6z"/>
						</g>
						<line class="st16" x1="105.2" y1="97.2" x2="192" y2="97.1"/>
						<line class="st16" x1="106.8" y1="106.9" x2="193.6" y2="106.8"/>
						<line class="st16" x1="110.1" y1="149.3" x2="196.9" y2="149.2"/>
						<line class="st16" x1="111.7" y1="159" x2="198.5" y2="158.9"/>
						<line class="st16" x1="124.2" y1="254.2" x2="211" y2="254.1"/>
						<line class="st16" x1="125.8" y1="263.9" x2="212.6" y2="263.8"/>
						<line class="st17" x1="154.2" y1="201" x2="241" y2="200.9"/>
						<line class="st17" x1="155.8" y1="210.7" x2="242.6" y2="210.6"/>
						<line class="st17" x1="167.3" y1="305.2" x2="254.1" y2="305.1"/>
						<line class="st17" x1="168.8" y1="314.9" x2="255.6" y2="314.8"/>
					</g>
					<linearGradient id="SVGID_17_" gradientUnits="userSpaceOnUse" x1="161.1718" y1="178.8081" x2="161.1718" y2="14.1275">
						<stop  offset="0" style="stop-color:#007D73"/>
						<stop  offset="0.2358" style="stop-color:#027875"/>
						<stop  offset="0.5288" style="stop-color:#08687A"/>
						<stop  offset="0.8508" style="stop-color:#114F81"/>
						<stop  offset="1" style="stop-color:#164186"/>
					</linearGradient>
					<polygon class="st18" points="71.6,89.5 255.6,87.8 247.8,61 66.8,62.7 					"/>
				</g>
				<linearGradient id="SVGID_18_" gradientUnits="userSpaceOnUse" x1="211.1374" y1="74.3588" x2="94.8994" y2="74.3588">
					<stop  offset="0" style="stop-color:#007D73"/>
					<stop  offset="0.2358" style="stop-color:#027875"/>
					<stop  offset="0.5288" style="stop-color:#08687A"/>
					<stop  offset="0.8508" style="stop-color:#114F81"/>
					<stop  offset="1" style="stop-color:#164186"/>
				</linearGradient>
				<path class="st19" d="M120.2,68.3l3.6,6.5c1.9,3.4,5.5,5.6,9.2,5.6h52.6c3.7,0,6.7-2.2,7.8-5.6l2-6.5H120.2z"/>
				<linearGradient id="SVGID_19_" gradientUnits="userSpaceOnUse" x1="255.3411" y1="59.1238" x2="255.3411" y2="383.4586">
					<stop  offset="0" style="stop-color:#007D73"/>
					<stop  offset="0.2358" style="stop-color:#027875"/>
					<stop  offset="0.5288" style="stop-color:#08687A"/>
					<stop  offset="0.8508" style="stop-color:#114F81"/>
					<stop  offset="1" style="stop-color:#164186"/>
				</linearGradient>
				<path class="st20" d="M230.7,68.3h-6.9c8.7,0,16.6,7,17.7,15.7l38.4,299.3c1.1,8.7-5,15.7-13.7,15.7h6.9c8.7,0,14.8-7,13.7-15.7
					L248.4,84.1C247.3,75.4,239.4,68.3,230.7,68.3z"/>
				<linearGradient id="SVGID_20_" gradientUnits="userSpaceOnUse" x1="370.4666" y1="140.0473" x2="-22.1366" y2="337.2663">
					<stop  offset="0" style="stop-color:#FFECAD"/>
					<stop  offset="0.1041" style="stop-color:#EDE4AD;stop-opacity:0.8959"/>
					<stop  offset="0.3141" style="stop-color:#BCCFAC;stop-opacity:0.6859"/>
					<stop  offset="0.6112" style="stop-color:#6FACAB;stop-opacity:0.3888"/>
					<stop  offset="0.9811" style="stop-color:#067DAA;stop-opacity:1.888674e-02"/>
					<stop  offset="1" style="stop-color:#007BAA;stop-opacity:0"/>
				</linearGradient>
				<path class="st21" d="M273.1,399.1H137.4c-8.7,0-16.6-7-17.7-15.7L81.3,84.1c-1.1-8.7,5-15.7,13.7-15.7h135.7
					c8.7,0,16.6,7,17.7,15.7l38.4,299.3C287.9,392,281.8,399.1,273.1,399.1z"/>
				<linearGradient id="SVGID_21_" gradientUnits="userSpaceOnUse" x1="160.888" y1="61.9984" x2="131.4677" y2="383.4432">
					<stop  offset="0" style="stop-color:#4ADECE"/>
					<stop  offset="1" style="stop-color:#1697D7"/>
				</linearGradient>
				<path class="st22" d="M190.8,80.4h-52.6c-3.7,0-7.3-2.2-9.2-5.6l-10.4-18.5h85.6l-5.6,18.5C197.5,78.2,194.5,80.4,190.8,80.4z"
					/>
				<g>
					<linearGradient id="SVGID_22_" gradientUnits="userSpaceOnUse" x1="211.1374" y1="70.5067" x2="94.8994" y2="70.5067">
						<stop  offset="0" style="stop-color:#007D73"/>
						<stop  offset="0.2358" style="stop-color:#027875"/>
						<stop  offset="0.5288" style="stop-color:#08687A"/>
						<stop  offset="0.8508" style="stop-color:#114F81"/>
						<stop  offset="1" style="stop-color:#164186"/>
					</linearGradient>
					<path class="st23" d="M177.5,72.7h-38.2c-1.2,0-2.3-1-2.4-2.2l0,0c-0.2-1.2,0.7-2.2,1.9-2.2H177c1.2,0,2.3,1,2.4,2.2l0,0
						C179.6,71.7,178.7,72.7,177.5,72.7z"/>
					<linearGradient id="SVGID_23_" gradientUnits="userSpaceOnUse" x1="211.1374" y1="70.5067" x2="94.8994" y2="70.5067">
						<stop  offset="0" style="stop-color:#007D73"/>
						<stop  offset="0.2358" style="stop-color:#027875"/>
						<stop  offset="0.5288" style="stop-color:#08687A"/>
						<stop  offset="0.8508" style="stop-color:#114F81"/>
						<stop  offset="1" style="stop-color:#164186"/>
					</linearGradient>
					<path class="st24" d="M189.6,70.5c0.2,1.7-1,3.1-2.7,3.1s-3.2-1.4-3.5-3.1c-0.2-1.7,1-3.1,2.7-3.1
						C187.8,67.4,189.4,68.8,189.6,70.5z"/>
				</g>
			</g>
			<linearGradient id="SVGID_24_" gradientUnits="userSpaceOnUse" x1="255.3411" y1="59.1238" x2="255.3411" y2="383.4586">
				<stop  offset="0" style="stop-color:#007D73"/>
				<stop  offset="0.2358" style="stop-color:#027875"/>
				<stop  offset="0.5288" style="stop-color:#08687A"/>
				<stop  offset="0.8508" style="stop-color:#114F81"/>
				<stop  offset="1" style="stop-color:#164186"/>
			</linearGradient>
			<path class="st25" d="M230.7,68.3h-6.9c8.7,0,16.6,7,17.7,15.7l38.4,299.3c1.1,8.7-5,15.7-13.7,15.7h6.9c8.7,0,14.8-7,13.7-15.7
				L248.4,84.1C247.3,75.4,239.4,68.3,230.7,68.3z"/>
			<linearGradient id="SVGID_25_" gradientUnits="userSpaceOnUse" x1="370.4666" y1="140.0473" x2="-22.1366" y2="337.2663">
				<stop  offset="0" style="stop-color:#FFECAD"/>
				<stop  offset="0.1041" style="stop-color:#EDE4AD;stop-opacity:0.8959"/>
				<stop  offset="0.3141" style="stop-color:#BCCFAC;stop-opacity:0.6859"/>
				<stop  offset="0.6112" style="stop-color:#6FACAB;stop-opacity:0.3888"/>
				<stop  offset="0.9811" style="stop-color:#067DAA;stop-opacity:1.888674e-02"/>
				<stop  offset="1" style="stop-color:#007BAA;stop-opacity:0"/>
			</linearGradient>
			<path class="st26" d="M273.1,399.1H137.4c-8.7,0-16.6-7-17.7-15.7L81.3,84.1c-1.1-8.7,5-15.7,13.7-15.7h135.7
				c8.7,0,16.6,7,17.7,15.7l38.4,299.3C287.9,392,281.8,399.1,273.1,399.1z"/>
			<linearGradient id="SVGID_26_" gradientUnits="userSpaceOnUse" x1="328.5633" y1="424.157" x2="65.6257" y2="77.6619">
				<stop  offset="1.923077e-03" style="stop-color:#CACDC2"/>
				<stop  offset="8.413462e-02" style="stop-color:#CDBCB3"/>
				<stop  offset="0.2298" style="stop-color:#C59B9F"/>
				<stop  offset="0.3896" style="stop-color:#BB6A81"/>
				<stop  offset="0.5092" style="stop-color:#9E5574"/>
				<stop  offset="0.6577" style="stop-color:#634A66"/>
				<stop  offset="0.8595" style="stop-color:#253C4B"/>
				<stop  offset="1" style="stop-color:#052C35"/>
			</linearGradient>
			<path class="st27" d="M273.1,399.1H137.4c-8.7,0-16.6-7-17.7-15.7L81.3,84.1c-1.1-8.7,5-15.7,13.7-15.7h135.7
				c8.7,0,16.6,7,17.7,15.7l38.4,299.3C287.9,392,281.8,399.1,273.1,399.1z"/>
			<linearGradient id="SVGID_27_" gradientUnits="userSpaceOnUse" x1="160.888" y1="61.9984" x2="131.4677" y2="383.4432">
				<stop  offset="0" style="stop-color:#4ADECE"/>
				<stop  offset="1" style="stop-color:#1697D7"/>
			</linearGradient>
			<path class="st28" d="M190.8,80.4h-52.6c-3.7,0-7.3-2.2-9.2-5.6l-10.4-18.5h85.6l-5.6,18.5C197.5,78.2,194.5,80.4,190.8,80.4z"/>
			<g>
				<linearGradient id="SVGID_28_" gradientUnits="userSpaceOnUse" x1="211.1374" y1="70.5067" x2="94.8994" y2="70.5067">
					<stop  offset="0" style="stop-color:#007D73"/>
					<stop  offset="0.2358" style="stop-color:#027875"/>
					<stop  offset="0.5288" style="stop-color:#08687A"/>
					<stop  offset="0.8508" style="stop-color:#114F81"/>
					<stop  offset="1" style="stop-color:#164186"/>
				</linearGradient>
				<path class="st29" d="M177.5,72.7h-38.2c-1.2,0-2.3-1-2.4-2.2l0,0c-0.2-1.2,0.7-2.2,1.9-2.2H177c1.2,0,2.3,1,2.4,2.2l0,0
					C179.6,71.7,178.7,72.7,177.5,72.7z"/>
				<linearGradient id="SVGID_29_" gradientUnits="userSpaceOnUse" x1="211.1374" y1="70.5067" x2="94.8994" y2="70.5067">
					<stop  offset="0" style="stop-color:#007D73"/>
					<stop  offset="0.2358" style="stop-color:#027875"/>
					<stop  offset="0.5288" style="stop-color:#08687A"/>
					<stop  offset="0.8508" style="stop-color:#114F81"/>
					<stop  offset="1" style="stop-color:#164186"/>
				</linearGradient>
				<path class="st30" d="M189.6,70.5c0.2,1.7-1,3.1-2.7,3.1s-3.2-1.4-3.5-3.1c-0.2-1.7,1-3.1,2.7-3.1
					C187.8,67.4,189.4,68.8,189.6,70.5z"/>
			</g>
		</g>
		<g>
			<g>
				<linearGradient id="SVGID_30_" gradientUnits="userSpaceOnUse" x1="75.33" y1="79.7921" x2="75.33" y2="358.1288">
					<stop  offset="0" style="stop-color:#4ADECE"/>
					<stop  offset="1" style="stop-color:#1697D7"/>
				</linearGradient>
				<path class="st31" d="M79.6,238.1h-3.9c-3,0-5.7-2.4-6.1-5.4l-3.3-25.4c-0.4-3,1.7-5.4,4.7-5.4H75c3,0,5.7,2.4,6.1,5.4l3.3,25.4
					C84.7,235.7,82.6,238.1,79.6,238.1z"/>
				<linearGradient id="SVGID_31_" gradientUnits="userSpaceOnUse" x1="-75.031" y1="220.0652" x2="98.5327" y2="220.0652">
					<stop  offset="1.385225e-07" style="stop-color:#51AE38"/>
					<stop  offset="1" style="stop-color:#00663E"/>
				</linearGradient>
				<path class="st32" d="M75.7,238.1L75.7,238.1c-3,0-5.7-2.4-6.1-5.4l-3.3-25.4c-0.4-3,1.7-5.4,4.7-5.4h0c3,0,5.7,2.4,6.1,5.4
					l3.3,25.4C80.8,235.7,78.7,238.1,75.7,238.1z"/>
			</g>
			<g>
				<linearGradient id="SVGID_32_" gradientUnits="userSpaceOnUse" x1="68.815" y1="79.7921" x2="68.815" y2="358.1288">
					<stop  offset="0" style="stop-color:#4ADECE"/>
					<stop  offset="1" style="stop-color:#1697D7"/>
				</linearGradient>
				<path class="st33" d="M73.1,187.4h-3.9c-3,0-5.7-2.4-6.1-5.4l-3.3-25.4c-0.4-3,1.7-5.4,4.7-5.4h3.9c3,0,5.7,2.4,6.1,5.4
					l3.3,25.4C78.2,185,76.1,187.4,73.1,187.4z"/>
				<linearGradient id="SVGID_33_" gradientUnits="userSpaceOnUse" x1="-75.031" y1="169.2935" x2="98.5327" y2="169.2935">
					<stop  offset="1.385225e-07" style="stop-color:#51AE38"/>
					<stop  offset="1" style="stop-color:#00663E"/>
				</linearGradient>
				<path class="st34" d="M69.2,187.4L69.2,187.4c-3,0-5.7-2.4-6.1-5.4l-3.3-25.4c-0.4-3,1.7-5.4,4.7-5.4h0c3,0,5.7,2.4,6.1,5.4
					l3.3,25.4C74.2,185,72.2,187.4,69.2,187.4z"/>
			</g>
		</g>
	</g>
	<g>
		<linearGradient id="SVGID_34_" gradientUnits="userSpaceOnUse" x1="190.8763" y1="229.0929" x2="384.7562" y2="229.0929">
			<stop  offset="0" style="stop-color:#E8E0E3"/>
			<stop  offset="0.8065" style="stop-color:#C5EEFF"/>
		</linearGradient>
		<path class="st35" d="M361.4,155.4H214.3c-12.9,0-23.4,10.5-23.4,23.4v124.1l25.8-22.2h144.7c12.9,0,23.4-10.5,23.4-23.4v-78.5
			C384.8,165.8,374.3,155.4,361.4,155.4z"/>
		<linearGradient id="SVGID_35_" gradientUnits="userSpaceOnUse" x1="204.4133" y1="153.6882" x2="352.1438" y2="301.4187">
			<stop  offset="0" style="stop-color:#1697D7"/>
			<stop  offset="1" style="stop-color:#183822"/>
		</linearGradient>
		<path class="st36" d="M361.4,155.4H214.3c-12.9,0-23.4,10.5-23.4,23.4v124.1l25.8-22.2h144.7c12.9,0,23.4-10.5,23.4-23.4v-78.5
			C384.8,165.8,374.3,155.4,361.4,155.4z"/>
	</g>
	<g>
		<g>
			<g>
				<linearGradient id="SVGID_36_" gradientUnits="userSpaceOnUse" x1="291.3374" y1="181.2688" x2="267.484" y2="284.6337">
					<stop  offset="0" style="stop-color:#F88C57"/>
					<stop  offset="0.8259" style="stop-color:#D65B2B"/>
					<stop  offset="1" style="stop-color:#CE5021"/>
				</linearGradient>
				<path class="st37" d="M343.6,264.7H222.8c-7.1,0-12.9-5.8-12.9-12.9v-70.6c0-7.1,5.8-12.9,12.9-12.9h120.9
					c7.1,0,12.9,5.8,12.9,12.9v70.6C356.5,258.9,350.8,264.7,343.6,264.7z"/>
				<linearGradient id="SVGID_37_" gradientUnits="userSpaceOnUse" x1="290.8831" y1="298.6129" x2="291.2275" y2="191.1786">
					<stop  offset="0" style="stop-color:#F6DE55"/>
					<stop  offset="0.3154" style="stop-color:#F6D355"/>
					<stop  offset="0.8672" style="stop-color:#F5B654"/>
					<stop  offset="1" style="stop-color:#F5AE54"/>
				</linearGradient>
				<path class="st38" d="M351.6,264.7H230.7c-7.1,0-12.9-5.8-12.9-12.9v-70.6c0-7.1,5.8-12.9,12.9-12.9h120.9
					c7.1,0,12.9,5.8,12.9,12.9v70.6C364.5,258.9,358.7,264.7,351.6,264.7z"/>
				<linearGradient id="SVGID_38_" gradientUnits="userSpaceOnUse" x1="271.2335" y1="365.0718" x2="296.3994" y2="234.5384">
					<stop  offset="0" style="stop-color:#F6DE55"/>
					<stop  offset="0.3154" style="stop-color:#F6D355"/>
					<stop  offset="0.8672" style="stop-color:#F5B654"/>
					<stop  offset="1" style="stop-color:#F5AE54"/>
				</linearGradient>
				<path class="st39" d="M291.1,207.5l-69.6,54.3c2,1.8,4.6,2.9,7.5,2.9h124.2c2.9,0,5.5-1.1,7.5-2.9L291.1,207.5z"/>
				<linearGradient id="SVGID_39_" gradientUnits="userSpaceOnUse" x1="291.6271" y1="157.3735" x2="288.1522" y2="257.5128">
					<stop  offset="0" style="stop-color:#F6DE55"/>
					<stop  offset="0.3154" style="stop-color:#F6D355"/>
					<stop  offset="0.8672" style="stop-color:#F5B654"/>
					<stop  offset="1" style="stop-color:#F5AE54"/>
				</linearGradient>
				<path class="st40" d="M291.1,225.5l69.6-54.3c-2-1.8-4.6-2.9-7.5-2.9H229c-2.9,0-5.5,1.1-7.5,2.9L291.1,225.5z"/>
			</g>
			<polyline class="st41" points="221.5,171.2 291.1,225.5 360.7,171.2 			"/>
		</g>
		<g>
			<circle class="st42" cx="352.2" cy="168.3" r="28.7"/>
			<circle class="st43" cx="356" cy="168.3" r="28.7"/>
		</g>
	</g>
	<g>
		<path class="st44" d="M347.8,175.9l7.5-0.4c0.7,0,1.3,0.1,1.7,0.4c0.4,0.3,0.6,0.7,0.6,1.3c0,0.5-0.1,0.9-0.4,1.3
			c-0.3,0.4-0.8,0.6-1.4,0.6l-10.7,0.7c-0.7,0-1.3-0.1-1.7-0.5c-0.4-0.4-0.6-0.9-0.6-1.5c0-0.4,0.1-0.9,0.4-1.5
			c0.3-0.6,0.6-1.1,0.9-1.5c1.3-1.5,2.5-2.7,3.5-3.8c1-1,1.8-1.7,2.2-2c0.8-0.6,1.4-1.2,1.9-1.8c0.5-0.6,0.9-1.2,1.2-1.8
			c0.3-0.6,0.4-1.2,0.4-1.8c0-0.6-0.1-1.2-0.4-1.6c-0.3-0.5-0.7-0.9-1.2-1.1c-0.5-0.3-1-0.4-1.6-0.4c-1.2,0-2.2,0.6-2.9,1.7
			c-0.1,0.1-0.3,0.6-0.5,1.2c-0.2,0.7-0.5,1.2-0.8,1.5c-0.3,0.4-0.7,0.6-1.3,0.6c-0.5,0-0.9-0.1-1.2-0.5c-0.3-0.3-0.5-0.8-0.5-1.3
			c0-0.7,0.2-1.4,0.5-2.1c0.3-0.7,0.8-1.4,1.4-2c0.6-0.6,1.3-1.1,2.2-1.5c0.9-0.4,1.9-0.6,3.1-0.6c1.4,0,2.6,0.2,3.6,0.7
			c0.6,0.3,1.2,0.7,1.7,1.2c0.5,0.5,0.9,1.1,1.1,1.8c0.3,0.7,0.4,1.4,0.4,2.2c0,1.2-0.3,2.3-0.8,3.3c-0.6,1-1.1,1.8-1.7,2.4
			c-0.6,0.6-1.6,1.5-3,2.8c-1.4,1.3-2.4,2.3-3,3C348.2,175.1,348,175.5,347.8,175.9z"/>
		<path class="st44" d="M373,167.7c0.1,1.5,0,2.8-0.1,3.9c-0.1,1.1-0.4,2.1-0.8,3.1c-0.5,1.2-1.3,2.1-2.2,2.7
			c-0.9,0.7-2,1.1-3.1,1.1c-1.3,0.1-2.6-0.3-3.7-1c-1.1-0.8-1.9-1.9-2.5-3.4c-0.3-0.8-0.5-1.7-0.7-2.7c-0.1-1-0.2-2-0.2-3.1
			c0-1.5,0-2.8,0.1-3.9c0.1-1.2,0.3-2.1,0.6-3c0.5-1.4,1.2-2.4,2.2-3.1c1-0.7,2.1-1.1,3.4-1.1c0.9,0,1.7,0.1,2.4,0.4
			c0.7,0.3,1.3,0.7,1.9,1.3c0.5,0.6,1,1.3,1.4,2.2C372.5,162.8,372.9,164.9,373,167.7z M369.6,167.6c-0.1-1.7-0.2-3.1-0.4-4.2
			c-0.2-1.1-0.6-1.9-1-2.4c-0.5-0.5-1.1-0.8-1.9-0.8c-1.1,0-1.9,0.6-2.3,1.9c-0.4,1.3-0.6,3.2-0.5,5.8c0,1.8,0.2,3.3,0.4,4.4
			c0.2,1.1,0.6,2,1,2.6c0.5,0.6,1.1,0.8,1.9,0.8c0.8,0,1.4-0.4,1.9-1c0.4-0.6,0.7-1.5,0.9-2.7C369.6,170.8,369.6,169.4,369.6,167.6z
			"/>
	</g>
</g>
</svg>
