<?xml version="1.0" encoding="utf-8"?>
<!-- Generator: Adobe Illustrator 23.0.3, SVG Export Plug-In . SVG Version: 6.00 Build 0)  -->
<svg version="1.1" id="Layer_1" xmlns="http://www.w3.org/2000/svg" xmlns:xlink="http://www.w3.org/1999/xlink" x="0px" y="0px"
	 viewBox="0 0 502 502" style="enable-background:new 0 0 502 502;" xml:space="preserve">
<style type="text/css">
	.st0{opacity:0.1;}
	.st1{fill:#409958;}
	.st2{fill:#74A392;}
	.st3{fill:#008C57;}
	.st4{fill:none;stroke:#FFFFFF;stroke-width:10.3672;stroke-linecap:round;stroke-linejoin:round;stroke-miterlimit:10;}
	.st5{opacity:0.15;}
	.st6{fill:#4C4C4C;}
	.st7{fill:#4C4C4C;stroke:#FFFFFF;stroke-width:1.5099;stroke-miterlimit:10;}
	.st8{fill:#515151;}
	.st9{fill:#FFFFFF;}
</style>
<title>music (1)</title>
<g>
	<g>
		<g class="st0">
			<path d="M396,60.1c0-6.5,0.9-12.8,2.4-18.7c-45-7.7-105-14.4-138-14.4c-32,0-89.3,6.3-133.8,13.7c1.7,6.2,2.6,12.7,2.6,19.4
				c0,39.1-30.7,71-69.4,72.9c4.8,64.5,21.4,152.2,41,199.5c32.4,78.4,144.7,147.4,159.5,159.5c14.9-12.2,127.1-81.1,159.5-159.5
				c19.6-47.4,36.3-135.3,41-199.9C424.4,128.6,396,97.7,396,60.1z"/>
			<path d="M260.4,63.5c-21.5,0-58.4,3.3-95.3,8.3c-4.2,40.1-30,73.8-65.9,89.1c3.4,29.1,8.7,59.6,14.8,87.1
				c6.2,28.2,13.4,53.3,20.6,70.5c21.6,52.2,91.2,104.1,125.8,128.6c0,0,0.1-0.1,0.1-0.1V248V63.5C260.4,63.5,260.4,63.5,260.4,63.5
				z"/>
			<path d="M360.2,72.4c-38.1-5.3-77.3-8.9-99.7-8.9V248v199.1c34.7-24.6,104.1-76.4,125.7-128.5c7.2-17.3,14.3-42.4,20.6-70.5
				c6.3-28.2,11.6-59.4,15-89.1C388.2,143,364.4,110.5,360.2,72.4z"/>
		</g>
		<g>
			<g>
				<path class="st1" d="M391.2,55.3c0-6.5,0.9-12.8,2.4-18.7c-45-7.7-105-14.4-138-14.4c-32,0-89.3,6.3-133.8,13.7
					c1.7,6.2,2.6,12.7,2.6,19.4c0,39.1-30.7,71-69.4,72.9c4.8,64.5,21.4,152.2,41,199.5c32.4,78.4,144.7,147.4,159.5,159.5
					c14.9-12.2,127.1-81.1,159.5-159.5c19.6-47.4,36.3-135.3,41-199.9C419.6,123.9,391.2,92.9,391.2,55.3z"/>
				<g>
					<path class="st2" d="M255.6,58.7c-21.5,0-58.4,3.3-95.3,8.3c-4.2,40.1-30,73.8-65.9,89.1c3.4,29.1,8.7,59.6,14.8,87.1
						c6.2,28.2,13.4,53.3,20.6,70.5C151.4,366,221,417.9,255.6,442.4c0,0,0.1-0.1,0.1-0.1V243.3V58.7
						C255.7,58.7,255.6,58.7,255.6,58.7z"/>
					<path class="st3" d="M355.4,67.6c-38.1-5.3-77.3-8.9-99.7-8.9v184.5v199.1c34.7-24.6,104.1-76.4,125.7-128.5
						c7.2-17.3,14.3-42.4,20.6-70.5c6.3-28.2,11.6-59.4,15-89.1C383.4,138.2,359.6,105.7,355.4,67.6z"/>
				</g>
			</g>
		</g>
	</g>
	<polyline class="st4" points="213.4,224.8 255.4,279.1 329.1,183.9 	"/>
</g>
<g class="st5">
	<path class="st6" d="M456.7,62.7c0,2.7,2.2,4.8,4.8,4.8c2.7,0,4.8-2.2,4.8-4.8c0-2.7-2.2-4.8-4.8-4.8
		C458.8,57.9,456.7,60.1,456.7,62.7z"/>
	<path class="st6" d="M451.9,308c0,2.7,2.2,4.8,4.8,4.8c2.7,0,4.8-2.2,4.8-4.8c0-2.7-2.2-4.8-4.8-4.8
		C454,303.2,451.9,305.3,451.9,308z"/>
	<path class="st6" d="M346.2,191.4c0,2.7,2.2,4.8,4.8,4.8c2.7,0,4.8-2.2,4.8-4.8c0-2.7-2.2-4.8-4.8-4.8
		C348.4,186.6,346.2,188.8,346.2,191.4z"/>
	<path class="st6" d="M123.1,267.8c0,3.3,2.7,6,6,6c3.3,0,6-2.7,6-6c0-3.3-2.7-6-6-6C125.7,261.8,123.1,264.5,123.1,267.8z"/>
	<path class="st6" d="M10.4,200.1c0,2.7,2.2,4.8,4.8,4.8c2.7,0,4.8-2.2,4.8-4.8c0-2.7-2.2-4.8-4.8-4.8
		C12.5,195.3,10.4,197.4,10.4,200.1z"/>
	<path class="st6" d="M97.1,42c0,2.7,2.2,4.8,4.8,4.8c2.7,0,4.8-2.2,4.8-4.8c0-2.7-2.2-4.8-4.8-4.8C99.2,37.2,97.1,39.4,97.1,42z"/>
	<path class="st6" d="M50.2,366c0,2.7,2.2,4.8,4.8,4.8c2.7,0,4.8-2.2,4.8-4.8c0-2.7-2.2-4.8-4.8-4.8C52.3,361.2,50.2,363.3,50.2,366
		z"/>
	<path class="st6" d="M324.4,370.8c0,2.7,2.2,4.8,4.8,4.8c2.7,0,4.8-2.2,4.8-4.8c0-2.7-2.2-4.8-4.8-4.8
		C326.6,366,324.4,368.1,324.4,370.8z"/>
	<line class="st7" x1="461.5" y1="62.7" x2="351.1" y2="191.4"/>
	<line class="st7" x1="351.1" y1="191.4" x2="456.7" y2="308"/>
	<line class="st7" x1="456.7" y1="308" x2="329.2" y2="370.8"/>
	<line class="st7" x1="329.2" y1="370.8" x2="129" y2="267.8"/>
	<line class="st7" x1="129" y1="267.8" x2="55" y2="366"/>
	<line class="st7" x1="55" y1="366" x2="15.2" y2="200.1"/>
	<line class="st7" x1="55" y1="366" x2="101.9" y2="42"/>
	<line class="st7" x1="101.9" y1="42" x2="15.2" y2="200.1"/>
	<line class="st7" x1="101.9" y1="42" x2="129" y2="267.8"/>
	<line class="st7" x1="101.9" y1="42" x2="351.1" y2="191.4"/>
	<line class="st7" x1="461.5" y1="62.7" x2="456.7" y2="308"/>
	<line class="st7" x1="461.5" y1="62.7" x2="15.2" y2="200.1"/>
	<line class="st7" x1="329.2" y1="370.8" x2="461.5" y2="62.7"/>
	<line class="st7" x1="329.2" y1="370.8" x2="101.9" y2="42"/>
	<line class="st7" x1="129" y1="267.8" x2="351.1" y2="191.4"/>
	<line class="st7" x1="351.1" y1="191.4" x2="15.2" y2="200.1"/>
	<line class="st7" x1="456.7" y1="308" x2="129" y2="267.8"/>
</g>
<g>
	<g class="st0">
		<path d="M149,399c0,4.2-2.4,7.5-5.3,7.5H64.4c-2.9,0-5.3-3.4-5.3-7.5V243.7c0-4.1,2.4-7.5,5.3-7.5h79.3c2.9,0,5.3,3.4,5.3,7.5V399
			z"/>
		<path d="M139.8,378.4c0,4.2-2.4,7.5-5.3,7.5h-61c-2.9,0-5.3-3.4-5.3-7.5V259.2c0-4.2,2.4-7.5,5.3-7.5h61c2.9,0,5.3,3.4,5.3,7.5
			V378.4z"/>
		<path d="M106.2,244.8c0,1.7-1,3.1-2.2,3.1c-1.2,0-2.2-1.4-2.2-3.1c0-1.7,1-3.1,2.2-3.1C105.2,241.7,106.2,243,106.2,244.8z"/>
		<path d="M108.9,396.3c0,3.8-2.2,6.9-4.9,6.9c-2.7,0-4.9-3.1-4.9-6.9c0-3.8,2.2-6.9,4.9-6.9C106.7,389.4,108.9,392.5,108.9,396.3z"
			/>
		<path d="M115.7,314.1H94.8c-1.6,0-3,1.6-3,3.5v1.1v19.8c0,1.9,1.3,3.5,3,3.5h20.9c1.6,0,3-1.6,3-3.5v-19.8v-1.1
			C118.7,315.6,117.4,314.1,115.7,314.1z"/>
		<path d="M114.3,314.1l-2.6,0v-10.4c0-3.4-2.3-6.2-5.2-6.2H104c-2.9,0-5.2,2.8-5.2,6.2V314h-2.6v-10.4c0-5.1,3.5-9.3,7.8-9.3h2.5
			c4.3,0,7.8,4.2,7.8,10.4V314.1z"/>
		<path d="M110.2,333.6L107,327c1.2-0.7,2-2.2,2-4c0-2.5-1.7-4.5-3.8-4.5c-2.1,0-3.8,2-3.8,4.5c0,1.7,0.8,3.2,2,4l-3.2,6.6
			c-0.4,0.7-0.1,1.3,0.6,1.3h8.6C110.3,335,110.6,334.4,110.2,333.6z"/>
	</g>
	<g>
		<g>
			<g>
				<path class="st8" d="M143.6,393.6c0,4.2-2.4,7.5-5.3,7.5H59c-2.9,0-5.3-3.4-5.3-7.5V238.3c0-4.1,2.4-7.5,5.3-7.5h79.3
					c2.9,0,5.3,3.4,5.3,7.5V393.6z"/>
				<path class="st3" d="M134.5,373.1c0,4.2-2.4,7.5-5.3,7.5h-61c-2.9,0-5.3-3.4-5.3-7.5V253.8c0-4.2,2.4-7.5,5.3-7.5h61
					c2.9,0,5.3,3.4,5.3,7.5V373.1z"/>
				<path class="st3" d="M100.9,239.4c0,1.7-1,3.1-2.2,3.1c-1.2,0-2.2-1.4-2.2-3.1c0-1.7,1-3.1,2.2-3.1
					C99.9,236.3,100.9,237.7,100.9,239.4z"/>
				<path class="st3" d="M103.5,391c0,3.8-2.2,6.9-4.9,6.9c-2.7,0-4.9-3.1-4.9-6.9c0-3.8,2.2-6.9,4.9-6.9
					C101.4,384.1,103.5,387.1,103.5,391z"/>
			</g>
			<g>
				<path class="st9" d="M110.4,308.7H89.5c-1.6,0-3,1.6-3,3.5v1.1v19.8c0,1.9,1.3,3.5,3,3.5h20.9c1.6,0,3-1.6,3-3.5v-19.8v-1.1
					C113.3,310.3,112,308.7,110.4,308.7z"/>
				<g>
					<path class="st9" d="M109,308.7l-2.6,0v-10.4c0-3.4-2.3-6.2-5.2-6.2h-2.5c-2.9,0-5.2,2.8-5.2,6.2v10.4h-2.6v-10.4
						c0-5.1,3.5-9.3,7.8-9.3h2.5c4.3,0,7.8,4.2,7.8,10.4V308.7z"/>
				</g>
				<path class="st3" d="M104.9,328.3l-3.2-6.6c1.2-0.7,2-2.2,2-4c0-2.5-1.7-4.5-3.8-4.5c-2.1,0-3.8,2-3.8,4.5c0,1.7,0.8,3.2,2,4
					l-3.2,6.6c-0.4,0.7-0.1,1.3,0.6,1.3h8.6C104.9,329.6,105.2,329,104.9,328.3z"/>
			</g>
		</g>
	</g>
</g>
</svg>
