<?xml version="1.0" encoding="utf-8"?>
<!-- Generator: Adobe Illustrator 23.0.3, SVG Export Plug-In . SVG Version: 6.00 Build 0)  -->
<svg version="1.1" id="Layer_1" xmlns="http://www.w3.org/2000/svg" xmlns:xlink="http://www.w3.org/1999/xlink" x="0px" y="0px"
	 viewBox="0 0 606.3 595.1" style="enable-background:new 0 0 606.3 595.1;" xml:space="preserve">
<style type="text/css">
	.st0{clip-path:url(#SVGID_2_);}
	.st1{clip-path:url(#SVGID_4_);}
	.st2{fill:#2879FE;}
	.st3{fill:#FFFFFF;}
	.st4{clip-path:url(#SVGID_6_);fill:#FFFFFF;}
	.st5{clip-path:url(#SVGID_6_);}
	.st6{opacity:9.000000e-02;}
	.st7{fill:#C73E00;}
	.st8{fill:#D16300;}
	.st9{fill:#D09200;}
	.st10{font-family:'Corbel';}
	.st11{font-size:92.2337px;}
	.st12{letter-spacing:-4.4;}
	.st13{letter-spacing:-1.5;}
	.st14{fill:none;stroke:#5C4921;stroke-miterlimit:10;}
	.st15{fill:#C79F01;}
	.st16{opacity:0.13;}
	.st17{fill:url(#SVGID_7_);}
</style>
<title>pictures</title>
<g>
	<defs>
		<ellipse id="SVGID_1_" cx="303.2" cy="954.7" rx="303.2" ry="297.6"/>
	</defs>
	<clipPath id="SVGID_2_">
		<use xlink:href="#SVGID_1_"  style="overflow:visible;"/>
	</clipPath>
	<g class="st0">
		<defs>
			<rect id="SVGID_3_" x="47.2" y="680.7" width="512" height="512"/>
		</defs>
		<clipPath id="SVGID_4_">
			<use xlink:href="#SVGID_3_"  style="display:none;overflow:visible;"/>
		</clipPath>
		<g class="st1">
			<path class="st2" d="M-1,1221.2V688.1c0.3-1.3,0.2-2.7,0.3-4c0.7-6.3,3.6-11.4,7.4-16c3.5-4.2,7.9-7.4,13-9.5
				c2.5-1,5-1.1,7.6-1.3c0.4,0,0.9,0.1,1.3-0.2h546.9c1.7,0.3,3.5,0.3,5.2,0.5c4,0.5,7.4,2.5,10.6,4.8c6.2,4.5,10.8,10.9,13,18.2
				c0.8,2.9,1.1,5.9,1,8.9c0,176.9,0,353.7,0,530.6c0,13.1-6.5,22.2-16.8,28.6c-3.7,2.3-8,3.4-12.3,3.3c-0.3,0-0.5,0-0.7,0.2H28.4
				c-1.3-0.2-2.5-0.3-3.8-0.3c-5.2-0.5-9.5-3.1-13.6-6.4c-4.8-4-8.4-9.1-10.5-15c-1-2.6-1-5.2-1.3-7.8
				C-0.9,1222.1-0.7,1221.6-1,1221.2z"/>
			<path class="st3" d="M386.3,981.5c4.7,8,7.4,16.5,5.7,26.1c-1.1,6.3-4.2,12-8.8,16.4c-9.8,9.3-23.6,10.3-32.9,2.3
				c-6.2-5.3-10.2-12.8-11.1-21c-1.2-8.8,1.3-16.5,6.1-23.8H289c-0.1,0.5,0.3,0.8,0.5,1.2c2.3,4,4,8.3,5,12.8
				c1.8,9.1-0.5,18.4-6.3,25.6c-13.6,17.8-38.3,12.2-45.4-10.3c-2.6-8.1-1.9-16.8,2-24.4c0.4-0.9,0.9-1.7,1.3-2.6s0.9-1.6,1.3-2.6
				l-4.6-0.4c-1.4-0.1-2.7-0.4-4.1-0.9c-3.8-1.3-5.3-4.2-4.6-8.5c0.6-3.3,1.5-6.6,2.6-9.8c3.5-11.1,7.1-22.2,10.6-33.4
				c0.5-2.2,1.9-4.1,3.7-5.4c0.6-0.4,0.8-0.9,0.5-1.7c-2.9-10.7-6.2-21.2-9.4-31.7c-10.7-34.7-21.3-69.4-32-104.1
				c-0.9-2.9-1.7-5.8-2.4-8.7c-0.6-2.7-2.4-5-5-6c-11.1-4.9-22.2-10-33.3-14.8c-3.6-1.6-6-4.1-6.4-8.5c-0.7-7.8,4.6-13.1,11.3-11.3
				c3.9,1,7.4,3,11.1,4.6c9.8,4.4,19.6,8.8,29.4,13.1c4.2,1.8,6.8,5,8.1,10c1.9,7.1,4,14.3,6.4,21.2c0.2,0.4,0.3,0.7,0.4,1.1
				c0.2,1.1,0.8,1.4,1.8,1.4c16.6,0.6,33.3,0.3,49.9,0.1c17.7-0.2,35.4-0.1,53.2-0.1c30.7,0,61.4,0,92.1,0c2.7-0.1,5.4,0.3,8,1.3
				c3.2,1.3,4.7,3.7,4.8,7.6c0.1,4.2-1.1,8-2.2,11.9c-10,35.8-20.1,71.6-30.2,107.4c-1.4,4.8-2.5,9.8-4,14.6
				c-1.9,6.1-5.1,8.8-10.8,8.9c-16.8,0.2-33.7,0.3-50.5,0.3c-24.4,0-48.7,0.2-73.1-0.3c-2.4,0-4.8-0.2-7.3-0.3
				c-0.7-0.1-1.3,0.3-1.5,0.9c0,0,0,0,0,0.1c-2.6,7.4-5,15-7.1,22.6c-0.4,1.3,0,1.4,1,1.4c16.6,0,33.2,0,49.8,0h84.5
				c2.3-0.1,4.5,0.1,6.8,0.4c4.1,0.7,6.2,3.3,6.3,7.6s-2.4,8.3-6,9.2c-1.9,0.4-3.9,0.5-5.8,0.3C388.4,981.2,387.4,981.3,386.3,981.5
				z"/>
			<path class="st3" d="M126.2,1069v20.6c0,7.9,0,15.9,0,23.8c0.1,1.8-0.4,3.7-1.3,5.2c-1.2,1.8-3.5,2.7-5.6,2
				c-2.1-0.5-3.3-2.2-3.8-4.5c-0.2-0.8-0.2-1.6-0.2-2.5c0-17.8,0-35.6,0-53.3c0-4.3,1.8-6.5,5.7-6.9c2.8-0.3,5.7-0.3,8.5,0
				c2.3,0.2,3.8,1.7,4.5,4.2c1.2,4,2,8.2,3,12.3c2.2,9.3,4.4,18.6,6.7,27.8c0.5-2.2,1.1-4.4,1.6-6.6c2.4-10.4,4.8-20.8,7.3-31.3
				c1.3-5.4,2.1-6.2,7-6.6c2.4-0.2,4.8-0.2,7.1,0.2c3.5,0.6,5.2,2.9,5.2,7.4c0,4.7,0,9.3,0,14c0,12.5,0,25.1,0,37.6
				c0,1.2-0.1,2.4-0.3,3.5c-0.6,3.4-2.8,5.2-6,4.9c-2.4-0.2-4.5-2.7-4.7-5.8c-0.1-1.1-0.1-2.2-0.1-3.3c0-14.2,0-28.4,0-42.6
				c-0.3,0.2-0.3,0.6-0.4,0.9c-3.1,14.1-6.3,28.3-9.4,42.5c-0.5,2.4-1.1,4.8-2.9,6.6c-3.1,3.2-8.7,2-10.5-2.3
				c-1.4-3.2-1.9-6.7-2.7-10.1c-2.8-12.5-5.6-24.9-8.3-37.4C126.3,1069.3,126.3,1069.2,126.2,1069z"/>
			<path class="st3" d="M210.5,1114.1c-2.1,1.9-4.5,3.5-7,4.8c-5.6,2.6-11.2,3.2-16.7-0.1c-6.2-3.7-8.2-12.5-4.5-19
				c1.9-3.3,5.1-5.6,8.8-6.4c5.7-1.4,11.4-2.6,17.1-4.4c1.6-0.5,1.6-0.5,1.4-2.3c-0.1-0.6-0.1-1.1-0.2-1.7c-0.8-3.9-2.1-5.3-5.6-5.7
				c-1.7-0.2-3.5-0.1-5.2,0.1c-2.8,0.5-5.3,2.3-6.6,4.9c-0.5,0.9-1,1.7-1.5,2.6c-0.9,1.7-2.9,2.4-4.7,1.7c-1.9-0.6-3.2-2.4-3.3-4.3
				c-0.1-3.6,1.5-7,4.3-9.2c3.6-3.2,8-4.3,12.4-4.6c4.1-0.4,8.2,0.1,12.1,1.2c5,1.6,7.8,5.4,8.8,11.1c0.4,2.6,0.5,5.3,0.5,7.9
				c0,4.3,0,8.5,0,12.8c0.1,3.5,0.7,7,1.7,10.3c0.9,2.4-0.1,5.2-2.4,6.4c-1.9,1.3-4.3,0.8-5.9-1.2c-0.6-0.8-1.2-1.5-1.8-2.4
				C211.6,1115.9,211.1,1115,210.5,1114.1z"/>
			<path class="st3" d="M491.8,1095.7c0.1,3.7-0.3,7.5,0.2,11.2c0.3,2.4,1,4.7,1.6,7c0.8,3.6-1.4,6.8-4.7,6.9
				c-1.1,0.1-2.3-0.4-3.1-1.2c-1.4-1.4-2.6-2.9-3.5-4.7c-0.4-0.8-0.7-0.9-1.4-0.3c-3.2,2.6-6.5,5-10.5,5.8
				c-4.9,0.9-9.6,0.8-13.8-2.8c-7.2-5.9-6.1-18.5,1.9-22.8c3-1.6,6.1-2.1,9.3-2.8c4.1-1,8.1-2.1,12.1-3.2c1-0.3,1.2-0.8,1-1.9
				c-0.2-1.3-0.4-2.5-0.8-3.8c-0.5-1.9-2-3.3-3.8-3.6c-2.5-0.5-5.1-0.5-7.6,0.1c-2.9,0.7-4.6,3.1-6.1,5.7c-0.2,0.4-0.5,0.9-0.7,1.3
				c-1,2.2-2.8,2.2-4.5,1.9c-1.8-0.3-3.2-1.7-3.4-3.5c-0.3-2,0-4.1,1-5.9c1.8-3.6,5-6.3,8.9-7.4c6.3-2.1,13.1-2,19.4,0.1
				c4.7,1.5,7.3,5.4,8.2,10.8C492,1087,491.7,1091.3,491.8,1095.7z"/>
			<path class="st3" d="M247.2,1106.9c2.3-7.3,4.5-14.6,6.8-21.8c1.2-3.8,2.2-7.7,3.7-11.4c1-2.5,2.8-3.6,5.1-3.1
				c2.4,0.5,4.1,2.6,4.1,5c-0.1,2.2-0.6,4.4-1.5,6.5c-4.6,13.6-9.2,27.3-13.8,40.9c-0.9,2.9-2,5.8-3.3,8.6c-2.2,4.5-5.5,7-10,7.6
				c-3,0.5-6.2,0.3-9.1-0.5c-2.3-0.5-3.9-2.6-3.7-4.9c0-2.5,1.2-4.1,3.4-4.5c0.9-0.1,1.8-0.1,2.6,0.1c4,1.1,6,0,7.8-4.2
				c0.7-1.6,1.2-3.3,1.9-4.9c0.2-0.4,0.2-0.9,0-1.3c-4.5-12.9-9-25.8-13.6-38.6c-0.9-2.4-1.4-4.8,0.1-7.2c1.9-3,6.8-4.2,8.9,0.6
				c1.8,4,2.8,8.4,4.1,12.7c2,6.4,3.9,12.9,5.9,19.4C246.8,1106.1,246.8,1106.7,247.2,1106.9z"/>
			<path class="st3" d="M314.6,1095.7c0,6.5-1.4,12.4-5.2,17.4c-2.8,3.9-7,6.5-11.7,7.4c-5.1,1-10.1,0.8-14.9-1.8
				c-6.4-3.4-10-9.3-11.4-17.1c-1-5.7-0.6-11.6,1.4-17c2.8-7.7,8-12,15.1-13.6c4.8-1.1,9.9-0.6,14.3,1.6c7,3.5,10.8,9.8,12,18.2
				C314.4,1092.4,314.5,1094,314.6,1095.7z"/>
			<path class="st3" d="M397.2,1120.9c-5,0.1-9.7-0.9-13.8-4.2c-2.8-2.1-4.5-5.3-4.6-8.8c-0.2-2.1,1-4.1,3-5c2-0.8,4.4,0.1,5.3,2.1
				c1.2,2,2.2,4.1,4,5.7c3.2,2.8,9.4,3,12.7,0.3c2.2-1.9,2.4-5.2,0.5-7.3c-0.3-0.3-0.5-0.6-0.9-0.8c-2.8-1.8-5.9-2.4-8.9-3.4
				c-3.5-0.9-6.9-2.4-10-4.4c-7.7-5.4-6.3-16.2,0.1-21c4-3,8.5-3.7,13.2-3.5c3.6,0.1,7.1,1,10.3,2.7c2.3,1.3,4.2,3.2,5.4,5.6
				c1.2,2.6,0.9,5.6-1,7.1c-1.6,1.3-4.8,1.6-6.6-0.5c-1.3-1.6-2.5-3.3-3.9-4.7c-2.9-3-9.1-2.7-11.6,0.4c-1.3,1.6-1.1,4,0.4,5.4
				c2,1.8,4.4,2.4,6.7,3.1c3.6,1.1,7.4,1.9,10.8,3.7c2.2,1.1,4.1,2.6,5.7,4.5c3.5,4.3,2.6,11.5,0.3,15.4c-2.5,4.3-6.4,6.2-10.6,7.2
				C401.4,1120.8,399.3,1121,397.2,1120.9z"/>
			<path class="st3" d="M438.1,1066.1c0,1.3,0.1,2.7,0,4.1c-0.1,1.3,0.4,1.5,1.4,1.5c1.2-0.1,2.5,0,3.7,0.1c2.1,0.3,3.7,2.1,3.7,4.2
				c0.2,2-1.1,3.8-3,4.3c-1.6,0.4-3.2,0.6-4.8,0.5c-0.7,0-1,0.2-1,1.1c0,8.2,0,16.4,0,24.6c0,0.7,0.1,1.4,0.2,2.1
				c0.1,1.5,1.4,2.7,2.9,2.8c1.4,0,2.8-0.2,4.1-0.6c2-0.6,4.1,0.6,4.7,2.5c0.7,2.2-0.1,4.6-2,5.8c-1.6,1.1-3.4,1.7-5.3,1.8
				c-3,0.5-6,0.3-8.9-0.4c-3.9-1.2-6.2-4.7-6.6-9.9c-0.5-7.6-0.1-15.2-0.3-22.9c0-1.7-0.1-3.5,0-5.2c0.1-1.2-0.2-1.7-1.4-1.6
				c-1.2,0.1-2.3-0.2-3.3-0.9c-1.4-1.2-2-3.1-1.5-4.8c0.4-1.7,1.8-2.9,3.6-3.2h0.2c2.4-0.3,2.4-0.3,2.4-3.1c0.1-3.3-0.3-6.6,0.3-9.9
				c0.5-3,2.9-5.2,5.5-5c2.6,0.2,4.9,2.7,5.1,5.7C438.1,1061.6,438.2,1063.8,438.1,1066.1z"/>
			<path class="st3" d="M333.7,1077.6c0.7-1.1,1.4-2.2,2.1-3.3c2.6-3.7,6.1-4.4,9.9-3.5c2.4,0.6,4.8,1.5,6.4,3.9
				c1.2,1.8,1.2,4.1,0.1,5.9c-1.2,2-2.9,2.7-4.9,2c-2-0.7-3.8-1.4-5.8-1.4c-2.5,0-4.3,1.3-5.4,3.9c-1.6,3.8-1.9,7.9-2,12
				c-0.1,5.1-0.1,10.2-0.1,15.3c0.1,1.5-0.1,3-0.5,4.5c-0.8,2.7-3.4,4.3-6.1,3.8c-2.2-0.3-4.1-2.8-4.3-5.7c-0.1-0.9-0.1-1.7-0.1-2.6
				c0-11,0-22,0-33c-0.1-1.8,0.1-3.6,0.6-5.3c0.8-2.5,2.7-3.9,5.1-3.8s3.9,1.5,4.6,4.3C333.3,1075.6,333.5,1076.5,333.7,1077.6z"/>
			<path class="st3" d="M369.8,1095.6c0,6.4,0.1,12.7,0,19.1c-0.1,4.5-3.8,7.4-7.4,5.9c-1.9-0.8-2.9-2.6-3.4-4.8
				c-0.2-0.9-0.3-1.9-0.3-2.9c0-11.6,0-23.2,0-34.8c0-2.1,0.2-4.2,1.6-5.8c1.4-1.8,3.8-2.5,5.9-1.5c2.2,0.9,3.6,3.1,3.5,5.5
				C369.8,1082.8,369.8,1089.2,369.8,1095.6z"/>
			<path class="st3" d="M369.8,1058.9c0,3.6-2.2,6.1-5.4,6.1s-5.6-2.5-5.6-6.1c0-3.4,2.6-6.3,5.6-6.2c3.1,0.1,5.5,2.6,5.5,5.7
				C369.8,1058.5,369.8,1058.7,369.8,1058.9z"/>
			<path class="st2" d="M263.5,808.3c8.5,0,17,0,25.5,0c0.7,0,1.2,0,1.2,1.1c-0.1,6.6-0.2,13.2-0.2,19.7c0,1-0.3,1.2-1.1,1.2
				c-14.9,0-29.8,0-44.6,0c-0.6,0.1-1.2-0.4-1.4-1c-2.2-6.4-4.3-12.9-5.9-19.6c-0.4-1.5-0.4-1.5,1-1.5L263.5,808.3L263.5,808.3z"/>
			<path class="st2" d="M328.7,850.5c6.3,0,12.5-0.1,18.7,0.3c1.6,0.1,1.6,0.1,1.8,1.9c0.3,4.6,0.3,9.1,0.1,13.7
				c-0.1,2.9,0.1,5.8,0,8.6c0,1.6-0.2,1.9-1.6,1.9c-12.2,0.2-24.3,0.5-36.5-0.1c-3.5-0.2-3.4,0.6-3.4-4c0-6.8,0-13.6,0-20.4
				c0-1.6,0.3-1.8,1.8-1.8c3.2,0,6.4-0.1,9.7-0.1L328.7,850.5z"/>
			<path class="st2" d="M392.6,808.4c8.1,0,16.2,0,24.3,0c1,0,1.2,0.2,0.9,1.3c-1.9,6.5-3.8,13-5.6,19.6c-0.2,0.8-0.5,1.2-1.3,1.2
				c-14.2-0.1-28.4-0.2-42.6-0.2c-0.9,0-1.1-0.2-1.1-1.3c0-6.5,0-12.9,0-19.4c0-1,0.3-1.2,1.1-1.2
				C376.4,808.4,384.5,808.4,392.6,808.4L392.6,808.4z"/>
			<path class="st2" d="M270.2,850.6h17.6c0.4,0,0.8,0,1.1,0.1c1.5,0.3,1.9,0.7,1.9,2.5c0,5.8-0.1,11.6,0.2,17.4
				c0.1,1.6,0,3.3-0.3,4.9c-0.1,0.8-0.5,1.2-1.2,1.3c-2,0.3-4,0.4-6.1,0.4c-5,0-10-0.1-15-0.2c-2.7-0.1-5.4,0.2-8,0.2
				c-2.6,0-3.3-0.6-4.1-3.3c-1.6-5.4-3.2-10.8-4.8-16.2c-0.2-0.6-0.2-1.4-0.9-1.7c-0.4-0.2,0-0.7-0.1-1.1c-0.3-1-0.5-1.9-0.8-2.9
				c-0.3-0.9-0.1-1.2,0.7-1.3c1.7-0.3,3.3-0.4,5-0.5c5,0,9.9,0,14.8,0L270.2,850.6z"/>
			<path class="st2" d="M328.5,831c-6.4-0.1-12.8,0-19.2-0.3c-1,0-1.3-0.5-1.3-1.5c-0.3-6.5,0-13.1-0.1-19.6c0-1.3,0.4-1.7,1.5-1.7
				c12.2-0.1,24.5-0.5,36.7,0c3.7,0.2,3-0.1,3.2,3.5c0.3,6.1,0.2,12.2-0.1,18.3c0,1.1-0.7,0.9-1.3,1c-3.9,0.4-7.7,0.3-11.6,0.4
				C333.8,831.1,331.2,831,328.5,831z"/>
			<path class="st2" d="M386.3,851.1c6.1,0,12.3,0,18.4,0c0.9,0,1.2,0.2,1,1.3c-0.9,4-2,8-3.4,11.9c-1.2,3.4-2.1,6.8-2.8,10.3
				c-0.1,0.7,0.2,1.6-0.3,2s-1.2,0.2-1.8,0.3c-5.9,0.5-11.9,0.4-17.8,0.4c-3.7,0-7.4-0.1-11-0.5c-1.9-0.2-1.8-0.2-1.9-2.3
				c-0.1-6.5-0.3-13-0.4-19.5c0-1,0.1-2,0.1-3c0-0.7,0.3-1,0.9-1.1c0.4,0,0.8-0.1,1.1,0h17.8L386.3,851.1z"/>
			<path class="st2" d="M328.4,919h-17.8c-0.5,0-1-0.1-1.5-0.1c-0.8-0.1-1.3-0.6-1.2-1.6c0.4-6.1-0.4-12.3,0.2-18.4
				c0.2-2,0.2-2,2-2.1c10.6-0.7,21.2-0.7,31.7-0.3c2.1,0.1,4.2,0.2,6.3,0.4c0.9,0.1,1.1,0.5,1.2,1.5c0.2,3.6,0.2,7.1,0.1,10.7
				c0,2.2-0.1,4.4,0,6.7c0.1,2.7-0.8,3.2-2.8,3.2L328.4,919z"/>
			<path class="st2" d="M277,896.4c4.1-0.1,8.1,0,12.2,0.4c1.1,0.1,1.6,0.4,1.5,1.9c-0.1,6,0,12,0,18c0,1.7-0.1,1.8-1.5,1.8
				l-17.6,0.3c-1.7,0-1.7,0-2.3-1.9l-3.9-13.2c-0.3-1.1-0.6-2.2-1-3.3c-0.3-0.7-0.6-1.5-0.7-2.2c-0.3-1.2,0.3-1.2,0.9-1.2
				c2.2-0.2,4.4-0.3,6.5-0.4C273.2,896.3,275.1,896.4,277,896.4z"/>
			<path class="st2" d="M380.1,897.1h12c0.3,0,0.7-0.2,0.9,0.3c0.2,0.4,0.1,0.9-0.2,1.2c-0.3,0.4-0.4,0.8-0.3,1.3
				c0.1,0.4,0.1,0.8-0.5,0.9c-0.6,0.1-0.5,0.8-0.6,1.2c-1.4,5-2.7,10-4,15.1c-0.3,1.1-0.7,1.4-1.7,1.4c-5.7-0.1-11.4,0-17,0
				c-1.6,0-1.9-0.2-1.9-2.2c0-4,0.1-8,0.2-12c0-2.1,0.1-4.2,0.1-6.3c0-0.8,0.2-1,0.9-1C372.1,897.1,376.1,897.1,380.1,897.1
				L380.1,897.1z"/>
			<path class="st2" d="M279.5,1001.5c0,7.3-4.9,12.7-11.6,12.7c-6.2,0-11.4-6.1-11.3-13.5c-0.2-6.8,5.2-12.5,12-12.7
				c0.1,0,0.2,0,0.3,0C274.8,988,279.5,994,279.5,1001.5z"/>
			<path class="st2" d="M366.1,988c6.1,0,11,6,11,13.5c0,7.4-4.9,12.6-11.8,12.6c-6.3,0-11-5.7-11-13.4
				C354.3,993.5,359.3,988,366.1,988z"/>
			<path class="st2" d="M209.7,1098.7c0,1.9-0.2,3.7-0.5,5.6c-0.9,4.5-3.8,6.8-7.5,8c-2,0.7-4.1,0.7-6.1-0.1c-2.5-1-3.9-3.5-3.9-6.5
				c0-2.7,1.6-4.7,4.6-5.7c3.6-1.2,7.2-2,10.8-2.9c0.6-0.1,1.1-0.3,1.6-0.5c0.9-0.5,1.1-0.1,1,0.8
				C209.7,1097.8,209.7,1098.2,209.7,1098.7z"/>
			<path class="st2" d="M480.9,1098.7c0,1.9-0.2,3.7-0.5,5.6c-0.9,4.6-3.8,6.8-7.6,7.9c-2.5,0.8-5.1,0.8-7.4-0.9
				c-2.6-2.1-3.3-5.8-1.6-8.7c1.1-1.5,2.6-2.6,4.5-3c3.5-1,7.1-1.7,10.6-2.8C480.9,1096.2,480.9,1096.2,480.9,1098.7z"/>
			<path class="st2" d="M303.5,1096.2c0,3.9-1,7.7-2.9,11.1c-2.9,4.3-8.7,5.5-13.1,2.7c-1.6-1.1-2.9-2.7-3.6-4.5
				c-1.3-3.4-2-7-1.8-10.6c0-3.4,0.7-6.8,2.3-9.8c2.3-4.6,8-6.5,12.6-4.2c1.9,0.9,3.4,2.5,4.3,4.4
				C303,1088.5,303.4,1092.1,303.5,1096.2z"/>
		</g>
	</g>
</g>
<g>
	<defs>
		<ellipse id="SVGID_5_" cx="303.2" cy="297.5" rx="303.2" ry="297.5"/>
	</defs>
	<clipPath id="SVGID_6_">
		<use xlink:href="#SVGID_5_"  style="overflow:visible;"/>
	</clipPath>
	<rect x="0" class="st4" width="606.3" height="595.1"/>
	<g class="st5">
		<g id="Layer_1_1_">
			<g class="st6">
				<polygon points="169,444.5 92.2,444.1 239,122.8 315.2,124.5 				"/>
			</g>
			<polygon class="st7" points="166,440.5 89.2,440.1 236,118.8 312.2,120.5 			"/>
			<g class="st6">
				<polygon points="390.5,334.5 453.4,268.5 409.1,125.2 329,122.8 				"/>
			</g>
			<polygon class="st8" points="387.5,330.5 450.4,264.5 406.1,121.2 326,118.8 			"/>
			<g class="st6">
				<polygon points="407.5,443.2 330.7,442.8 477.5,121.5 553.7,123.2 				"/>
			</g>
			<polygon class="st8" points="404.5,439.2 327.7,438.8 474.5,117.5 550.7,119.2 			"/>
			<g class="st6">
				<polygon points="300,356 223.4,356 329.1,122.8 405.3,124.5 				"/>
			</g>
			<polygon class="st9" points="297,352 220.4,352 326.1,118.8 402.3,120.5 			"/>
			<text transform="matrix(0.5663 -1.2519 0.8843 0.467 410.3696 415.3486)" class="st3 st10 st11">J</text>
			<text transform="matrix(0.5663 -1.2519 0.8843 0.467 429.9319 372.1057)" class="st3 st10 st11 st12">A</text>
			<text transform="matrix(0.5663 -1.2519 0.8843 0.467 460.308 304.9609)" class="st3 st10 st11 st13">T</text>
			<text transform="matrix(0.5663 -1.2519 0.8843 0.467 488.0323 243.6733)" class="st3 st10 st11">O</text>
			<path class="st14" d="M168,76"/>
			<path class="st14" d="M209.7,80.1"/>
			<path class="st14" d="M168,80.1"/>
			<path class="st14" d="M209.7,97.6"/>
			<polyline class="st15" points="148.6,88.3 209.7,88.3 211.2,159.9 148.6,286.2 			"/>
			<g class="st6">
				<g class="st16">
					<ellipse cx="300.3" cy="496.4" rx="244.7" ry="22.7"/>
				</g>
				
					<radialGradient id="SVGID_7_" cx="779.4225" cy="1239.9077" r="49.2133" gradientTransform="matrix(2.7809 0 0 -1.5382 -1887.9248 2400.5381)" gradientUnits="userSpaceOnUse">
					<stop  offset="0" style="stop-color:#FFFFFF"/>
					<stop  offset="2.000000e-02" style="stop-color:#F7F7F7"/>
					<stop  offset="0.31" style="stop-color:#A1A1A1"/>
					<stop  offset="0.55" style="stop-color:#5C5C5C"/>
					<stop  offset="0.76" style="stop-color:#2A2A2A"/>
					<stop  offset="0.91" style="stop-color:#0B0B0B"/>
					<stop  offset="1" style="stop-color:#000000"/>
				</radialGradient>
				<ellipse class="st17" cx="280.4" cy="493.3" rx="191.9" ry="14.7"/>
			</g>
		</g>
	</g>
</g>
</svg>
