<svg id="Layer_1" data-name="Layer 1" xmlns="http://www.w3.org/2000/svg" xmlns:xlink="http://www.w3.org/1999/xlink" viewBox="0 0 606.32 595.09"><defs><style>.cls-1{fill:none;}.cls-2{clip-path:url(#clip-path);}.cls-3{fill:#2879fe;}.cls-4{fill:#fff;}</style><clipPath id="clip-path" transform="translate(19.17 23.59)"><rect class="cls-1" width="512" height="512"/></clipPath></defs><title>pictures</title><g class="cls-2"><path class="cls-3" d="M-19.17,540.51V7.39c.27-1.33.19-2.69.33-4,.66-6.28,3.58-11.4,7.39-16a32.85,32.85,0,0,1,13-9.46c2.47-1,5-1.1,7.61-1.32.44,0,.9.15,1.31-.15H557.33c1.72.28,3.47.25,5.19.48,4,.54,7.4,2.5,10.64,4.8a34.37,34.37,0,0,1,13,18.23,29,29,0,0,1,1,8.9q0,265.29,0,530.59c0,13.08-6.45,22.16-16.77,28.62a21.94,21.94,0,0,1-12.3,3.31,1.15,1.15,0,0,0-.72.16H10.2a30.8,30.8,0,0,0-3.83-.35c-5.21-.53-9.53-3.14-13.56-6.4a34.7,34.7,0,0,1-10.54-15c-1-2.55-1.05-5.2-1.29-7.85C-19.06,541.43-18.88,540.94-19.17,540.51Z" transform="translate(19.17 23.59)"/><path class="cls-4" d="M339.17,300.8c4.67,8,7.41,16.46,5.66,26.1A29.22,29.22,0,0,1,336,343.26c-9.83,9.27-23.59,10.28-32.91,2.31a32.5,32.5,0,0,1-11.14-21c-1.19-8.8,1.28-16.55,6.06-23.79H241.83c-.1.45.28.83.51,1.24a43.08,43.08,0,0,1,4.95,12.84A31.53,31.53,0,0,1,241,340.49c-13.56,17.82-38.3,12.19-45.44-10.27a31.66,31.66,0,0,1,2-24.38c.43-.88.88-1.73,1.33-2.6s.85-1.62,1.34-2.57l-4.65-.36a16.7,16.7,0,0,1-4.06-.86c-3.77-1.28-5.31-4.15-4.63-8.55a64.14,64.14,0,0,1,2.64-9.83q5.31-16.68,10.61-33.36a9.39,9.39,0,0,1,3.71-5.43c.65-.41.75-.87.53-1.7-2.93-10.66-6.17-21.2-9.4-31.74Q179,156.76,163,104.71q-1.32-4.32-2.42-8.7a8.23,8.23,0,0,0-5-6c-11.13-4.9-22.21-10-33.35-14.84-3.58-1.56-6-4.11-6.38-8.52-.74-7.79,4.6-13.06,11.3-11.26,3.86,1,7.44,2.95,11.11,4.58,9.8,4.36,19.56,8.81,29.38,13.12,4.21,1.84,6.8,5,8.14,10,1.93,7.14,4,14.25,6.35,21.23a7,7,0,0,1,.38,1.09c.23,1.12.8,1.41,1.81,1.44,16.64.58,33.29.25,49.94.08,17.72-.18,35.45-.08,53.17-.1q46,0,92.08,0a21.11,21.11,0,0,1,8,1.27c3.21,1.29,4.73,3.69,4.8,7.57.08,4.16-1.07,8-2.17,11.94Q375.08,181.33,359.93,235c-1.37,4.84-2.54,9.76-4,14.56-1.85,6.1-5.11,8.83-10.77,8.88q-25.26.24-50.52.28c-24.36,0-48.73.22-73.08-.27-2.42-.05-4.84-.15-7.25-.32a1.23,1.23,0,0,0-1.47,1q-3.94,11.13-7.06,22.6c-.35,1.26,0,1.41,1,1.41q24.92,0,49.84,0h84.48a38.45,38.45,0,0,1,6.77.44c4.07.74,6.17,3.25,6.29,7.56s-2.35,8.25-6,9.18a22.89,22.89,0,0,1-5.84.33A12,12,0,0,0,339.17,300.8Z" transform="translate(19.17 23.59)"/><path class="cls-4" d="M79,388.35V409c0,7.93,0,15.86,0,23.79A9,9,0,0,1,77.66,438a4.9,4.9,0,0,1-5.59,2c-2.1-.49-3.31-2.22-3.84-4.53A11.59,11.59,0,0,1,68,433q0-26.67,0-53.33c0-4.31,1.85-6.53,5.65-6.94a40.25,40.25,0,0,1,8.5,0c2.29.24,3.76,1.66,4.49,4.16,1.18,4,2,8.16,3,12.26C91.8,398.41,94,407.7,96.31,417q.8-3.28,1.58-6.59c2.44-10.42,4.85-20.85,7.33-31.25,1.3-5.44,2.1-6.16,7-6.6a29.25,29.25,0,0,1,7.12.16c3.52.56,5.16,2.89,5.19,7.37,0,4.66,0,9.32,0,14q0,18.81,0,37.64a18.68,18.68,0,0,1-.27,3.51c-.63,3.42-2.83,5.18-6,4.94-2.44-.19-4.48-2.69-4.69-5.81-.07-1.09-.07-2.18-.07-3.27q0-21.3,0-42.63c-.33.21-.34.57-.41.91q-4.72,21.22-9.45,42.45c-.54,2.43-1.11,4.84-2.9,6.64-3.14,3.16-8.65,2-10.51-2.3-1.39-3.19-1.9-6.67-2.66-10.07-2.81-12.45-5.55-24.91-8.32-37.38A2.67,2.67,0,0,0,79,388.35Z" transform="translate(19.17 23.59)"/><path class="cls-4" d="M163.37,433.4a35.73,35.73,0,0,1-7,4.79c-5.57,2.56-11.2,3.21-16.71-.11-6.17-3.73-8.21-12.53-4.48-19A13.31,13.31,0,0,1,144,412.7c5.7-1.44,11.45-2.58,17.06-4.41,1.59-.52,1.59-.5,1.37-2.31-.07-.55-.13-1.12-.24-1.66-.8-3.92-2.09-5.31-5.59-5.67a19.86,19.86,0,0,0-5.16.13,8.87,8.87,0,0,0-6.55,4.87c-.5.88-1,1.74-1.54,2.59a3.66,3.66,0,0,1-4.67,1.65,4.71,4.71,0,0,1-3.25-4.35,11.33,11.33,0,0,1,4.25-9.18c3.65-3.2,8-4.34,12.45-4.61a32.94,32.94,0,0,1,12.07,1.2c5,1.59,7.83,5.38,8.79,11.12a46.55,46.55,0,0,1,.48,7.92c0,4.27,0,8.54,0,12.8a37.48,37.48,0,0,0,1.73,10.31,5.28,5.28,0,0,1-2.41,6.42c-1.92,1.31-4.27.83-5.94-1.16-.64-.75-1.24-1.54-1.81-2.36S163.92,434.29,163.37,433.4Z" transform="translate(19.17 23.59)"/><path class="cls-4" d="M444.61,415c.12,3.74-.26,7.49.19,11.22.3,2.42,1.05,4.7,1.56,7,.8,3.59-1.39,6.8-4.68,6.94a3.94,3.94,0,0,1-3.06-1.2,18,18,0,0,1-3.45-4.68c-.4-.78-.69-.92-1.43-.31-3.19,2.63-6.54,5-10.52,5.75-4.87.91-9.58.75-13.82-2.75-7.17-5.92-6.14-18.49,1.89-22.8,2.95-1.58,6.14-2.06,9.27-2.8q6.1-1.46,12.13-3.23c1-.29,1.18-.82,1-1.86a30.6,30.6,0,0,0-.75-3.79,4.89,4.89,0,0,0-3.84-3.64,17,17,0,0,0-7.64.14c-2.91.74-4.59,3.09-6.09,5.72-.24.44-.52.86-.73,1.32-1,2.16-2.77,2.2-4.5,1.86a4.22,4.22,0,0,1-3.44-3.55,9.41,9.41,0,0,1,1-5.89,14.15,14.15,0,0,1,8.92-7.41,30.74,30.74,0,0,1,19.36.08c4.74,1.54,7.27,5.41,8.2,10.81C444.88,406.3,444.52,410.66,444.61,415Z" transform="translate(19.17 23.59)"/><path class="cls-4" d="M200,426.23c2.26-7.29,4.49-14.56,6.75-21.82,1.2-3.83,2.22-7.74,3.74-11.43,1-2.5,2.85-3.61,5.11-3.13a5.18,5.18,0,0,1,4.12,5,20.68,20.68,0,0,1-1.46,6.5q-6.85,20.47-13.77,40.91a73.72,73.72,0,0,1-3.31,8.57c-2.16,4.48-5.52,7-10,7.56a22.88,22.88,0,0,1-9.13-.49,4.58,4.58,0,0,1-3.67-4.88c0-2.47,1.21-4.14,3.37-4.47a6.5,6.5,0,0,1,2.63.1c4,1.05,6,0,7.77-4.23.68-1.59,1.24-3.26,1.87-4.88a1.8,1.8,0,0,0,0-1.35q-6.78-19.32-13.55-38.63c-.85-2.42-1.36-4.77.15-7.15,1.93-3.05,6.78-4.24,8.87.56,1.77,4.05,2.75,8.44,4.09,12.68,2,6.44,3.91,12.94,5.88,19.4C199.6,425.46,199.59,426,200,426.23Z" transform="translate(19.17 23.59)"/><path class="cls-4" d="M267.4,415c0,6.47-1.39,12.4-5.16,17.37a18.76,18.76,0,0,1-11.66,7.38c-5.11,1-10.15.77-14.93-1.79-6.4-3.43-10-9.3-11.35-17.07a33.1,33.1,0,0,1,1.38-17c2.79-7.71,8-12.05,15.09-13.58a21.34,21.34,0,0,1,14.3,1.58c7,3.46,10.78,9.76,12,18.18A43,43,0,0,1,267.4,415Z" transform="translate(19.17 23.59)"/><path class="cls-4" d="M350,440.2c-5,.12-9.72-.9-13.83-4.24a11.47,11.47,0,0,1-4.63-8.84,5.05,5.05,0,0,1,3-5,4.07,4.07,0,0,1,5.28,2.09c1.16,2,2.21,4.14,4,5.65,3.23,2.77,9.39,3,12.67.33a5.18,5.18,0,0,0-.37-8.09c-2.75-1.83-5.86-2.43-8.87-3.39a35.32,35.32,0,0,1-10-4.38c-7.72-5.42-6.3-16.15.08-21,4-3,8.5-3.74,13.16-3.53a22.07,22.07,0,0,1,10.31,2.72,12.7,12.7,0,0,1,5.4,5.63c1.24,2.63.87,5.55-1,7.06-1.57,1.27-4.8,1.62-6.57-.54-1.3-1.59-2.52-3.29-3.93-4.74-2.89-3-9.11-2.72-11.62.36a4,4,0,0,0,.37,5.4c2,1.84,4.39,2.36,6.74,3.08,3.64,1.12,7.37,1.89,10.82,3.71a17.78,17.78,0,0,1,5.68,4.53c3.54,4.34,2.56,11.54.3,15.44-2.5,4.34-6.35,6.19-10.62,7.16A25.9,25.9,0,0,1,350,440.2Z" transform="translate(19.17 23.59)"/><path class="cls-4" d="M390.93,385.42c0,1.35.09,2.71,0,4.05s.36,1.53,1.35,1.48a26.6,26.6,0,0,1,3.68.07,4.26,4.26,0,0,1,3.73,4.18,4.07,4.07,0,0,1-3,4.31,14.33,14.33,0,0,1-4.78.47c-.71,0-1,.16-1,1.08,0,8.19,0,16.38,0,24.57a12,12,0,0,0,.23,2.07,3,3,0,0,0,2.9,2.78,11.54,11.54,0,0,0,4.08-.63,3.82,3.82,0,0,1,4.72,2.55,5,5,0,0,1-2,5.81,11.06,11.06,0,0,1-5.32,1.81,22.32,22.32,0,0,1-8.91-.45c-3.92-1.21-6.2-4.72-6.56-9.89-.53-7.62-.13-15.24-.25-22.86,0-1.74-.07-3.49,0-5.23.06-1.22-.21-1.72-1.37-1.62a4.46,4.46,0,0,1-3.28-.9,4.74,4.74,0,0,1-1.55-4.84,4.38,4.38,0,0,1,3.56-3.21l.23,0c2.38-.28,2.35-.28,2.39-3.1.06-3.3-.25-6.62.25-9.9.46-3,2.86-5.19,5.46-5s4.87,2.67,5.15,5.67C390.93,380.9,391,383.16,390.93,385.42Z" transform="translate(19.17 23.59)"/><path class="cls-4" d="M286.51,396.9c.74-1.14,1.39-2.24,2.12-3.28,2.61-3.67,6.06-4.45,9.91-3.51,2.44.6,4.8,1.52,6.39,3.94A5.63,5.63,0,0,1,305,400c-1.23,2-2.92,2.67-4.9,2s-3.78-1.4-5.81-1.37c-2.51,0-4.28,1.33-5.38,3.87-1.64,3.8-1.91,7.92-2,12-.12,5.09-.07,10.18-.11,15.28a13.9,13.9,0,0,1-.53,4.49,5.37,5.37,0,0,1-6.13,3.79c-2.19-.33-4.06-2.79-4.3-5.68-.07-.86-.12-1.73-.12-2.6q0-16.53,0-33.05a16.72,16.72,0,0,1,.59-5.27c.83-2.52,2.71-3.94,5.07-3.8s3.94,1.51,4.58,4.25C286.18,394.92,286.32,395.86,286.51,396.9Z" transform="translate(19.17 23.59)"/><path class="cls-4" d="M322.59,414.94c0,6.36.08,12.73,0,19.08-.07,4.5-3.76,7.36-7.38,5.86-1.92-.8-2.94-2.57-3.36-4.76a16,16,0,0,1-.25-2.86q0-17.37,0-34.76c0-2.1.21-4.21,1.58-5.82a4.79,4.79,0,0,1,5.89-1.5,5.72,5.72,0,0,1,3.51,5.55C322.65,402.14,322.59,408.54,322.59,414.94Z" transform="translate(19.17 23.59)"/><path class="cls-4" d="M322.62,378.17c0,3.61-2.2,6.06-5.43,6.05s-5.59-2.45-5.62-6.06c0-3.36,2.56-6.25,5.62-6.2A5.56,5.56,0,0,1,322.62,378.17Z" transform="translate(19.17 23.59)"/><path class="cls-3" d="M216.35,127.66q12.77,0,25.54,0c.74,0,1.18,0,1.16,1.14q-.15,9.87-.16,19.73c0,1-.27,1.21-1.11,1.21q-22.32-.06-44.64,0a1.23,1.23,0,0,1-1.36-1c-2.24-6.42-4.27-12.93-5.95-19.57-.37-1.5-.35-1.5,1-1.5h25.54Z" transform="translate(19.17 23.59)"/><path class="cls-3" d="M281.55,169.82c6.25,0,12.5-.14,18.74.27,1.59.11,1.65.13,1.82,1.93a111.83,111.83,0,0,1,.1,13.7c-.08,2.88.06,5.75,0,8.62,0,1.59-.22,1.86-1.57,1.89-12.16.24-24.32.49-36.47-.09-3.48-.16-3.4.59-3.41-4q0-10.18,0-20.38c0-1.57.26-1.8,1.75-1.82,3.22-.05,6.44-.07,9.67-.08Z" transform="translate(19.17 23.59)"/><path class="cls-3" d="M345.48,127.7c8.09,0,16.19,0,24.28,0,1,0,1.2.2.87,1.33q-2.86,9.76-5.61,19.57c-.24.82-.51,1.15-1.33,1.15q-21.3-.16-42.58-.23c-.89,0-1.15-.24-1.14-1.28q.07-9.68,0-19.35c0-1,.25-1.23,1.09-1.22,8.14,0,16.27,0,24.4,0Z" transform="translate(19.17 23.59)"/><path class="cls-3" d="M223,169.89h17.61a6.34,6.34,0,0,1,1.15.06c1.54.28,1.87.73,1.88,2.51,0,5.79-.1,11.59.16,17.38a21.44,21.44,0,0,1-.3,4.93c-.15.78-.48,1.18-1.22,1.29a42.74,42.74,0,0,1-6.08.41q-7.47-.06-15-.22c-2.68-.06-5.36.15-8,.2s-3.27-.57-4.09-3.35q-2.4-8.08-4.83-16.17c-.18-.62-.2-1.36-.94-1.66-.43-.19,0-.71-.09-1.06-.26-1-.49-1.92-.8-2.85s-.09-1.16.67-1.28a33,33,0,0,1,5-.45c5,0,9.9,0,14.84,0Z" transform="translate(19.17 23.59)"/><path class="cls-3" d="M281.37,150.36c-6.4-.09-12.8,0-19.2-.33-1-.05-1.26-.45-1.31-1.52-.26-6.53,0-13.06-.08-19.58,0-1.31.38-1.72,1.52-1.72,12.23-.06,24.46-.47,36.68,0,3.72.15,3-.11,3.23,3.47a174,174,0,0,1-.12,18.27c0,1.11-.73.93-1.29,1-3.87.35-7.74.32-11.61.4C286.59,150.4,284,150.36,281.37,150.36Z" transform="translate(19.17 23.59)"/><path class="cls-3" d="M339.15,170.39c6.14,0,12.27,0,18.4,0,.94,0,1.17.22,1,1.31a93.44,93.44,0,0,1-3.36,11.89,70.8,70.8,0,0,0-2.81,10.32c-.11.67.22,1.58-.26,2s-1.18.21-1.78.26c-5.94.48-11.88.41-17.82.38-3.68,0-7.36-.14-11-.48-1.86-.18-1.84-.15-1.88-2.32q-.18-9.74-.4-19.46c0-1,.06-2,.12-3,.05-.73.32-1,.88-1.06a10.87,10.87,0,0,1,1.14-.05h17.83Z" transform="translate(19.17 23.59)"/><path class="cls-3" d="M281.21,238.32H263.37a12.3,12.3,0,0,1-1.48-.12c-.84-.08-1.26-.63-1.2-1.56.37-6.14-.41-12.28.17-18.41.19-2,.19-2,2-2.11a302.73,302.73,0,0,1,31.74-.29c2.11.07,4.21.24,6.31.45.91.09,1.13.54,1.18,1.47.18,3.57.16,7.14.11,10.71,0,2.22-.07,4.45,0,6.66.08,2.65-.77,3.22-2.82,3.21Z" transform="translate(19.17 23.59)"/><path class="cls-3" d="M229.87,215.69a105.58,105.58,0,0,1,12.19.41c1.07.1,1.55.44,1.53,1.86-.08,6,0,12,0,18,0,1.71-.06,1.75-1.55,1.77l-17.61.28c-1.72,0-1.73,0-2.29-1.92l-3.87-13.23a23.68,23.68,0,0,0-1-3.32,8.93,8.93,0,0,1-.71-2.23c-.25-1.17.3-1.17.91-1.22,2.18-.17,4.36-.35,6.55-.43C226,215.63,227.92,215.69,229.87,215.69Z" transform="translate(19.17 23.59)"/><path class="cls-3" d="M332.94,216.41h12c.32,0,.74-.18.93.27a1.08,1.08,0,0,1-.18,1.2,1.42,1.42,0,0,0-.32,1.31c.1.44.09.83-.47.94s-.46.76-.57,1.18c-1.36,5-2.73,10-4,15.08-.29,1.12-.72,1.44-1.74,1.43-5.67-.07-11.35,0-17,0-1.65,0-1.89-.19-1.89-2.17,0-4,.12-8,.19-12,0-2.09.13-4.18.12-6.27,0-.81.24-1,.93-1,4,0,8.05,0,12.07,0Z" transform="translate(19.17 23.59)"/><path class="cls-3" d="M232.34,320.82c0,7.31-4.91,12.66-11.64,12.67-6.21,0-11.36-6.12-11.34-13.53a12.37,12.37,0,0,1,12.3-12.69C227.61,307.3,232.34,313.29,232.34,320.82Z" transform="translate(19.17 23.59)"/><path class="cls-3" d="M318.92,307.34c6.12,0,11,6,11,13.53,0,7.39-4.85,12.61-11.78,12.62-6.32,0-11-5.71-11-13.35C307.11,312.77,312.12,307.35,318.92,307.34Z" transform="translate(19.17 23.59)"/><path class="cls-3" d="M162.58,418a29.41,29.41,0,0,1-.54,5.55c-.94,4.54-3.8,6.82-7.52,8a8.8,8.8,0,0,1-6.09-.05c-2.53-1-3.9-3.46-3.86-6.52,0-2.73,1.65-4.69,4.63-5.65,3.55-1.15,7.18-1.95,10.77-2.92a7.17,7.17,0,0,0,1.64-.54c.88-.47,1.06-.07,1,.84C162.55,417.08,162.58,417.52,162.58,418Z" transform="translate(19.17 23.59)"/><path class="cls-3" d="M433.76,418a26.32,26.32,0,0,1-.55,5.55c-.94,4.56-3.84,6.8-7.56,7.92-2.53.76-5.07.85-7.4-.88a6.72,6.72,0,0,1-1.61-8.66,7.46,7.46,0,0,1,4.45-3c3.51-1,7.09-1.65,10.57-2.8C433.78,415.47,433.78,415.48,433.76,418Z" transform="translate(19.17 23.59)"/><path class="cls-3" d="M256.3,415.55a22,22,0,0,1-2.87,11.08,9.42,9.42,0,0,1-16.66-1.86A25.22,25.22,0,0,1,235,414.14a21.42,21.42,0,0,1,2.27-9.83,9.37,9.37,0,0,1,16.85.23C255.8,407.81,256.27,411.38,256.3,415.55Z" transform="translate(19.17 23.59)"/></g></svg>