<?xml version="1.0" encoding="utf-8"?>
<!-- Generator: Adobe Illustrator 23.0.3, SVG Export Plug-In . SVG Version: 6.00 Build 0)  -->
<svg version="1.1" id="Capa_1" xmlns="http://www.w3.org/2000/svg" xmlns:xlink="http://www.w3.org/1999/xlink" x="0px" y="0px"
	 viewBox="0 0 512 397.4" style="enable-background:new 0 0 512 397.4;" xml:space="preserve">
<style type="text/css">
	.st0{opacity:0.1;}
	.st1{fill:#008C57;}
	.st2{fill:#409958;}
	.st3{fill:#8CEA8C;}
	.st4{fill:#FFFFFF;}
	.st5{fill:none;stroke:#000000;stroke-miterlimit:10;}
	.st6{fill:#F9F9F9;}
	.st7{fill:none;stroke:#409958;stroke-miterlimit:10;}
	.st8{fill:#7FDB86;}
</style>
<title>settings (4)</title>
<g>
	<g class="st0">
		<path d="M447.7,366.1c0,9.8-7.2,17.7-16,17.7H66.8c-8.8,0-16-7.9-16-17.7V106.7c0-9.7,7.2-17.6,16-17.6h364.8
			c8.8,0,16,7.9,16,17.6V366.1z"/>
		<path d="M86,355.5c-5.3,0-9.6-4.8-9.6-10.6V127.9c0-5.8,4.3-10.6,9.6-10.6h326.4c5.3,0,9.6,4.8,9.6,10.6v217.1
			c0,5.8-4.3,10.6-9.6,10.6H86z"/>
		<path d="M483.3,369.1c0,8.1-7.2,14.6-16,14.6H31.2c-8.8,0-16-6.5-16-14.6v-21.9c0-8.1,7.2-14.6,16-14.6h436.1
			c8.8,0,16,6.5,16,14.6V369.1z"/>
		<path d="M284.5,355.1c0,6.6-6.3,11.9-14,11.9H228c-7.7,0-14-5.3-14-11.9l0,0c0-6.6,6.3-11.9,14-11.9h42.4
			C278.2,343.2,284.5,348.5,284.5,355.1L284.5,355.1z"/>
		<path d="M257.2,103.1c0,4.8-3.6,8.8-8,8.8s-8-3.9-8-8.8c0-4.8,3.6-8.8,8-8.8S257.2,98.3,257.2,103.1z"/>
		<path d="M289.8,181.2c0,24.7-18.2,44.7-40.6,44.7c-22.4,0-40.6-20-40.6-44.7c0-24.7,18.2-44.7,40.6-44.7
			C271.7,136.4,289.8,156.5,289.8,181.2z"/>
		<path d="M269.4,192.7c0-7.3-5.4-13.3-12.1-13.3h-3.3c4.9-2.1,8.3-7.3,8.3-13.5c0-8-5.9-14.5-13.1-14.5c-7.3,0-13.1,6.5-13.1,14.5
			c0,6.1,3.5,11.4,8.3,13.5h-3.3c-6.7,0-12.1,6-12.1,13.3l-2.8,18.2h45.9L269.4,192.7z"/>
		<path d="M344.7,276.8c0,13.1-9.6,23.7-21.4,23.7H176.5c-11.8,0-21.4-10.6-21.4-23.7l0,0c0-13.1,9.6-23.6,21.4-23.6h146.8
			C335.2,253.2,344.7,263.8,344.7,276.8L344.7,276.8z"/>
		<polygon points="194.9,268.6 192.1,264.2 182.6,271.7 182.6,258.8 177.8,258.8 177.8,271.7 168.3,264.2 165.5,268.6 176,276.8 
			165.5,285.1 168.3,289.4 177.8,282 177.8,294.8 182.6,294.8 182.6,282 192.1,289.4 194.9,285.1 184.3,276.8 		"/>
		<polygon points="229.5,268.6 226.8,264.2 217.3,271.7 217.3,258.8 212.4,258.8 212.4,271.7 202.9,264.2 200.1,268.6 210.7,276.8 
			200.1,285.1 202.9,289.4 212.4,282 212.4,294.8 217.3,294.8 217.3,282 226.8,289.4 229.5,285.1 219,276.8 		"/>
		<polygon points="264.2,268.6 261.4,264.2 251.9,271.7 251.9,258.8 247.1,258.8 247.1,271.7 237.6,264.2 234.8,268.6 245.4,276.8 
			234.8,285.1 237.6,289.4 247.1,282 247.1,294.8 251.9,294.8 251.9,282 261.4,289.4 264.2,285.1 253.7,276.8 		"/>
		<polygon points="298.9,268.6 296.1,264.2 286.6,271.7 286.6,258.8 281.8,258.8 281.8,271.7 272.3,264.2 269.5,268.6 280,276.8 
			269.5,285.1 272.3,289.4 281.8,282 281.8,294.8 286.6,294.8 286.6,282 296.1,289.4 298.9,285.1 288.3,276.8 		"/>
		<polygon points="333.5,268.6 330.8,264.2 321.3,271.7 321.3,258.8 316.4,258.8 316.4,271.7 306.9,264.2 304.2,268.6 314.7,276.8 
			304.2,285.1 306.9,289.4 316.4,282 316.4,294.8 321.3,294.8 321.3,282 330.8,289.4 333.5,285.1 323,276.8 		"/>
	</g>
	<g>
		<g>
			<path class="st1" d="M442.3,360.8c0,9.8-7.2,17.7-16,17.7H61.5c-8.8,0-16-7.9-16-17.7V101.4c0-9.7,7.2-17.6,16-17.6h364.8
				c8.8,0,16,7.9,16,17.6V360.8z"/>
			<path class="st2" d="M80.7,350.2c-5.3,0-9.6-4.8-9.6-10.6V122.5c0-5.8,4.3-10.6,9.6-10.6h326.4c5.3,0,9.6,4.8,9.6,10.6v217.1
				c0,5.8-4.3,10.6-9.6,10.6H80.7z"/>
			<path class="st3" d="M477.9,363.8c0,8.1-7.2,14.6-16,14.6H25.9c-8.8,0-16-6.5-16-14.6v-21.9c0-8.1,7.2-14.6,16-14.6h436.1
				c8.8,0,16,6.5,16,14.6V363.8z"/>
			<path class="st2" d="M279.1,349.7c0,6.6-6.3,11.9-14,11.9h-42.4c-7.7,0-14-5.3-14-11.9l0,0c0-6.6,6.3-11.9,14-11.9h42.4
				C272.8,337.8,279.1,343.2,279.1,349.7L279.1,349.7z"/>
			<path class="st3" d="M251.8,97.8c0,4.8-3.6,8.8-8,8.8s-8-3.9-8-8.8c0-4.8,3.6-8.8,8-8.8S251.8,92.9,251.8,97.8z"/>
			<path class="st3" d="M284.5,175.8c0,24.7-18.2,44.7-40.6,44.7c-22.4,0-40.6-20-40.6-44.7c0-24.7,18.2-44.7,40.6-44.7
				C266.3,131.1,284.5,151.1,284.5,175.8z"/>
			<path class="st4" d="M264.1,187.3c0-7.3-5.4-13.3-12.1-13.3h-3.3c4.9-2.1,8.3-7.3,8.3-13.5c0-8-5.9-14.5-13.1-14.5
				s-13.1,6.5-13.1,14.5c0,6.1,3.5,11.4,8.3,13.5h-3.3c-6.7,0-12.1,6-12.1,13.3l-2.8,18.2h45.9L264.1,187.3z"/>
			<path class="st4" d="M339.4,271.5c0,13.1-9.6,23.7-21.4,23.7H171.1c-11.8,0-21.4-10.6-21.4-23.7l0,0c0-13.1,9.6-23.6,21.4-23.6
				H318C329.8,247.8,339.4,258.4,339.4,271.5L339.4,271.5z"/>
			<polygon class="st2" points="189.5,263.2 186.7,258.9 177.2,266.3 177.2,253.5 172.4,253.5 172.4,266.3 162.9,258.9 160.1,263.2 
				170.7,271.5 160.1,279.7 162.9,284 172.4,276.6 172.4,289.4 177.2,289.4 177.2,276.6 186.7,284 189.5,279.7 179,271.5 			"/>
			<polygon class="st2" points="224.2,263.2 221.4,258.9 211.9,266.3 211.9,253.5 207.1,253.5 207.1,266.3 197.6,258.9 194.8,263.2 
				205.3,271.5 194.8,279.7 197.6,284 207.1,276.6 207.1,289.4 211.9,289.4 211.9,276.6 221.4,284 224.2,279.7 213.6,271.5 			"/>
			<polygon class="st2" points="258.9,263.2 256.1,258.9 246.6,266.3 246.6,253.5 241.8,253.5 241.8,266.3 232.2,258.9 229.5,263.2 
				240,271.5 229.5,279.7 232.2,284 241.8,276.6 241.8,289.4 246.6,289.4 246.6,276.6 256.1,284 258.9,279.7 248.3,271.5 			"/>
			<polygon class="st2" points="293.5,263.2 290.7,258.9 281.2,266.3 281.2,253.5 276.4,253.5 276.4,266.3 266.9,258.9 264.1,263.2 
				274.7,271.5 264.1,279.7 266.9,284 276.4,276.6 276.4,289.4 281.2,289.4 281.2,276.6 290.7,284 293.5,279.7 283,271.5 			"/>
			<polygon class="st2" points="328.2,263.2 325.4,258.9 315.9,266.3 315.9,253.5 311.1,253.5 311.1,266.3 301.6,258.9 298.8,263.2 
				309.3,271.5 298.8,279.7 301.6,284 311.1,276.6 311.1,289.4 315.9,289.4 315.9,276.6 325.4,284 328.2,279.7 317.6,271.5 			"/>
		</g>
	</g>
</g>
<g>
	<g class="st0">
		<path d="M488.2,164c0,4.9-4,9-9,9h-70.5c-4.9,0-9-4-9-9V42.2c0-5,4-9,9-9h70.5c4.9,0,9,4,9,9V164z"/>
		<path d="M454.7,162.7c0,2.7-2.2,4.9-4.9,4.9h-11.6c-2.7,0-4.9-2.2-4.9-4.9l0,0c0-2.7,2.2-4.9,4.9-4.9h11.6
			C452.4,157.8,454.7,160,454.7,162.7L454.7,162.7z"/>
		<path d="M454.7,41.3c0,1.5-1.2,2.7-2.7,2.7h-16.1c-1.5,0-2.7-1.2-2.7-2.7l0,0c0-1.5,1.2-2.7,2.7-2.7H452
			C453.5,38.6,454.7,39.8,454.7,41.3L454.7,41.3z"/>
		<path d="M477.1,143.5c0,4.9-4,9-9,9h-48.4c-4.9,0-9-4-9-9V57.4c0-4.9,4-9,9-9h48.4c4.9,0,9,4,9,9V143.5z"/>
		<path d="M465.8,118c0,12-9.7,21.7-21.7,21.7l0,0c-12,0-21.7-9.7-21.7-21.7v-12.1c0-12,9.7-21.7,21.7-21.7l0,0
			c12,0,21.7,9.7,21.7,21.7V118z"/>
		<path class="st5" d="M447.8,126.5c-3.3,3.2-9.3-0.8-11.3-9.1c-1.7-7.4,2.2-15.6,4.8-18.2c2.1-2.1,7.1-0.9,9,5.7
			c1.4,4.7-0.9,13.2-2.6,14.9c-2.7,2.8-6.1-2.3-6.6-6.2c-0.4-3.1,1.1-7.3,2.1-8.4c0.9-0.8,3.8,2.1,2.8,6.8"/>
		<path class="st5" d="M438.5,94c-2,1.6-6.6,6.8-7,13.6"/>
		<path class="st5" d="M451.7,122.2c5.8-6.6,6.2-20.9-1.3-28.2"/>
		<path class="st5" d="M432,115.9c0,2.4,1.5,9.8,4.5,13.2"/>
	</g>
	<g>
		<g>
			<path class="st3" d="M482.8,158.7c0,4.9-4,9-9,9h-70.5c-4.9,0-9-4-9-9V36.9c0-5,4-9,9-9h70.5c4.9,0,9,4,9,9V158.7z"/>
			<path class="st1" d="M449.3,157.3c0,2.7-2.2,4.9-4.9,4.9h-11.6c-2.7,0-4.9-2.2-4.9-4.9l0,0c0-2.7,2.2-4.9,4.9-4.9h11.6
				C447.1,152.4,449.3,154.6,449.3,157.3L449.3,157.3z"/>
			<path class="st1" d="M449.3,36c0,1.5-1.2,2.7-2.7,2.7h-16.1c-1.5,0-2.7-1.2-2.7-2.7l0,0c0-1.5,1.2-2.7,2.7-2.7h16.1
				C448.1,33.3,449.3,34.5,449.3,36L449.3,36z"/>
			<path class="st2" d="M471.7,138.2c0,4.9-4,9-9,9h-48.4c-4.9,0-9-4-9-9V52.1c0-4.9,4-9,9-9h48.4c4.9,0,9,4,9,9V138.2z"/>
			<path class="st6" d="M460.5,112.6c0,12-9.7,21.7-21.7,21.7l0,0c-12,0-21.7-9.7-21.7-21.7v-12.1c0-12,9.7-21.7,21.7-21.7l0,0
				c12,0,21.7,9.7,21.7,21.7V112.6z"/>
			<g>
				<path class="st7" d="M442.4,121.1c-3.3,3.2-9.3-0.8-11.3-9.1c-1.7-7.4,2.2-15.6,4.8-18.2c2.1-2.1,7.1-0.9,9,5.7
					c1.4,4.7-0.9,13.2-2.6,14.9c-2.7,2.8-6.1-2.3-6.6-6.2c-0.4-3.1,1.1-7.3,2.1-8.4c0.9-0.8,3.8,2.1,2.8,6.8"/>
				<path class="st7" d="M433.1,88.6c-2,1.6-6.6,6.8-7,13.6"/>
				<path class="st7" d="M446.3,116.9c5.8-6.6,6.2-20.9-1.3-28.2"/>
				<path class="st7" d="M426.6,110.5c0,2.4,1.5,9.8,4.5,13.2"/>
			</g>
		</g>
	</g>
</g>
<g>
	<g class="st0">
		<path d="M411.3,245.9c0,4.9-3.9,8.8-8.8,8.8H277.3c-4.9,0-8.8-3.9-8.8-8.8v-70.7c0-4.9,3.9-8.8,8.8-8.8h125.2
			c4.9,0,8.8,3.9,8.8,8.8V245.9z"/>
		<rect x="268.4" y="185.2" width="142.8" height="21.3"/>
		<rect x="286.5" y="217.2" width="55.8" height="6.5"/>
		<rect x="286.5" y="230.9" width="27.9" height="6.5"/>
	</g>
	<g>
		<g>
			<path class="st4" d="M405.9,240.5c0,4.9-3.9,8.8-8.8,8.8H271.9c-4.9,0-8.8-3.9-8.8-8.8v-70.7c0-4.9,3.9-8.8,8.8-8.8h125.2
				c4.9,0,8.8,3.9,8.8,8.8V240.5z"/>
			<rect x="263.1" y="179.8" class="st8" width="142.8" height="21.3"/>
			<rect x="281.1" y="211.8" class="st1" width="55.8" height="6.5"/>
			<rect x="281.1" y="225.6" class="st1" width="27.9" height="6.5"/>
		</g>
	</g>
</g>
</svg>
