<?xml version="1.0" encoding="utf-8"?>
<!-- Generator: Adobe Illustrator 23.0.3, SVG Export Plug-In . SVG Version: 6.00 Build 0)  -->
<svg version="1.1" id="Layer_1" xmlns="http://www.w3.org/2000/svg" xmlns:xlink="http://www.w3.org/1999/xlink" x="0px" y="0px"
	 viewBox="0 0 393.5 510.3" style="enable-background:new 0 0 393.5 510.3;" xml:space="preserve">
<style type="text/css">
	.st0{fill:#3A5127;}
	.st1{fill:#605E7E;}
	.st2{fill:#E0A859;}
	.st3{fill:#FFFFFF;}
	.st4{fill:#DCA559;}
	.st5{fill:#DCA458;}
	.st6{fill:#575160;}
	.st7{fill:#474860;}
	.st8{fill:#C19158;}
	.st9{fill:#4A4960;}
	.st10{fill:#464760;}
	.st11{fill:#5A535F;}
	.st12{fill:#3E4360;}
	.st13{fill:#3F4460;}
	.st14{fill:#464860;}
	.st15{fill:#E0A757;}
	.st16{fill:#695F5C;}
	.st17{fill:#5A565E;}
	.st18{fill:#434760;}
	.st19{fill:#51515F;}
	.st20{opacity:0.71;fill:#595956;enable-background:new    ;}
	.st21{fill:#AEAEAE;}
	.st22{fill:#F7F7F8;}
	.st23{fill:#595956;}
	.st24{opacity:0.43;}
	.st25{fill:#FFFFFF;fill-opacity:0.36;}
	.st26{fill:#243761;}
	.st27{fill:#C7C4D2;}
	.st28{fill:#409958;}
	.st29{fill:#369972;}
	.st30{fill:#E0A758;}
	.st31{fill:#4D73B1;}
	.st32{fill:#DEA659;}
	.st33{fill:#D9A258;}
	.st34{fill:#3B4160;}
	.st35{fill:#3A4160;}
	.st36{fill:#B48859;}
	.st37{fill:#504F5F;}
	.st38{fill:#444660;}
	.st39{fill:#444661;}
	.st40{fill:#5A545F;}
	.st41{fill:#50515F;}
	.st42{fill:#5E585D;}
	.st43{fill:#57555E;}
	.st44{fill:#474A60;}
	.st45{fill:#060407;}
	.st46{fill:#F7F7F7;}
	.st47{font-family:'ArialMT';}
	.st48{font-size:12px;}
	.st49{font-family:'MyriadPro-Regular';}
	.st50{font-size:17.4323px;}
</style>
<title>smartphone</title>
<path class="st0" d="M63,198.4c-11.9,2.8-27.9-3.7-30.3-21.9c-1.9-14.7,7.6-26.3,19.6-28.5c0.3,0,0.6,0.1,0.7-0.3h3.9
	c0.6,0.3,1.2,0.3,1.8,0H59c0.9,0.6,1.9,0.5,2.9,0.8c9.4,2.8,15,9.4,17.6,19.3C83.2,181.6,76,195.3,63,198.4"/>
<path class="st1" d="M58.7,147.6c-0.5,0.5-1.3,0.5-1.8,0H58.7z"/>
<path class="st2" d="M56.1,195.8c-11.7,0-21.2-10.1-21.1-22.6c0.1-14.4,11.3-22.9,21.3-22.8c11.6,0.2,21.1,10.3,21.1,22.7
	S67.9,195.8,56.1,195.8z"/>
<path class="st3" d="M74.7,173.1c0,11-8.3,20-18.5,20s-18.6-9-18.6-19.9s8.3-20,18.5-20S74.7,162,74.7,173.1z"/>
<path class="st2" d="M56.1,191.9c-9.7,0-17.6-8.5-17.5-18.9s7.9-18.8,17.6-18.8c9.8,0,17.6,8.5,17.6,19.1
	C73.7,183.6,65.7,192,56.1,191.9z"/>
<path class="st3" d="M56.1,155.3c9.1,0,16.5,8.1,16.5,17.8s-7.5,17.9-16.6,17.8s-16.6-8.1-16.6-17.9S46.9,155.3,56.1,155.3z"/>
<path class="st2" d="M71.5,173c0,9.1-6.9,16.6-15.2,16.7c-8.9,0-15.8-7.2-15.8-16.4s6.7-16.8,15.2-16.8
	C64.6,156.4,71.5,163.6,71.5,173z"/>
<path class="st0" d="M57.8,178.6l-3.2-1.3l-4-1.6c-0.3-0.1-0.6-0.1-0.5-0.6s0.3-0.4,0.7-0.3c2.3,0.3,2.3,0.3,3-1.9s1.6-4.7,2.4-7
	c0.4-1.1,0.5-2.1-0.8-2.6c-0.3-0.1-0.6-0.3-0.5-0.7s0.5-0.3,0.9-0.2c1.2,0.3,2.5,0.5,3.8,0.7c1,0.1,1,0.4,0.7,1.3
	c-1.2,3.4-2.3,6.8-3.6,10.2c-0.5,1.4-0.4,2.4,1,3c0.3,0.1,0.7,0.3,0.6,0.8C58.3,178.6,58.1,178.6,57.8,178.6z"/>
<path class="st0" d="M66.8,174.7c0.9,0,1.6,0.8,1.6,1.7c0,0,0,0,0,0c-0.1,0.9-0.8,1.6-1.7,1.5c-0.9-0.1-1.6-0.8-1.5-1.7
	C65.2,175.3,66,174.6,66.8,174.7z"/>
<path class="st0" d="M46.2,171.1c-0.1,1-0.6,1.7-1.6,1.7c-0.8,0.1-1.6-0.5-1.7-1.3c0-0.1,0-0.3,0-0.4c-0.1-0.9,0.5-1.7,1.4-1.8
	c0,0,0.1,0,0.1,0C45.5,169.3,46.1,170,46.2,171.1z"/>
<path class="st4" d="M51.9,184.6c-0.7,0.1-1-0.6-1.5-0.9c-0.7-0.8-0.6-2,0.2-2.7c0.6-0.7,1.7-0.8,2.4-0.2c0,0.1,0,0.2,0,0.3
	C54.1,182.5,53.8,183.6,51.9,184.6z"/>
<path class="st0" d="M47.1,178.8c-0.7,0.7,0.1,1,0.4,1.4c0.4,0.5,1.2,0.9,0.8,1.8c-0.2,0.5-0.6,0.5-2,0.3c1.6-0.4,0.9-1,0.3-1.6
	s-1.5-1.1-0.4-2.1c0.3-0.1,0.5-0.1,0.8-0.1c0.1,0.1,0.1,0.1,0.1,0.2C47.1,178.7,47.1,178.8,47.1,178.8z"/>
<path class="st0" d="M56.9,186.5l-2.2-0.8c1-0.4,1.1-1.3,1.3-2.1c0.2-1.3,0.7-1.6,1.7-0.8C57.2,184,56.1,185.1,56.9,186.5
	L56.9,186.5z"/>
<path class="st0" d="M53,180.7c-2.5-0.1-2.8,0.1-2.6,2.9c-0.9-0.2-1.4-1.1-1.3-2c0.1-1,0.9-1.3,1.7-1.4l1-0.3
	c0.3-0.2,0.6-0.1,0.8,0.2L53,180.7z"/>
<path class="st0" d="M51.9,184.6c1.1-0.9,1.9-1.9,1.1-3.5c0.9,0.1,1.6,0.9,1.5,1.8c0,0,0,0.1,0,0.1c0,1-0.8,1.4-1.6,1.5
	C52.6,184.6,52.2,184.6,51.9,184.6z"/>
<path class="st5" d="M59.3,182.4c-0.9,0.6-1.2,0-1.5-0.7c-0.3-0.4-0.3-0.9,0.1-1.2c0,0,0,0,0,0c0.5-0.2,1.1-0.1,1.5,0.3
	C59.6,181.3,59.1,181.8,59.3,182.4z"/>
<path class="st6" d="M52.7,180.1c-0.3-0.1-0.6,0.1-0.8-0.2c0.1-0.2,0.2-0.4,0.3-0.7c0.3-1.5,1-1.5,2-0.7c-0.3,0.3-0.8,0.4-0.9,1
	C52.8,179.4,52.8,179.8,52.7,180.1z"/>
<path class="st7" d="M48.6,177.9c0,0.1,0,0.2,0,0.3c-0.1,0.2-0.4,0.2-0.6,0.1c-0.6-0.3-0.6-1.2-1.2-1.4c0-0.4-0.2-1,0.3-1.2
	s0.6,0.5,0.8,0.8s0.3,0.8,0.7,1C48.7,177.7,48.7,177.8,48.6,177.9C48.6,177.9,48.6,177.9,48.6,177.9z"/>
<path class="st8" d="M46.8,176.9c1.2-0.4,0.7,1,1.2,1.3c-0.1,0.7-0.6,0.5-1,0.4l-0.9-0.1C46.7,178.1,46.9,177.5,46.8,176.9z"/>
<path class="st9" d="M54.8,179.6c0.1-0.3-0.2-0.8,0.4-0.8s0.2,0.4,0.3,0.7s0,0.5,0.1,0.6c0.6,0.5,0.2,0.9-0.2,1s-0.4-0.4-0.5-0.7
	C54.8,180.2,54.8,179.9,54.8,179.6z"/>
<path class="st10" d="M49.9,178.9c-0.9-0.7-0.1-1.4-0.1-2.1c0-0.3,0.3-0.2,0.5-0.1s0.3,0.2,0.2,0.5
	C50.3,177.7,50.1,178.3,49.9,178.9z"/>
<path class="st11" d="M47.1,178.5c0.3-0.1,0.8,0.2,1-0.4h0.5c-0.4,0.6,0.9,1.1,0.1,1.8c-0.4-0.5-0.7-1.4-1.6-1.2
	C47.1,178.7,47.1,178.6,47.1,178.5z"/>
<path class="st12" d="M59.3,182.4c-0.2-0.1-0.7,0.2-0.4-0.4c0.2-0.3,0.3-0.7,0.3-1.2c-0.1-0.1-0.1-0.3,0-0.3c0,0,0,0,0,0
	C60.2,181.1,60,181.8,59.3,182.4z"/>
<path class="st13" d="M58.1,180.4c-0.3,0.3-0.4,0.8-0.3,1.2c-0.6,0.2-0.7-0.2-0.7-0.7c0-0.5,0.3-0.9,0.8-0.9c0.1,0,0.2,0,0.2,0
	c0.1,0,0.1,0.1,0.1,0.2C58.1,180.4,58.1,180.4,58.1,180.4z"/>
<path class="st14" d="M56.9,186.5c0.7,0,1.4-0.2,2-0.6C58.2,187.6,57.5,186.9,56.9,186.5L56.9,186.5z"/>
<path class="st15" d="M53.3,179.5c-0.5-1.2,0.3-0.9,0.9-1C54.2,179.2,53.7,179.3,53.3,179.5z"/>
<path class="st16" d="M58.1,180.4v-0.4c0.4-0.2,0.9,0,1.2,0.4l-0.1,0.4C58.9,180.5,58.5,180.3,58.1,180.4z"/>
<path class="st17" d="M48.6,177.9v-0.4c0.1-0.4-0.1-0.9,0.5-1.2C49.3,177,48.8,177.4,48.6,177.9z"/>
<path class="st18" d="M45.2,180.5c0.3,0.2,0.5,0.6,0.4,1c0,0.1-0.3,0.2-0.3,0.1C44.9,181.3,45,181,45.2,180.5z"/>
<path class="st19" d="M51.6,178.5c-0.1-0.6-0.2-1.1,0.2-1.2c0.5-0.1,0.3,0.3,0.2,0.6S51.8,178.2,51.6,178.5z"/>
<path class="st20" d="M97,0h188.2c13.1,0,23.7,10.6,23.7,23.7v462c0,13.1-10.6,23.7-23.7,23.7H97c-13.1,0-23.7-10.6-23.7-23.7v-462
	C73.3,10.6,83.9,0,97,0z"/>
<path class="st21" d="M97.1,0.9h187.2c13.4,0,24.2,10.8,24.2,24.2v460.9c0,13.4-10.8,24.2-24.2,24.2H97.1
	c-13.4,0-24.2-10.8-24.2-24.2V25.1C72.9,11.8,83.8,0.9,97.1,0.9z"/>
<path class="st22" d="M104.1,10.1h174.1c12.7,0,23,10.3,23,23v447.2c0,12.7-10.3,23-23,23H104.1c-12.7,0-23-10.3-23-23V33.1
	C81.1,20.4,91.4,10.1,104.1,10.1z"/>
<path class="st23" d="M310.3,49.2h0.3c0.7,0,1.3,0.6,1.3,1.3v19.9c0,0.7-0.6,1.3-1.3,1.3h-0.3c-0.7,0-1.3-0.6-1.3-1.3V50.5
	C309.1,49.8,309.6,49.2,310.3,49.2z"/>
<path class="st23" d="M310.3,74.3h0.3c0.7,0,1.3,0.6,1.3,1.3v19.9c0,0.7-0.6,1.3-1.3,1.3h-0.3c-0.7,0-1.3-0.6-1.3-1.3V75.6
	C309.1,74.9,309.6,74.3,310.3,74.3z"/>
<path class="st23" d="M310.3,109.5h0.3c0.7,0,1.3,0.6,1.3,1.3v10.9c0,0.7-0.6,1.3-1.3,1.3h-0.3c-0.7,0-1.3-0.6-1.3-1.3v-10.9
	C309.1,110.1,309.6,109.5,310.3,109.5z"/>
<ellipse class="st23" cx="106.1" cy="29.5" rx="4.9" ry="5.7"/>
<g class="st24">
	<path class="st25" d="M105.7,24c2.4-0.5,4.8,2.5,3.5,4.8s-4.6,1.1-4.2,4.2c0.4,3.1-3.7-2.3-3.3-4C102,27.3,103.3,24.5,105.7,24z"/>
</g>
<path class="st26" d="M79.4,255.7"/>
<path class="st27" d="M0,291.3c0.1,0,0.2,0,0.3,0c0.7,1.1,0.7,2.5,0,3.5H0.1H0L0,291.3z"/>
<path class="st0" d="M159.4,250.4c0-3.2,0.1-6.2,0-9.2c-0.2-9.3,5.6-15.8,14.4-15.9c19.1-0.1,38.3-0.2,57.4-0.4
	c11.9-0.1,23.8-0.2,35.7-0.3c13.3-0.1,26.6-0.3,39.9-0.4c11.1-0.1,22.2-0.3,33.4-0.4c12.8-0.1,25.5-0.2,38.3-0.2c8.2,0,14,6.2,14,15
	c0.1,14.9,0.2,29.8,0.3,44.7c0.1,13.4,0.2,26.8,0.3,40.3l0.3,40.6c0,6.3,0.2,12.5,0.2,18.8c0,8.5-5.8,14.9-13.8,15
	c-14.5,0.1-29.1,0.2-43.6,0.3c-12.8,0.1-25.7,0.2-38.6,0.3l-35,0.3l-40.6,0.3c-12.4,0.1-24.8,0.2-37.2,0.3
	c-4.1,0.2-8.3,0.2-12.4-0.1c-6.5-0.7-11.6-6.9-11.7-13.8c0-2,0-2-1.9-1.5c-10.7,2.5-21.3,1.9-32-1c-8-2.1-15.7-4.9-22.6-9.8
	c-16.4-11.7-26.4-28-28.9-49c-4.3-35.6,17.3-68.4,49.9-76c11-2.6,22.4-2,33.1,1.6L159.4,250.4z"/>
<path class="st0" d="M0.3,294.8v-3.5c1-18.9,15.6-33.2,33.2-32.6c4.6,0.1,9.2,1.4,13.2,3.6c9.6,5.2,16.1,13.2,18.7,24.5
	c3.4,14.7-3.9,30.5-16.8,36.6c-5.4,2.6-11.1,4.4-17.2,4.2c-14.6-0.4-27.6-12-30.5-27.3C0.6,298.5,0.3,296.6,0.3,294.8z"/>
<path class="st28" d="M294.1,228.5c13.2-0.5,26.4-0.1,39.6-0.4c13-0.3,26-0.1,39-0.3c2.4,0,4.8-0.4,7.2,0c5.4,1,8.8,5.2,8.8,11.1
	c0,8.9,0,17.8,0.1,26.7c0.2,16,0.1,32,0.3,48.1c0.2,13.4,0,26.8,0.3,40.3c0.2,9.8,0.1,19.6,0.2,29.4c0,5.4-3.7,9.9-8.7,10.4
	c-6.3,0.6-12.6,0.2-19,0.3c-5.5,0.1-11-0.1-16.5,0.1c-12.8,0.4-25.5,0-38.3,0.3c-12.5,0.3-24.9,0-37.4,0.3
	c-12.8,0.4-25.6,0-38.4,0.3c-12,0.3-24,0-36,0.3c-7.2,0.2-14.4,0.2-21.6,0.2c-0.6,0-1.2,0.2-1.7-0.3c0.6-0.7,1.5-0.5,2.3-0.5
	c4.7,0,9.4,0,14.1,0c2.2,0,2.4,0,2.2-2.5c-0.3-6.6-0.3-13.2-0.3-19.8c-0.1-1.9,0.2-3.8,0.9-5.5c0.6-0.4,1.4-0.5,2.1-0.4
	c6.6,0,13.2-0.5,19.9-0.3c0.8,0,1.7,0.2,2.1-0.8c0.4-1.2,0.4-2.4-0.1-3.6c-0.2-0.5-0.8-0.6-1.3-0.6c-1.1-0.1-2.2-0.1-3.3,0
	c-5.3,0.6-10.6,0.2-15.9,0.3c-0.6,0.1-1.2-0.1-1.7-0.5l4.3-6.4c1.2-1.8,2.7-3.4,4.4-4.8c0.7-0.7,1.7-1,2.7-1c2,0,4.1,0.3,6.1-0.2
	c1.3-0.1,2.5-0.2,3.8-0.1c0.8,0.1,1.5-0.5,1.6-1.3c0-0.2,0-0.3,0-0.5c0.1-1.1,0-2.3-0.4-3.4c-0.4-1,0.3-1.2,0.9-1.4
	c3.1-1,6.2-1.6,9.5-1.8c3.5-0.3,7-0.2,10.3-1.7c3.8-1.5,6.5-4.8,7.2-8.8c0.1-0.7,0-1.5,0.7-2c0.5-0.2,1-0.3,1.5-0.3
	c3.3,0.2,6.5-0.4,9.8-0.4c1.9,0,2.1-0.3,2.1-2.3c0-1.2,0-2.3,0-3.5c-0.1-1.6-0.4-2-2-2.1c-2.4-0.1-4.8,0-7.3,0c-0.7,0.1-1.4,0-2-0.3
	c-0.6-1,0.1-1.7,0.5-2.4c2.3-4.2,5.7-7.7,9.8-10.2c5.9-3.8,12.8-5.8,19.8-5.9c5.7-0.1,10.9-1.8,14.9-6.6c1.9-2.2,2.9-5.1,2.8-8
	c-0.4-12.3,0-24.6-0.3-36.9c-0.2-6-0.1-12.1-0.2-18.1C293.6,229.9,293.7,229.2,294.1,228.5z"/>
<path class="st29" d="M294.1,228.5c0,3.4-0.1,6.8,0,10.2c0.4,12.9,0.2,25.8,0.3,38.8c0,2.5,0.2,5.1,0.2,7.6c0.1,6-2.8,9.9-7.3,12.8
	c-3.6,2.3-7.5,2.8-11.6,3c-9.6,0.1-18.7,4.2-25.2,11.3c-1.8,1.9-3.2,4.1-4.2,6.5c-0.6,0.9-1.6,0.8-2.4,0.8c-4.4,0-8.9,0-13.3,0
	c-2.5,0-2.8,0.3-2.8,3c0,0.8,0,1.6,0,2.4c0.1,2.2,0.4,2.5,2.4,2.5c4,0,8,0,12,0c0.7,0,1.5-0.1,2.1,0.5c0,4.8-3,9.2-7.5,11
	c-3.4,1.4-6.9,1.5-10.4,1.7c-3.4,0.3-6.8,1-10.1,2c-0.4,0.1-0.2,0.4-0.1,0.6c-0.4,0.4-1,0.6-1.6,0.5c-3.3,0-6.7,0-10.1,0
	c-0.6,0.1-1.1-0.1-1.5-0.5c1.6-4.6,2.7-9.3,3.4-14c0.1-1,0.7-1,1.3-1l11.7-0.1c2.7,0,2.9-0.3,2.8-3.1c-0.1-1.3,0-2.5,0-3.8
	c0-1.8-0.3-2.2-2-2.1c-3.8,0-7.7,0.1-11.5,0.3c-1.3,0.1-1.7-0.3-1.7-1.7c0.2-4.8-0.8-9.5-1.5-14.3c0.9-0.8,1.9-0.7,3-0.7h18.7
	c0.7,0,1.4,0,2.1-0.1c1.3-0.3,2.3-1.4,2.3-2.8c0.1-2.5,0-5.1,0-7.6c0.1-0.6-0.3-1.2-0.9-1.3c-0.1,0-0.2,0-0.3,0
	c-3.2-0.2-6.4,0.4-9.6,0.4c-0.9,0-1.1,0.7-1.4,1.4c-1.1,2.5-3.2,4.4-5.9,5.1c-3.7,0.9-7.4-0.9-9.2-4.2c-0.5-1.2-1.6-2.1-2.8-2.5
	c-0.7-1.4-1.3-2.8-2-4.1c0.6-0.7,1.4-0.5,2.1-0.5c0.9,0.1,1.8-0.5,2.1-1.4c1.6-3.5,4.2-5.5,7.9-5.6s6.1,2,7.7,5.3
	c0.3,0.8,1.1,1.4,2,1.3c3.1,0,6.1-0.5,9.2-0.4c0.9,0,1.2-0.5,1.2-1.4c0-1.7,0.1-3.4,0-5.1c-0.1-2.5-1.2-3.7-3.5-3.7
	c-6.6,0.1-13.2-0.3-19.9,0.2c-3.4,0.3-6.8,0.1-10.2,0.1c-1.7-0.1-3.5,0-5.1,0.5c-2.6-3.1-5.5-6.1-8.3-9.1
	c-5.6-6.1-12.4-11.1-19.9-14.6c-0.7-0.2-1.2-0.9-1.1-1.6c0-3.9-0.1-7.9,0-11.8c0.1-5.2,4.2-9.5,9.5-9.8c16.2-0.3,32.4-0.1,48.6-0.4
	c12.6-0.2,25.2,0.1,37.8-0.3c11.1-0.3,22.1,0,33.2-0.3C292.9,228.5,293.5,228.5,294.1,228.5z"/>
<path class="st30" d="M138.7,380.2c-32.8,0.4-60.5-28.6-60.5-64.7c0-34.5,25.9-64.5,60.3-64.6c34.1-0.1,60.9,29.6,60.5,65.4
	C198.7,352.6,170.8,380.5,138.7,380.2z"/>
<path class="st29" d="M191.5,367c-1.1,5.3-0.5,10.6-0.6,16c-0.1,3.6,0.4,7.2,0.3,10.8c0,1.3-0.3,1.7-1.6,1.7c-5.8-0.1-11.7,0-17.5,0
	c-3.6-0.5-7-4.1-7.7-8.2c-0.7-4.4-0.7-4.4,3.1-6c8.4-3.5,15.9-8.9,22-15.7c0.3-0.4,0.7-0.7,1.1-1.1C191,365.3,191.3,366.1,191.5,367
	z"/>
<path class="st2" d="M192.5,276.3c0.5-0.7,1.4-1.1,2.2-1l33.3-0.3c1.9-0.1,3.5,1.3,3.6,3.2c0,0.1,0,0.3,0,0.4c0.1,2.2,0,4.4,0.1,6.5
	c0,0.9-0.3,1-1,1c-3.5,0.1-7,0.2-10.5,0.3c-0.7,0-1.1-0.2-1.4-1c-1.1-3.3-4.2-5.6-7.7-5.6c-3.5,0.1-6.3,2.2-7.6,5.9
	c-0.3,0.7-0.5,1-1.3,1c-1,0-2.1,0-3.1,0C197.3,283.1,195.1,279.6,192.5,276.3z"/>
<path class="st2" d="M201.2,291c1.4-0.3,2.2,0.1,2.9,1.7c1.1,3,4.1,5,7.4,4.8c3.4,0,6.3-2.2,7.3-5.4c0.2-0.9,1-1.6,2-1.5
	c3.3,0,6.6-0.1,9.9-0.2c0.8,0,1.1,0.2,1.1,1.1c0,2.7,0,5.4,0,8.1c0.1,1.8-1.3,3.4-3.2,3.5c0,0-0.1,0-0.1,0c-1.7,0-3.4,0-5,0
	l-16.3,0.1c-0.6,0-1.3,0.1-1.9,0.1C204.2,299.1,202.8,295,201.2,291z"/>
<path class="st2" d="M191.5,367c-0.7-0.6-1.1-1.5-0.9-2.5l2.7-3.4c6.8-0.1,13.6-0.2,20.4-0.2c2.3,0,2.5,0.1,2.5,2.6
	c0,3.4,0,3.3-3.2,3.4c-6.6,0.1-13.1,0.2-19.7,0.3C192.7,367,192.1,367,191.5,367z"/>
<path class="st3" d="M202.8,343.3l13.3-0.1c0.6,0.8,0.9,4.4,0.5,5.1c-0.3,0.5-0.9,0.7-1.4,0.7c-1.5,0-2.9,0-4.4,0.1
	c-1.9,0.2-3.7,0-5.6,0.1c-0.9,0-1.9,0-2.8,0.2c-0.7,0.3-1.5,0.1-1.8-0.6L202.8,343.3z"/>
<path class="st31" d="M200.6,348.7c0.8,0.6,1.7,0.3,2.5,0.3c2.5,0,5.1,0,7.6,0c-2.1,0.6-4.2,0.2-6.3,0.2c-0.8,0-1.5,0.3-2.1,0.8
	c-1.7,1.4-3.1,3.1-4.8,4.6L200.6,348.7z"/>
<path class="st2" d="M32.2,323.4C16.7,323.4,4,309.8,4,293.1s12.8-30.6,28.7-30.4c15.4,0.3,28.3,12.6,28.3,30.4
	C61,310.4,48.2,323.4,32.2,323.4z"/>
<path class="st2" d="M360.6,349.5c6.9,0,12.2,5.7,12.2,13s-5.4,13.1-12,13.1c-6.9,0-12.3-5.8-12.3-13.1S353.9,349.5,360.6,349.5z"/>
<path class="st3" d="M327.5,361.8c0.1-3.7,2.5-7.6,7-9.9c4-2.2,8.9-1.8,12.5,1c0.6,0.4,0.8,0.7,0.2,1.4c-4.2,5.8-4,12.4,0.7,17.6
	c0.9,0.9,0.4,1.3-0.3,1.8c-4,3.5-9.9,3.9-14.3,0.9C329.3,371.8,327.5,368.3,327.5,361.8z"/>
<path class="st0" d="M244.2,327.9c-5,0-10,0-14.9,0c-1.4,0-1.9-0.7-1.9-2c0-1.6,0-3.3,0-4.9c0-1.5,0.5-2.1,2-2.1c4.9,0,9.9,0,14.8,0
	c0.7,0,1.5-0.1,2.2-0.3h9.8c1.7,0,2.1,0.4,2.1,2.3c0,1.6,0,3.2,0,4.8s-0.5,2-1.9,2C252.3,327.7,248.3,327.8,244.2,327.9z"/>
<path class="st0" d="M271.7,327.6c-2.4,0-4.9,0-7.3,0c-1.2,0-1.7-0.6-1.8-1.8c0-1.8,0-3.6,0-5.4c0-1.3,0.6-1.8,1.7-1.8s2.1,0,3.1,0
	l23.5-0.3c1.8,0,2.1,0.3,2.1,2.3c0,1.5,0,3.1,0,4.6s-0.5,2.1-1.8,2s-2.6,0-3.9,0h-15.8L271.7,327.6z"/>
<path class="st0" d="M315.6,318c3.6,0,7.1,0,10.7,0c1.2,0,1.6,0.4,1.7,1.7c0.1,1.8,0.1,3.5,0.2,5.2c0,1.4-0.6,2-1.9,2
	c-3.2,0-6.3,0-9.5,0c-5.7,0.1-11.4,0.2-17,0.3c-1.7,0-2.1-0.4-2.1-2.2c0-1.6,0-3.3,0-4.9c0-1.3,0.5-1.8,1.7-1.8c5.4,0,10.9,0,16.3,0
	L315.6,318z"/>
<path class="st3" d="M229.9,342.5c5.8,0,11.7,0,17.5,0c1.9,0,2.2,0.2,2.2,2.2c0,3.6,0,3.6-3.4,3.6c-6.7,0-13.3,0.1-20,0.2
	c-2.2,0-2.4-0.2-2.4-2.5c0-0.5,0-1,0-1.4c-0.1-1.3,0.5-2,1.8-1.9c1.5,0.1,3,0,4.4,0L229.9,342.5z"/>
<path class="st3" d="M269.5,342.5c3.3,0,6.6,0,9.9,0c1.3,0,1.9,0.5,1.9,2c0.1,3.9,0.1,3.9-3.5,3.9c-6.7,0.1-13.3,0.1-20,0.2
	c-1.7,0-1.9-0.2-2-2.1c-0.2-3.6-0.2-3.7,3-3.8c3.5-0.1,7.1,0,10.7,0L269.5,342.5z"/>
<path class="st3" d="M348.9,243.2c7,0.5,14,1,21,1.5c1.3,0.1,1.7,0.8,1.7,2c-0.2,3.9-0.2,4-3.7,3.7c-6.7-0.5-13.4-1-20.1-1.5
	c-1.7-0.1-2-0.5-1.8-2.3c0-0.3,0-0.5,0.1-0.8C346.2,243.1,346.2,243.1,348.9,243.2z"/>
<path class="st3" d="M222.2,254.4h-30.3c-1.6,0-2.2-0.6-2.2-2.4c0-1.1,0-2.2,0-3.3c0-1.4,0.6-2.1,1.9-2.1c5.5-0.1,11-0.2,16.5-0.2
	l42.3-0.4c9.7-0.1,19.4-0.2,29.1-0.3c1.4,0,2.8-0.1,4.1-0.1s2,0.6,2.1,2.2c0,1.2,0.1,2.3,0.1,3.5c0,1.6-0.6,2.2-2.1,2.2l-10.5,0.1
	c-10.3,0.1-20.7,0.2-31,0.3c-6.6,0.1-13.2,0-19.9,0L222.2,254.4z"/>
<path class="st2" d="M211.3,293.4c-2.6-0.2-4.5-2.6-4.3-5.2c0.2-2.3,2-4.1,4.3-4.3c2.5,0.2,4.5,2.3,4.5,4.8
	C215.6,291.3,213.5,293.5,211.3,293.4z"/>
<path class="st3" d="M138.8,370.6c-28.6,0-51.6-24.7-51.6-55.1c0.1-31.4,24.4-55.5,52.3-55c26.4,0.4,50.7,23.3,50.6,55.2
	C190.1,347.1,166.2,370.8,138.8,370.6z"/>
<path class="st3" d="M32.3,319.7c-13.7,0-24.8-11.9-24.8-26.6c0-14.9,11.2-26.8,25.3-26.6c13.1,0.2,24.7,10.9,24.8,26.7
	C57.6,307.8,46.2,319.7,32.3,319.7z"/>
<path class="st2" d="M187.6,315.6c0.2,27.4-20.5,52.3-49.1,52.4c-26.9,0-48.9-23.6-48.7-52.8s22.5-52.1,49.3-52
	S187.6,286.8,187.6,315.6z"/>
<path class="st2" d="M8.6,293.1c0-14.1,10.7-25.8,23.8-25.6c12.8,0.2,24.1,10.8,24.1,25.8c-0.1,14.5-11.3,25.4-24.2,25.4
	S8.6,307.2,8.6,293.1z"/>
<path class="st3" d="M138.1,364.6c-25.6,0.3-46.3-22.8-45.9-50c0.4-26.2,20.8-48.1,45.7-48.2c26.5-0.1,46.6,23.1,46.1,50.1
	C183.5,343.4,162.8,364.9,138.1,364.6z"/>
<path class="st3" d="M32.1,316.9c-12.3,0-22.1-10.5-22.1-23.7s9.9-23.9,22.1-23.8c11.8,0.2,22.4,9.8,22.4,23.9
	C54.6,306.3,44.4,316.9,32.1,316.9z"/>
<path class="st30" d="M137.9,362c-23.9,0-43.3-21-43.1-47c0.2-26.2,20.7-46.2,44.1-45.8c22.3,0.4,42.6,19.6,42.7,46.4
	C181.5,341.6,161.7,362.1,137.9,362z"/>
<path class="st2" d="M32.1,270.5c10.7-0.2,21.5,9.6,21.4,22.7c-0.1,12.7-10.3,22.6-21.5,22.6c-11.6,0-21.1-10.2-21.1-22.7
	S20.4,270.5,32.1,270.5z"/>
<path class="st0" d="M142.5,303.7v15.4c0,4.9,0.8,5.7,5.3,5.9c0.8,0,1.6-0.1,1.5,1.3c0,1-0.3,1.3-1.2,1.3c-6.6,0-13.1,0-19.7,0
	c-0.8,0-1.3,0-1.3-1.1s0.2-1.6,1.3-1.4c0.1,0,0.2,0,0.3,0c4.5-0.3,5.3-1.1,5.3-6v-23.2c0-3.6-0.4-4-3.7-4.6
	c-0.6-0.1-1.5,0.1-1.8-0.7c-0.4-0.7-0.1-1.5,0.5-1.9c0.2-0.1,0.5-0.2,0.7-0.2c3.9-0.5,7.8-1.5,11.5-2.8c1-0.4,1.3-0.2,1.3,1
	C142.5,292.3,142.5,298,142.5,303.7z"/>
<path class="st0" d="M164.9,317.7c-0.2-2.5,1.7-4.7,4.2-4.8c0.1,0,0.2,0,0.3,0c2.5,0,4.6,2.1,4.5,4.7c0,0,0,0.1,0,0.1
	c0.1,2.6-1.9,4.8-4.5,4.9c-2.5,0-4.5-2.1-4.5-4.7C164.9,317.8,164.9,317.7,164.9,317.7z"/>
<path class="st0" d="M110.5,317.6c0.2,2.5-1.8,4.7-4.3,4.8c-0.1,0-0.1,0-0.2,0c-2.6-0.1-4.6-2.3-4.5-4.8c-0.1-2.5,1.9-4.7,4.4-4.8
	c0,0,0.1,0,0.1,0c2.5,0,4.5,2.1,4.5,4.5C110.5,317.4,110.5,317.5,110.5,317.6z"/>
<path class="st0" d="M137.7,337.7c1.8,0,3.5,0.5,4.9,1.5c2.1,1.6,2.6,4.5,1,6.6c-0.3,0.4-0.6,0.7-0.9,0.9c-2.7,2-6.2,2.3-9.2,0.7
	c-1.8-0.8-3-2.6-2.9-4.6c0.1-1.9,1.2-3.6,3-4.4C134.8,337.9,136.3,337.7,137.7,337.7z"/>
<path class="st0" d="M124,348.6l-1.9-0.3c-1.2-0.2-2.1-1.3-1.9-2.5c0,0,0-0.1,0-0.1c0-0.2,0.1-0.4,0.3-0.5s0.4,0.1,0.6,0.4
	c0.5,1.1,1.4,1.9,2.6,2.2c1,0.2,2.1,0.2,2.5-1s-0.5-1.8-1.4-2.3c-1-0.6-2.2-1-3.2-1.7c-1.2-0.7-1.5-2.2-0.9-3.3
	c0.2-0.4,0.6-0.7,1-0.9c1.8-1.1,3.7-1,5.6-0.6c0.5,0.1,1.1,1.9,0.7,2.3s-0.6,0-0.9-0.3c-0.5-1.1-1.8-1.8-3-1.5
	c-0.7,0.1-1.3,0.6-1.4,1.2c-0.1,0.6,0.2,1.3,0.8,1.5c1,0.5,2.1,1,3.1,1.5s2,1.2,2,2.7c-0.1,1.3-1,2.3-2.2,2.7
	C125.8,348.3,124.9,348.5,124,348.6z"/>
<path class="st0" d="M146.1,348.2c2.4-0.4,1.9-2.3,1.9-3.9c0-1.1,0-2.2,0-3.3c0-1.9-0.1-2-1.9-2.8h6.2c-2.1,0.3-1.6,2.1-1.6,3.5
	s0,3.1,0,4.6c0,1,0.4,1.3,1.2,1.4c1.5,0.3,3-0.4,3.7-1.7c0.2-0.3,0.4-0.7,0.8-0.5s0.1,0.6,0,1c-0.3,1.3-0.8,2.1-2.3,1.9
	c-2.3-0.2-4.5,0-6.8-0.1C147,348.3,146.5,348.3,146.1,348.2z"/>
<path class="st0" d="M119.7,336.5c1.2-1.3,1.2-4.8,0-6c2.9-0.6,3.5,2.7,5.4,3.6c0.3-2.4,0.3-2.7-0.7-3.6h2.2c-1.3,1-0.6,2.4-0.8,3.7
	c-0.1,0.8,0.4,1.9-0.3,2.2s-1.1-0.8-1.6-1.3c-0.9-0.9-1.9-1.8-2.9-2.8c0.2,1.5-0.6,3,0.8,4.2H119.7z"/>
<path class="st0" d="M135.1,336.5c1.1-0.9,1.2-4.5,0.4-6.1c1.2,0,2.4,0.1,3.6,0s1.2,0.4,0.9,1.6c-0.6-1.1-1.5-1.6-2.3-1
	c-0.5,0.6-0.5,1.4,0,2c0.6,0.6,1.3,0,1.9-0.6c0.2,0.6,0.2,1.2,0,1.8c-0.6-0.4-1.4-1.1-2-0.3c-0.3,0.5-0.5,1.6,0.2,2
	c1,0.6,1.9,0.3,2.8-1.2c0.1,1.3,0,1.9-1,1.8C138.1,336.4,136.7,336.5,135.1,336.5z"/>
<path class="st0" d="M145.9,333.6c-0.1,0.3-0.2,0.7-0.4,1c-0.4,0.6-0.3,1.9-1.1,1.8s-0.8-1.2-1.1-1.9c-0.5-1.5-1.4-2.9-2.5-4h2.9
	c-0.5,1.6,0.9,2.7,1,4.1c0.7-0.3,0.6-1,1-1.3C145.8,333.4,145.9,333.5,145.9,333.6z"/>
<path class="st0" d="M132.7,336.1c-2.7,1.3-4.2,0.2-4.3-2.9c0-1,0.4-2-0.8-2.8h2.8c-0.8,1.4-0.9,3.1-0.4,4.6
	c0.6,1.1,1.5,0.7,2.4,0.7C132.6,335.7,132.7,335.9,132.7,336.1z"/>
<path class="st0" d="M152.8,336.4c-0.5,0.1-1.1,0.1-1.6,0.1c-1.7,0-3-1.4-2.9-3.1c0-0.1,0-0.1,0-0.2c0.1-1.7,1.2-2.8,3.1-2.9
	c0.1,0.1,0.1,0.3,0,0.4c-0.5,0.5-0.8,1-1.1,1.6c-0.4,1.8,0.3,3,2.2,3.4C152.7,336,152.9,336.2,152.8,336.4z"/>
<path class="st0" d="M152.8,336.4l-0.3-0.3c-0.1-0.1-0.1-0.3,0-0.5c1.1-2.8,1-3.3-1.2-5v-0.2c2-0.2,3.4,0.7,3.8,2.4
	S154.6,335.7,152.8,336.4z"/>
<path class="st0" d="M132.7,336.1l-0.3-0.3c1.3-1.8,1.3-4.4-0.2-5.4h2.3c-1,0.8-0.8,1.9-0.8,2.9S133.8,335.5,132.7,336.1z"/>
<path class="st0" d="M146.1,332.4c0.1-0.6,0.8-1.4-0.7-1.9h2.5c-0.9,0.4-1.1,1.5-1.6,2.2C146.2,332.6,146.1,332.5,146.1,332.4z"/>
<path class="st0" d="M146.1,332.4l0.2,0.3l-0.4,0.9l-0.2-0.3L146.1,332.4z"/>
<path class="st0" d="M27.2,286.3c-0.4,0-1.3,0.9-1.6-0.1c-0.2-0.8,0.9-0.9,1.4-1.3c1-0.8,2.2-1.5,3.2-2.3c0.7-0.6,1-0.5,1.3,0.4
	c1.3,3.7,2.8,7.4,4.2,11c0.8,2.2,0.9,2.3,3,1.6c0.4-0.1,0.9-0.5,1.1,0.2s-0.4,0.6-0.7,0.8c-2.7,1.2-5.4,2.4-8.1,3.5
	c-0.3,0.1-0.7,0.5-0.9,0s0.1-0.7,0.4-1c2.2-1.4,2.2-1.4,1.2-3.9s-2-5.2-3-7.8C28.5,286.8,28.2,286.1,27.2,286.3z"/>
<path class="st0" d="M47,292c-1.3-0.1-2.3-1.2-2.2-2.5c0.1-1.2,1-2.1,2.2-2.2c1.3-0.1,2.4,0.9,2.5,2.2s-0.9,2.4-2.2,2.5
	C47.2,292,47.1,292,47,292z"/>
<path class="st0" d="M19.6,298.7c0,1.2-1,2.3-2.2,2.3c-1.3-0.1-2.3-1.2-2.2-2.5c0-1.2,0.9-2.2,2.1-2.2c0,0,0,0,0.1,0
	c1.2,0,2.2,0.9,2.2,2.1C19.6,298.5,19.6,298.6,19.6,298.7z"/>
<path class="st32" d="M38.6,305.5c-0.5,0.2-0.9,0.9-1.6,0.5c-0.9,0.5-1.6,0-2.1-0.8s-0.5-1.5,0.3-2c-0.1-0.5,0.3-0.5,0.6-0.6
	c0.5-0.6,1.2-0.4,1.8-0.4C39,303.1,39.2,303.8,38.6,305.5z"/>
<path class="st0" d="M43.3,303.6l-1.8,0.8c0.4-1.6-0.3-2.7-1.1-3.8c1-0.9,1.7-1,2,0.7c0.2,0.6,0.4,1.2,0.6,1.8
	C43.2,303.3,43.5,303.3,43.3,303.6z"/>
<path class="st0" d="M32.8,307.9c-0.7-1.7-2.1-0.6-3.1-1c-0.4-0.1-0.6-0.5-0.5-0.8c0.1-0.3,0.2-0.6,0.4-0.8c0.6-0.5,0.4,0.3,0.6,0.4
	c0.7,0.6,1.5,0.1,2.3,0.2c0.4,0,0.8,0.2,1,0.5c0.2,0.3,0.1,0.7-0.2,1C33.1,307.6,33,307.7,32.8,307.9z"/>
<path class="st0" d="M35.3,303.1c-0.5,1.8,0,2.6,1.7,2.9c-1.1,0.8-2.5,0.7-3-0.3s-0.1-1.9,0.6-2.6C34.8,302.8,35.1,303,35.3,303.1z"
	/>
<path class="st0" d="M38.6,305.5c0-1.1,0.2-2.3-0.9-3c-0.1-0.3-0.7,0-0.6-0.6c0.1,0,0.2,0,0.3-0.1c1-0.1,2.1-0.1,2.5,1.2
	C40.1,304,39.6,305,38.6,305.5z"/>
<path class="st33" d="M40.7,297.3c0.3-0.2,0.4-0.7,0.8-0.6c0.9,0.4,1.8,0.8,1,2.1c-0.2,0.5-0.7,0.1-0.9,0.4
	C41,298.8,40,298.5,40.7,297.3z"/>
<path class="st0" d="M36.2,300.3c-0.2,0.3-0.8,0.4-0.3,1.1c0.3,0.4-0.2,0.5-0.4,0.6c-0.6,0.3-0.3-0.3-0.3-0.5
	c-0.1-0.3-0.2-0.6-0.3-0.9c-0.7-0.9-0.1-1.1,0.6-1.3C35.7,299.6,36,299.9,36.2,300.3z"/>
<path class="st0" d="M30.5,303.1c0.5,1,0.1,1.1-0.7,0.9c-0.5-0.1-1.1-1.3-1.6,0l0,0l-0.8-1.1c0.9-0.5,1.6,0.1,2.3,0.3
	C30,303.3,30.2,302.9,30.5,303.1z"/>
<path class="st0" d="M33.4,302.8c-1.8,0.9-1.9-0.5-2.3-1.3c-0.3-0.5,0.3-0.4,0.5-0.5s0.3-0.1,0.4,0.3
	C32.1,302,32.3,302.8,33.4,302.8z"/>
<path class="st12" d="M42.5,298.8c0.4-1.1-0.3-1.6-1-2.1c0.7-0.1,1.4-0.2,1.7,0.7S43.1,298.6,42.5,298.8z"/>
<path class="st34" d="M39.2,300.3c-1.1,0.4-1.3-1.1-2.4-1.2c1.2-1,1.5,0.2,2.1,0.5C39.1,299.7,39.4,299.9,39.2,300.3z"/>
<path class="st35" d="M40.7,297.3c0,0.7,0.3,1.4,0.9,1.9c-0.5,0.3-1.1,0.1-1.4-0.4c0-0.1-0.1-0.1-0.1-0.2
	C39.9,298.1,40.1,297.6,40.7,297.3C40.7,297.3,40.7,297.3,40.7,297.3z"/>
<path class="st36" d="M36.2,300.3c-0.8,0.2-1-0.2-0.8-1c0.3-0.3,0.7-0.3,1.1-0.1c0,0,0,0,0.1,0.1c0.2,0.3,0.2,0.7-0.1,0.9
	C36.3,300.2,36.2,300.2,36.2,300.3z"/>
<path class="st37" d="M39.2,300.3l-0.3-0.7c0.8-0.4-0.4-1.6,0.9-1.9C39.3,298.6,39.7,299.5,39.2,300.3z"/>
<path class="st38" d="M29.7,308.1c0.7,0,1.2,0.5,1.8,0.4C30.9,308.9,30.2,309.5,29.7,308.1z"/>
<path class="st39" d="M44.9,302.8c0-0.6,0.3-1.1,0.7-1.5C45.6,302.2,45.9,302.8,44.9,302.8z"/>
<path class="st40" d="M30.5,303.1c-0.3,0.1-0.5,0.5-0.8,0.1c0.1-0.1,0.2-0.1,0.2-0.2c0.4-0.4-0.8-0.9-0.1-1.1
	C30.6,301.6,30.2,302.7,30.5,303.1z"/>
<path class="st41" d="M37.1,301.8l0.6,0.6c-0.6-0.1-1.2-0.1-1.8,0.1C36,301.7,36.6,301.9,37.1,301.8z"/>
<path class="st42" d="M33.7,302.7c-0.1-0.5-0.2-1,0.1-1.1s0.3,0.3,0.3,0.5S33.9,302.4,33.7,302.7z"/>
<path class="st43" d="M43.3,303.6L43,303l1,0.1C43.9,303.5,43.5,303.5,43.3,303.6z"/>
<path class="st44" d="M28.2,304l1,0.8C28.1,305.1,28.2,304.5,28.2,304L28.2,304z"/>
<path class="st2" d="M141.1,343.4c0,2.6-1.1,4.3-3.1,4.4s-3.6-1.3-4.1-3.7c-0.7-3.5,1.1-6.1,4-5.7
	C139.8,338.7,141.1,340.6,141.1,343.4z"/>
<path class="st30" d="M151.4,330.7c0.9-0.1,1.8,0.6,2,1.5c0.6,1.4,0.2,3-0.8,4c-1.1,0.3-2.3-0.4-2.5-1.5c0-0.1,0-0.2-0.1-0.3
	C149.5,332.6,150,331.4,151.4,330.7z"/>
<rect x="81.1" y="53.4" class="st45" width="220.1" height="40.9"/>
<rect x="89.6" y="66.7" class="st46" width="30.5" height="1.5"/>
<rect x="89.6" y="82" class="st46" width="30.5" height="1.5"/>
<rect x="89.6" y="74.3" class="st46" width="30.5" height="1.5"/>
<text transform="matrix(1 0 0 1 249.8104 30.6011)" class="st47 st48">2:30 </text>
<text transform="matrix(1 0 0 1 273.3104 30.6011)" class="st47 st48">A</text>
<text transform="matrix(1 0 0 1 280.6004 30.6011)" class="st47 st48">M</text>
<text transform="matrix(1.1539 0 0 1 140.1319 82.775)" class="st28 st49 st50">GREEN MARS</text>
</svg>
