<svg id="Layer_1" data-name="Layer 1" xmlns="http://www.w3.org/2000/svg" viewBox="0 0 393.48 510.26"><defs><style>.cls-1{fill:#3a5127;}.cls-2{fill:#605e7e;}.cls-3{fill:#e0a859;}.cls-4{fill:#fff;}.cls-5{fill:#dca559;}.cls-6{fill:#dca458;}.cls-7{fill:#575160;}.cls-8{fill:#474860;}.cls-9{fill:#c19158;}.cls-10{fill:#4a4960;}.cls-11{fill:#464760;}.cls-12{fill:#5a535f;}.cls-13{fill:#3e4360;}.cls-14{fill:#3f4460;}.cls-15{fill:#464860;}.cls-16{fill:#e0a757;}.cls-17{fill:#695f5c;}.cls-18{fill:#5a565e;}.cls-19{fill:#434760;}.cls-20{fill:#51515f;}.cls-21,.cls-24{fill:#595956;}.cls-21{opacity:0.71;}.cls-22{fill:#aeaeae;}.cls-23{fill:#f7f7f8;}.cls-25{fill:#243761;}.cls-26{fill:#c7c4d2;}.cls-27{fill:#409958;}.cls-28{fill:#369972;}.cls-29{fill:#e0a758;}.cls-30{fill:#4d73b1;}.cls-31{fill:#dea659;}.cls-32{fill:#d9a258;}.cls-33{fill:#3b4160;}.cls-34{fill:#3a4160;}.cls-35{fill:#b48859;}.cls-36{fill:#504f5f;}.cls-37{fill:#444660;}.cls-38{fill:#444661;}.cls-39{fill:#5a545f;}.cls-40{fill:#50515f;}.cls-41{fill:#5e585d;}.cls-42{fill:#57555e;}.cls-43{fill:#474a60;}.cls-44{fill:#060407;}.cls-45{fill:#f7f7f7;}.cls-46{font-size:23.08px;fill:#199244;}.cls-46,.cls-49{font-family:MyriadPro-Regular, Myriad Pro;}.cls-47{letter-spacing:-0.01em;}.cls-48{letter-spacing:0em;}.cls-49{font-size:12px;}.cls-50{letter-spacing:0em;}.cls-51{letter-spacing:0em;}</style></defs><title>smartphone</title><path class="cls-1" d="M121.76,199.12c-11.87,2.79-27.9-3.74-30.26-21.88-1.9-14.66,7.55-26.3,19.61-28.53.27,0,.62.11.73-.33h3.86a2.13,2.13,0,0,0,1.78,0h.3c.89.57,1.94.47,2.9.75,9.39,2.75,15,9.43,17.63,19.31,3.69,13.89-3.49,27.6-16.55,30.68" transform="translate(-58.81 -0.75)"/><path class="cls-2" d="M117.48,148.38a1.26,1.26,0,0,1-1.78,0Z" transform="translate(-58.81 -0.75)"/><path class="cls-3" d="M114.92,196.52c-11.65,0-21.24-10.15-21.13-22.61.12-14.44,11.33-22.95,21.33-22.77,11.62.22,21.08,10.26,21.06,22.74S126.7,196.52,114.92,196.52Z" transform="translate(-58.81 -0.75)"/><path class="cls-4" d="M133.55,173.8c0,11-8.25,20-18.51,20s-18.62-9-18.63-19.92,8.3-20,18.52-20S133.52,162.78,133.55,173.8Z" transform="translate(-58.81 -0.75)"/><path class="cls-3" d="M114.92,192.69c-9.67,0-17.56-8.52-17.52-18.86S105.33,155,115,155c9.79,0,17.64,8.52,17.6,19.11C132.54,184.33,124.55,192.73,114.92,192.69Z" transform="translate(-58.81 -0.75)"/><path class="cls-4" d="M114.88,156c9.06,0,16.51,8.07,16.5,17.78s-7.52,17.86-16.62,17.84-16.63-8.15-16.57-17.89S105.71,156,114.88,156Z" transform="translate(-58.81 -0.75)"/><path class="cls-3" d="M130.34,173.78c0,9.08-6.87,16.65-15.23,16.68-8.86,0-15.8-7.17-15.84-16.45s6.71-16.79,15.19-16.83C123.38,157.14,130.3,164.38,130.34,173.78Z" transform="translate(-58.81 -0.75)"/><path class="cls-1" d="M116.64,179.33l-3.18-1.27-4-1.6c-.27-.11-.63-.13-.54-.58s.35-.37.68-.33c2.28.26,2.29.26,3-1.93s1.57-4.66,2.41-7c.42-1.15.47-2.05-.78-2.57-.26-.11-.6-.27-.49-.66s.52-.31.86-.24a35.18,35.18,0,0,0,3.78.66c1,.08,1,.38.7,1.26-1.22,3.39-2.31,6.84-3.56,10.23-.54,1.45-.45,2.43,1,3,.32.12.7.26.55.76C117.07,179.31,116.87,179.37,116.64,179.33Z" transform="translate(-58.81 -0.75)"/><path class="cls-1" d="M125.65,175.41a1.65,1.65,0,0,1,1.59,1.75,1.63,1.63,0,1,1-1.59-1.75Z" transform="translate(-58.81 -0.75)"/><path class="cls-1" d="M105,171.84c-.09,1-.56,1.69-1.57,1.72a1.53,1.53,0,0,1-1.7-1.72,1.59,1.59,0,0,1,1.56-1.76C104.35,170,104.93,170.71,105,171.84Z" transform="translate(-58.81 -0.75)"/><path class="cls-5" d="M110.7,185.3c-.71.09-1-.63-1.46-.92a2,2,0,0,1,.16-2.7,1.75,1.75,0,0,1,2.43-.2c0,.11,0,.21,0,.32C112.93,183.23,112.58,184.3,110.7,185.3Z" transform="translate(-58.81 -0.75)"/><path class="cls-1" d="M105.89,179.52c-.66.73.11,1,.41,1.35.41.53,1.23.85.82,1.79-.21.48-.56.52-2,.31,1.55-.38.95-1,.32-1.64s-1.52-1.13-.43-2.12a1.16,1.16,0,0,1,.82-.06.27.27,0,0,1,.11.24C105.93,179.48,105.91,179.52,105.89,179.52Z" transform="translate(-58.81 -0.75)"/><path class="cls-1" d="M115.68,187.26l-2.22-.76c1-.41,1.11-1.34,1.25-2.1.24-1.33.7-1.58,1.68-.82-.41,1.2-1.47,2.24-.72,3.71Z" transform="translate(-58.81 -0.75)"/><path class="cls-1" d="M111.83,181.48c-2.52-.13-2.76.15-2.59,2.9a1.75,1.75,0,0,1-1.25-2c.11-1,.91-1.27,1.71-1.45l1-.25a.6.6,0,0,1,.8.22Z" transform="translate(-58.81 -0.75)"/><path class="cls-1" d="M110.7,185.3c1.08-.91,1.91-1.9,1.14-3.5a1.66,1.66,0,0,1,1.47,1.93c0,1-.79,1.37-1.59,1.54A5.77,5.77,0,0,1,110.7,185.3Z" transform="translate(-58.81 -0.75)"/><path class="cls-6" d="M118.08,183.16c-.88.65-1.2,0-1.5-.73a.85.85,0,0,1,.13-1.23,1.23,1.23,0,0,1,1.47.3C118.46,182.08,117.87,182.59,118.08,183.16Z" transform="translate(-58.81 -0.75)"/><path class="cls-7" d="M111.48,180.88c-.27-.07-.59.11-.8-.22A3.18,3.18,0,0,0,111,180c.28-1.53,1-1.52,2-.72-.29.33-.83.4-.92,1C111.6,180.12,111.61,180.57,111.48,180.88Z" transform="translate(-58.81 -0.75)"/><path class="cls-8" d="M107.41,178.67a.56.56,0,0,1,0,.28.54.54,0,0,1-.55.15c-.63-.26-.55-1.2-1.2-1.44,0-.43-.18-1,.34-1.19s.55.49.75.83.25.8.67,1A.26.26,0,0,1,107.41,178.67Z" transform="translate(-58.81 -0.75)"/><path class="cls-9" d="M105.61,177.66c1.19-.44.7,1,1.24,1.28-.13.71-.56.48-1,.35l-.88-.08A1.52,1.52,0,0,0,105.61,177.66Z" transform="translate(-58.81 -0.75)"/><path class="cls-10" d="M113.6,180.38c.07-.3-.21-.82.4-.79s.24.44.27.7,0,.52.08.61c.58.5.21.87-.19,1s-.43-.41-.5-.73A6.66,6.66,0,0,1,113.6,180.38Z" transform="translate(-58.81 -0.75)"/><path class="cls-11" d="M108.73,179.64c-.94-.71-.13-1.42-.07-2.1,0-.28.32-.19.48-.12s.27.24.18.49C109.11,178.47,108.93,179,108.73,179.64Z" transform="translate(-58.81 -0.75)"/><path class="cls-12" d="M105.89,179.29c.34-.06.77.17,1-.35h.51c-.42.64.86,1.06.13,1.78-.44-.53-.73-1.36-1.6-1.21A1.77,1.77,0,0,1,105.89,179.29Z" transform="translate(-58.81 -0.75)"/><path class="cls-13" d="M118.08,183.16c-.17-.11-.72.16-.39-.44a1.9,1.9,0,0,0,.33-1.16.24.24,0,0,1,.06-.35C119,181.86,118.82,182.51,118.08,183.16Z" transform="translate(-58.81 -0.75)"/><path class="cls-14" d="M116.89,181.19a1.42,1.42,0,0,0-.31,1.24c-.59.2-.7-.21-.67-.67a.86.86,0,0,1,1-.93.2.2,0,0,1,.08.23C116.94,181.15,116.91,181.19,116.89,181.19Z" transform="translate(-58.81 -0.75)"/><path class="cls-15" d="M115.67,187.29a4,4,0,0,0,2-.58c-.66,1.62-1.36.91-2,.55Z" transform="translate(-58.81 -0.75)"/><path class="cls-16" d="M112.1,180.22c-.5-1.22.35-.93.92-1C113,179.91,112.51,180,112.1,180.22Z" transform="translate(-58.81 -0.75)"/><path class="cls-17" d="M116.89,181.19v-.36a1,1,0,0,1,1.2.38l-.06.35A1.18,1.18,0,0,0,116.89,181.19Z" transform="translate(-58.81 -0.75)"/><path class="cls-18" d="M107.41,178.67l0-.41c.11-.39-.14-.93.48-1.23C108.07,177.74,107.63,178.17,107.41,178.67Z" transform="translate(-58.81 -0.75)"/><path class="cls-19" d="M104,181.27a.93.93,0,0,1,.43,1c0,.07-.28.16-.33.11C103.68,182.09,103.79,181.7,104,181.27Z" transform="translate(-58.81 -0.75)"/><path class="cls-20" d="M110.42,179.26c-.06-.6-.22-1.11.16-1.18.54-.1.25.33.15.58S110.6,178.91,110.42,179.26Z" transform="translate(-58.81 -0.75)"/><rect class="cls-21" x="73.27" width="235.58" height="509.33" rx="12"/><rect class="cls-22" x="72.93" y="0.92" width="235.58" height="509.33" rx="12"/><rect class="cls-23" x="81.09" y="10.14" width="220.07" height="493.2" rx="12"/><rect class="cls-24" x="309.06" y="49.2" width="2.82" height="22.4" rx="1.26"/><rect class="cls-24" x="309.06" y="74.29" width="2.82" height="22.4" rx="1.26"/><rect class="cls-24" x="309.06" y="109.49" width="2.82" height="13.44" rx="1.26"/><ellipse class="cls-24" cx="106.1" cy="29.51" rx="4.89" ry="5.73"/><path class="cls-25" d="M138.18,256.45" transform="translate(-58.81 -0.75)"/><path class="cls-26" d="M58.81,292a1.13,1.13,0,0,1,.26,0,3.14,3.14,0,0,1,0,3.53h-.12l-.13,0Z" transform="translate(-58.81 -0.75)"/><path class="cls-1" d="M218.19,251.19c0-3.17.06-6.2,0-9.21-.23-9.32,5.65-15.8,14.35-15.85q28.7-.16,57.4-.42,17.86-.14,35.74-.32,19.93-.18,39.89-.4c11.12-.11,22.24-.27,33.37-.35q19.13-.15,38.27-.19c8.18,0,14,6.24,14,15q.11,22.37.29,44.72.14,20.13.29,40.26l.3,40.59c0,6.25.17,12.51.19,18.77,0,8.54-5.81,14.89-13.79,15-14.53.13-29.06.21-43.6.33q-19.27.15-38.56.32l-35,.31-40.63.32c-12.41.1-24.82.18-37.23.34a107.54,107.54,0,0,1-12.44-.06c-6.46-.67-11.61-6.86-11.72-13.78,0-2,0-2-1.92-1.54-10.74,2.55-21.33,1.85-32-1-8-2.15-15.73-4.91-22.64-9.83-16.43-11.7-26.36-28-28.9-49-4.31-35.58,17.3-68.37,49.94-76a59.75,59.75,0,0,1,33.06,1.63Z" transform="translate(-58.81 -0.75)"/><path class="cls-1" d="M59.06,295.53V292c1-18.9,15.62-33.24,33.21-32.64A29.25,29.25,0,0,1,105.51,263c9.55,5.23,16.09,13.18,18.67,24.47,3.35,14.7-3.88,30.5-16.78,36.61-5.42,2.57-11.06,4.37-17.15,4.21-14.56-.37-27.64-12-30.52-27.26A37.69,37.69,0,0,1,59.06,295.53Z" transform="translate(-58.81 -0.75)"/><path class="cls-27" d="M352.91,229.27c13.2-.54,26.4-.07,39.59-.39,13-.32,26-.1,39-.31,2.41,0,4.82-.43,7.23,0,5.44,1,8.8,5.17,8.82,11.11,0,8.91,0,17.83.1,26.74.23,16,.06,32.05.33,48.06.23,13.42,0,26.84.29,40.26.24,9.81.14,19.62.21,29.43,0,5.43-3.71,9.93-8.73,10.41-6.31.59-12.64.2-19,.29-5.49.07-11-.11-16.47.08-12.75.44-25.5,0-38.25.33-12.46.34-24.92,0-37.37.31-12.8.35-25.61,0-38.4.33-12,.33-24,0-36,.32-7.22.2-14.43.18-21.64.23-.58,0-1.2.19-1.71-.3.65-.68,1.48-.51,2.25-.51,4.68,0,9.36,0,14.05,0,2.23,0,2.35,0,2.24-2.53-.29-6.6-.33-13.21-.26-19.82a11.72,11.72,0,0,1,.93-5.55,3.12,3.12,0,0,1,2.14-.43c6.63,0,13.24-.54,19.86-.34.76,0,1.74.22,2.07-.79a5.25,5.25,0,0,0-.06-3.58c-.2-.51-.78-.59-1.29-.63a18.68,18.68,0,0,0-3.26,0c-5.28.57-10.57.16-15.86.27a2.05,2.05,0,0,1-1.67-.45l4.31-6.43a24.82,24.82,0,0,1,4.4-4.8,4,4,0,0,1,2.69-1c2.05,0,4.11.25,6.15-.19a23.08,23.08,0,0,1,3.81-.13A1.45,1.45,0,0,0,275,347.5a7.5,7.5,0,0,0-.39-3.39c-.4-1,.33-1.19.93-1.38a40.59,40.59,0,0,1,9.45-1.81c3.48-.26,7-.19,10.32-1.68a11.46,11.46,0,0,0,7.16-8.79c.14-.7,0-1.51.68-2a2.72,2.72,0,0,1,1.45-.26c3.27.18,6.51-.43,9.77-.35,1.88.05,2.12-.28,2.15-2.31,0-1.17,0-2.33,0-3.5-.06-1.64-.42-2.05-2-2.09-2.42-.07-4.84,0-7.26,0a3.87,3.87,0,0,1-2-.29c-.59-1,.13-1.72.52-2.43A27.83,27.83,0,0,1,315.6,307a37.23,37.23,0,0,1,19.76-5.89c5.73-.11,10.92-1.79,14.88-6.63a11.86,11.86,0,0,0,2.81-8c-.35-12.31,0-24.62-.34-36.92-.16-6-.08-12.09-.21-18.13A3.17,3.17,0,0,1,352.91,229.27Z" transform="translate(-58.81 -0.75)"/><path class="cls-28" d="M352.91,229.27c0,3.4-.07,6.79,0,10.19.36,12.92.2,25.85.34,38.78,0,2.53.2,5.07.24,7.6.09,6-2.83,9.94-7.34,12.79-3.57,2.26-7.55,2.82-11.65,3A34.8,34.8,0,0,0,309.3,312.9a22.05,22.05,0,0,0-4.17,6.5c-.62.93-1.56.8-2.43.8-4.44,0-8.88,0-13.32,0-2.55,0-2.76.25-2.77,3,0,.79,0,1.59,0,2.38.06,2.16.36,2.51,2.35,2.52,4,0,8,0,12,0,.72,0,1.49-.14,2.1.49a12,12,0,0,1-7.49,11c-3.42,1.43-6.91,1.47-10.42,1.72A49.21,49.21,0,0,0,275,343.29c-.39.11-.22.36-.15.6a1.93,1.93,0,0,1-1.65.53q-5,0-10.08,0a2,2,0,0,1-1.53-.45A74.07,74.07,0,0,0,265,329.92c.15-1.05.68-1,1.33-1l11.7-.06c2.74,0,2.94-.26,2.77-3.14-.07-1.27,0-2.55,0-3.82,0-1.82-.28-2.16-2-2.14-3.84,0-7.69.1-11.53.26-1.3.06-1.73-.3-1.67-1.73.18-4.83-.82-9.53-1.55-14.26.86-.83,1.93-.71,3-.72h18.7a8.48,8.48,0,0,0,2.07-.13,2.83,2.83,0,0,0,2.28-2.76c.12-2.54.05-5.09,0-7.64a1.11,1.11,0,0,0-1.18-1.28c-3.22-.2-6.41.38-9.62.36-.85,0-1.11.72-1.44,1.4a8.85,8.85,0,0,1-5.9,5.13,8.14,8.14,0,0,1-9.16-4.21,4.4,4.4,0,0,0-2.81-2.48c-.66-1.38-1.33-2.75-2-4.13.6-.67,1.38-.5,2.1-.49a2,2,0,0,0,2.09-1.35c1.59-3.48,4.22-5.53,7.85-5.56s6.07,2,7.73,5.26a2,2,0,0,0,2,1.33c3.06,0,6.11-.51,9.17-.35.91.05,1.21-.52,1.21-1.4,0-1.7.06-3.4,0-5.1-.12-2.54-1.18-3.7-3.55-3.67-6.62.09-13.24-.27-19.86.23-3.4.27-6.82.06-10.23.06a15.64,15.64,0,0,0-5.14.49c-2.65-3.15-5.48-6.1-8.29-9.08a63.75,63.75,0,0,0-19.93-14.58,1.55,1.55,0,0,1-1.11-1.61c0-3.93-.08-7.86,0-11.78a10,10,0,0,1,9.48-9.77c16.2-.3,32.41-.14,48.61-.43,12.6-.22,25.2.08,37.79-.3,11.07-.34,22.13,0,33.2-.27C351.73,229.2,352.32,229.25,352.91,229.27Z" transform="translate(-58.81 -0.75)"/><path class="cls-29" d="M197.55,380.92c-32.77.37-60.48-28.6-60.46-64.68,0-34.51,25.95-64.52,60.27-64.59,34.13-.07,60.92,29.59,60.53,65.44C257.49,353.3,229.64,381.23,197.55,380.92Z" transform="translate(-58.81 -0.75)"/><path class="cls-28" d="M250.29,367.71c-1.12,5.29-.47,10.65-.65,16-.12,3.6.44,7.17.33,10.78,0,1.29-.31,1.72-1.57,1.71-5.83-.06-11.66,0-17.49,0-3.61-.48-7-4.09-7.68-8.17-.73-4.41-.74-4.43,3.06-6a61.92,61.92,0,0,0,22-15.69c.34-.38.72-.71,1.08-1.07A11.53,11.53,0,0,1,250.29,367.71Z" transform="translate(-58.81 -0.75)"/><path class="cls-3" d="M251.35,277a2.49,2.49,0,0,1,2.22-1l33.32-.31a3.44,3.44,0,0,1,3.65,3.64c.08,2.17,0,4.35.08,6.52,0,.89-.32,1-1,1q-5.25.09-10.5.29c-.74,0-1.07-.18-1.38-1a8.11,8.11,0,0,0-7.69-5.58c-3.47.06-6.31,2.23-7.6,5.93-.25.72-.54,1-1.26,1-1-.05-2.07,0-3.11,0A77.74,77.74,0,0,0,251.35,277Z" transform="translate(-58.81 -0.75)"/><path class="cls-3" d="M260,291.72c1.4-.28,2.19.09,2.87,1.7a7.41,7.41,0,0,0,7.39,4.79,7.66,7.66,0,0,0,7.31-5.42,1.87,1.87,0,0,1,2-1.51c3.3,0,6.61-.12,9.91-.24.8,0,1.12.18,1.1,1.12-.05,2.7,0,5.4,0,8.11a3.34,3.34,0,0,1-3.27,3.52c-1.67,0-3.35,0-5,0l-16.28.11c-.64,0-1.28.09-1.92.14A94.29,94.29,0,0,0,260,291.72Z" transform="translate(-58.81 -0.75)"/><path class="cls-3" d="M250.29,367.71a2.62,2.62,0,0,1-.95-2.49l2.71-3.43c6.8-.07,13.61-.16,20.41-.22,2.34,0,2.45.11,2.45,2.56,0,3.36,0,3.33-3.18,3.37-6.56.07-13.11.18-19.67.27C251.47,367.78,250.88,367.73,250.29,367.71Z" transform="translate(-58.81 -0.75)"/><path class="cls-4" d="M261.62,344l13.26-.08c.57.8.91,4.37.46,5.1a1.49,1.49,0,0,1-1.41.67c-1.47,0-2.94,0-4.41.06-1.85.2-3.71,0-5.57.09a10.73,10.73,0,0,0-2.76.23,1.38,1.38,0,0,1-1.81-.58Z" transform="translate(-58.81 -0.75)"/><path class="cls-30" d="M259.38,349.46c.79.63,1.69.26,2.54.28,2.53,0,5.07,0,7.6,0-2.07.57-4.18.16-6.27.24a3.33,3.33,0,0,0-2.12.83c-1.7,1.4-3.09,3.15-4.77,4.57Z" transform="translate(-58.81 -0.75)"/><path class="cls-3" d="M91.05,324.18c-15.53,0-28.26-13.67-28.27-30.36s12.81-30.64,28.69-30.38c15.41.25,28.29,12.63,28.3,30.44C119.79,311.18,107,324.1,91.05,324.18Z" transform="translate(-58.81 -0.75)"/><path class="cls-3" d="M419.4,350.25c6.88,0,12.22,5.68,12.21,13s-5.36,13.08-12,13.09c-6.86,0-12.34-5.83-12.34-13.15S412.67,350.26,419.4,350.25Z" transform="translate(-58.81 -0.75)"/><path class="cls-4" d="M386.34,362.5c.06-3.73,2.48-7.56,7-9.88a11.29,11.29,0,0,1,12.5,1c.59.42.76.69.23,1.41-4.24,5.77-4,12.43.67,17.65.85.94.35,1.29-.25,1.82a11.61,11.61,0,0,1-14.25.86C388.15,372.56,386.32,369.08,386.34,362.5Z" transform="translate(-58.81 -0.75)"/><path class="cls-1" d="M303.05,328.64c-5,0-10-.05-14.94,0-1.41,0-1.87-.67-1.89-2,0-1.64,0-3.28,0-4.92,0-1.47.55-2.11,1.95-2.1,4.93,0,9.86,0,14.8,0a6.72,6.72,0,0,0,2.18-.3h9.77c1.68,0,2.09.44,2.11,2.25,0,1.59,0,3.18,0,4.76s-.55,2-1.85,2C311.13,328.42,307.09,328.55,303.05,328.64Z" transform="translate(-58.81 -0.75)"/><path class="cls-1" d="M330.52,328.33c-2.43,0-4.85,0-7.27,0-1.21,0-1.73-.57-1.75-1.79,0-1.8,0-3.6,0-5.4,0-1.3.57-1.81,1.74-1.77s2.07,0,3.11,0l23.55-.29c1.83,0,2.12.32,2.14,2.32,0,1.54,0,3.08,0,4.61s-.47,2.07-1.83,2-2.57,0-3.86,0H330.51Z" transform="translate(-58.81 -0.75)"/><path class="cls-1" d="M374.44,318.72c3.56,0,7.12,0,10.68,0,1.18,0,1.63.4,1.72,1.73.13,1.75.15,3.49.18,5.23,0,1.4-.56,2-1.88,2-3.16,0-6.33,0-9.49,0-5.68.07-11.36.19-17,.27-1.74,0-2.09-.36-2.11-2.19,0-1.65,0-3.3,0-4.94,0-1.28.47-1.84,1.67-1.83,5.43,0,10.87,0,16.3,0Z" transform="translate(-58.81 -0.75)"/><path class="cls-4" d="M288.74,343.29c5.83,0,11.66,0,17.49,0,1.94,0,2.16.23,2.18,2.24,0,3.62,0,3.6-3.44,3.63-6.67,0-13.34.14-20,.22-2.16,0-2.35-.16-2.38-2.5,0-.48,0-.95,0-1.43-.06-1.33.47-1.95,1.76-1.9,1.48.06,3,0,4.44,0Z" transform="translate(-58.81 -0.75)"/><path class="cls-4" d="M328.29,343.24c3.31,0,6.63.05,9.94,0,1.33,0,1.86.54,1.89,1.95.1,3.89.12,3.86-3.5,3.9-6.67.06-13.34.15-20,.23-1.68,0-1.92-.2-2-2.06-.23-3.59-.23-3.71,3-3.84,3.55-.15,7.12,0,10.67,0Z" transform="translate(-58.81 -0.75)"/><path class="cls-4" d="M407.68,243.93c7,.51,14,1,21,1.51,1.33.09,1.72.77,1.66,2-.18,3.94-.19,4-3.72,3.71q-10-.72-20.11-1.49c-1.67-.12-2-.52-1.83-2.26,0-.26.05-.53.08-.79C405,243.81,405,243.81,407.68,243.93Z" transform="translate(-58.81 -0.75)"/><path class="cls-4" d="M281,255.11H250.7c-1.63,0-2.21-.63-2.24-2.39,0-1.12,0-2.23,0-3.34,0-1.37.59-2.06,1.89-2.07,5.49-.07,11-.18,16.46-.24l42.25-.4q14.54-.13,29.06-.32c1.38,0,2.76-.14,4.15-.13s2.05.63,2.09,2.19c0,1.17.09,2.34.06,3.5,0,1.62-.57,2.18-2.08,2.2l-10.53.12c-10.33.11-20.66.24-31,.31-6.62.05-13.24,0-19.86,0Z" transform="translate(-58.81 -0.75)"/><path class="cls-3" d="M270.1,294.19a4.75,4.75,0,0,1,0-9.46,4.78,4.78,0,0,1,4.45,4.78C274.46,292,272.34,294.21,270.1,294.19Z" transform="translate(-58.81 -0.75)"/><path class="cls-4" d="M197.57,371.36c-28.57,0-51.65-24.71-51.55-55.12.1-31.36,24.36-55.47,52.29-55,26.4.43,50.67,23.29,50.64,55.16C248.91,347.88,225,371.54,197.57,371.36Z" transform="translate(-58.81 -0.75)"/><path class="cls-4" d="M91.09,320.4c-13.72,0-24.85-11.92-24.81-26.6,0-14.89,11.19-26.8,25.28-26.58,13.13.2,24.65,10.86,24.75,26.68C116.41,308.59,105.06,320.4,91.09,320.4Z" transform="translate(-58.81 -0.75)"/><path class="cls-3" d="M246.38,316.31c.2,27.44-20.54,52.33-49.06,52.39-26.95.05-48.91-23.65-48.74-52.77s22.52-52.14,49.31-52S246.38,287.56,246.38,316.31Z" transform="translate(-58.81 -0.75)"/><path class="cls-3" d="M67.37,293.81c0-14.14,10.74-25.81,23.84-25.6C104,268.42,115.33,279,115.27,294c-.06,14.52-11.25,25.38-24.21,25.42S67.37,307.93,67.37,293.81Z" transform="translate(-58.81 -0.75)"/><path class="cls-4" d="M196.9,365.37c-25.64.3-46.3-22.82-45.91-50,.37-26.22,20.77-48.13,45.73-48.19,26.46-.07,46.63,23.11,46.11,50.15C242.32,344.15,221.62,365.69,196.9,365.37Z" transform="translate(-58.81 -0.75)"/><path class="cls-4" d="M90.9,317.6c-12.35,0-22.11-10.45-22.1-23.71S78.67,270,90.91,270.12c11.83.17,22.41,9.78,22.45,23.85C113.39,307,103.25,317.6,90.9,317.6Z" transform="translate(-58.81 -0.75)"/><path class="cls-29" d="M196.67,362.71c-23.92,0-43.32-21-43.1-47,.22-26.24,20.69-46.2,44.06-45.81,22.28.38,42.6,19.65,42.66,46.36C240.34,342.37,220.5,362.87,196.67,362.71Z" transform="translate(-58.81 -0.75)"/><path class="cls-3" d="M90.91,271.26c10.66-.2,21.51,9.6,21.43,22.74-.08,12.74-10.33,22.57-21.46,22.58-11.63,0-21.13-10.19-21.13-22.7S79.19,271.26,90.91,271.26Z" transform="translate(-58.81 -0.75)"/><path class="cls-1" d="M201.3,304.41v15.43c0,4.85.75,5.7,5.29,5.91.81,0,1.55-.11,1.49,1.26,0,1-.25,1.34-1.24,1.33-6.57,0-13.14,0-19.71,0-.77,0-1.3,0-1.28-1.13s.2-1.63,1.29-1.44a1.51,1.51,0,0,0,.3,0c4.47-.25,5.27-1.15,5.27-6V296.56c0-3.63-.35-4-3.67-4.62-.6-.11-1.46.14-1.79-.72a1.37,1.37,0,0,1,1.24-2.05,55.34,55.34,0,0,0,11.5-2.81c1-.38,1.34-.21,1.33,1C201.27,293.06,201.3,298.74,201.3,304.41Z" transform="translate(-58.81 -0.75)"/><path class="cls-1" d="M223.72,318.41a4.52,4.52,0,0,1,4.43-4.85,4.61,4.61,0,0,1,4.53,4.79,4.68,4.68,0,0,1-4.48,4.87A4.57,4.57,0,0,1,223.72,318.41Z" transform="translate(-58.81 -0.75)"/><path class="cls-1" d="M169.32,318.37a4.57,4.57,0,0,1-4.45,4.85,4.69,4.69,0,0,1-4.51-4.83,4.62,4.62,0,0,1,4.5-4.83A4.51,4.51,0,0,1,169.32,318.37Z" transform="translate(-58.81 -0.75)"/><path class="cls-1" d="M196.49,338.48A8.23,8.23,0,0,1,201.4,340a4.74,4.74,0,0,1,.09,7.56,8.75,8.75,0,0,1-9.19.74,4.74,4.74,0,0,1-2.92-4.56,4.94,4.94,0,0,1,3-4.4A8.13,8.13,0,0,1,196.49,338.48Z" transform="translate(-58.81 -0.75)"/><path class="cls-1" d="M182.81,349.3l-1.93-.27A2.24,2.24,0,0,1,179,346.4c0-.21.06-.43.31-.47s.44.15.57.4a3.82,3.82,0,0,0,2.6,2.18c1,.19,2.06.24,2.5-1s-.51-1.8-1.35-2.26c-1-.59-2.2-1-3.18-1.68a2.42,2.42,0,0,1,.12-4.24c1.78-1.1,3.71-1,5.63-.59.53.1,1.1,1.89.74,2.28s-.65,0-.85-.34a2.65,2.65,0,0,0-3-1.47,1.52,1.52,0,0,0-1.38,1.24,1.4,1.4,0,0,0,.82,1.54c1,.53,2.08,1,3.1,1.49s2,1.19,2,2.66a3,3,0,0,1-2.2,2.68A9.77,9.77,0,0,1,182.81,349.3Z" transform="translate(-58.81 -0.75)"/><path class="cls-1" d="M204.88,348.92c2.41-.37,1.91-2.29,1.93-3.89,0-1.12,0-2.23,0-3.34,0-1.88-.06-2-1.87-2.82h6.18c-2.11.34-1.57,2.08-1.59,3.51s0,3.07,0,4.61c0,.95.37,1.3,1.22,1.37a3.56,3.56,0,0,0,3.74-1.69c.19-.32.4-.68.8-.49s.12.62,0,.95c-.25,1.32-.75,2.07-2.27,1.94-2.25-.19-4.53-.05-6.81-.06C205.79,349,205.33,349,204.88,348.92Z" transform="translate(-58.81 -0.75)"/><path class="cls-1" d="M178.55,337.2c1.19-1.25,1.17-4.78,0-5.95,2.9-.62,3.48,2.69,5.44,3.61.34-2.39.28-2.7-.72-3.59h2.19c-1.25,1-.6,2.43-.78,3.66-.11.76.39,1.88-.26,2.19s-1.1-.82-1.62-1.33c-.94-.9-1.86-1.83-2.86-2.82.2,1.45-.61,3,.84,4.23Z" transform="translate(-58.81 -0.75)"/><path class="cls-1" d="M193.91,337.24c1.07-.93,1.23-4.54.35-6.06,1.22,0,2.41.08,3.58,0s1.22.43.91,1.57c-.58-1.12-1.47-1.62-2.33-1a1.63,1.63,0,0,0,0,2c.62.62,1.3,0,1.86-.6a3.6,3.6,0,0,1,0,1.79c-.65-.4-1.44-1.08-2-.32-.32.47-.46,1.62.16,2,1,.62,1.95.26,2.75-1.19.07,1.28,0,1.85-1,1.8C196.87,337.18,195.49,337.24,193.91,337.24Z" transform="translate(-58.81 -0.75)"/><path class="cls-1" d="M204.75,334.36a7.24,7.24,0,0,1-.41,1c-.36.63-.32,1.85-1.13,1.8s-.78-1.21-1.07-1.9a9.5,9.5,0,0,0-2.53-4h2.91c-.47,1.64.87,2.67,1,4.11.71-.28.59-1,1-1.28A.34.34,0,0,1,204.75,334.36Z" transform="translate(-58.81 -0.75)"/><path class="cls-1" d="M191.47,336.86c-2.66,1.26-4.22.2-4.26-2.87,0-.95.35-2-.76-2.77h2.81a6,6,0,0,0-.45,4.64c.55,1.14,1.51.74,2.36.74C191.45,336.46,191.48,336.63,191.47,336.86Z" transform="translate(-58.81 -0.75)"/><path class="cls-1" d="M211.64,337.17a10.76,10.76,0,0,1-1.6.11,3,3,0,0,1-2.93-3.23c.06-1.71,1.18-2.75,3.06-2.86a.4.4,0,0,1,0,.42,4.25,4.25,0,0,0-1.07,1.63c-.43,1.84.29,3,2.17,3.42A.47.47,0,0,1,211.64,337.17Z" transform="translate(-58.81 -0.75)"/><path class="cls-1" d="M211.64,337.17l-.3-.26a.61.61,0,0,1,0-.46c1.12-2.83,1-3.3-1.17-5v-.23c2-.2,3.4.66,3.76,2.36S213.43,336.45,211.64,337.17Z" transform="translate(-58.81 -0.75)"/><path class="cls-1" d="M191.47,336.86l-.3-.26c1.31-1.8,1.25-4.38-.19-5.38h2.26c-1,.82-.75,1.9-.78,2.9S192.56,336.27,191.47,336.86Z" transform="translate(-58.81 -0.75)"/><path class="cls-1" d="M204.89,333.11c.12-.64.76-1.36-.67-1.9h2.5c-.9.44-1.09,1.46-1.59,2.21A.41.41,0,0,1,204.89,333.11Z" transform="translate(-58.81 -0.75)"/><path class="cls-1" d="M204.89,333.11l.24.31-.38.94-.22-.3Z" transform="translate(-58.81 -0.75)"/><path class="cls-1" d="M86,287c-.44,0-1.29.89-1.57-.09-.24-.82.89-.9,1.41-1.3,1-.79,2.18-1.45,3.2-2.29.71-.58,1-.5,1.29.4,1.35,3.69,2.75,7.36,4.15,11,.85,2.24.88,2.25,3,1.63.4-.11.88-.53,1.08.22s-.39.65-.72.79q-4,1.79-8.08,3.52c-.28.12-.65.47-.9,0s.06-.7.45-.95c2.19-1.42,2.18-1.44,1.24-3.94s-2-5.19-3-7.79C87.32,287.5,87,286.83,86,287Z" transform="translate(-58.81 -0.75)"/><path class="cls-1" d="M105.76,292.76a2.34,2.34,0,0,1,0-4.67,2.34,2.34,0,1,1,0,4.67Z" transform="translate(-58.81 -0.75)"/><path class="cls-1" d="M78.4,299.48a2.33,2.33,0,0,1-2.18,2.33A2.4,2.4,0,0,1,74,299.33a2.2,2.2,0,0,1,2.21-2.25A2.16,2.16,0,0,1,78.4,299.48Z" transform="translate(-58.81 -0.75)"/><path class="cls-31" d="M97.39,306.2c-.52.16-.89.88-1.56.5-.94.46-1.61,0-2.06-.82s-.5-1.48.32-2c-.09-.55.33-.49.61-.59.53-.61,1.2-.38,1.83-.36C97.85,303.86,98,304.55,97.39,306.2Z" transform="translate(-58.81 -0.75)"/><path class="cls-1" d="M102.11,304.35l-1.78.78c.43-1.61-.32-2.7-1.08-3.8,1-.89,1.67-1,2,.66a12.82,12.82,0,0,0,.62,1.77C102,304,102.28,304,102.11,304.35Z" transform="translate(-58.81 -0.75)"/><path class="cls-1" d="M91.6,308.62c-.7-1.67-2.11-.59-3.12-1a.73.73,0,0,1-.53-.82,1.47,1.47,0,0,1,.43-.78c.56-.51.41.27.61.43.72.58,1.52.12,2.27.22a1.17,1.17,0,0,1,1,.53.84.84,0,0,1-.18,1A5.65,5.65,0,0,1,91.6,308.62Z" transform="translate(-58.81 -0.75)"/><path class="cls-1" d="M94.09,303.85c-.51,1.83,0,2.59,1.74,2.85-1.09.8-2.49.72-3-.26s-.09-1.89.63-2.62C93.65,303.59,93.87,303.75,94.09,303.85Z" transform="translate(-58.81 -0.75)"/><path class="cls-1" d="M97.39,306.2c0-1.13.2-2.3-.88-3.05-.13-.27-.74,0-.59-.58a1.67,1.67,0,0,1,.29-.06c1-.08,2.09-.13,2.46,1.16A2.17,2.17,0,0,1,97.39,306.2Z" transform="translate(-58.81 -0.75)"/><path class="cls-32" d="M99.51,298.05c.27-.21.37-.68.82-.63.93.4,1.83.82,1,2.15-.17.45-.67.1-.89.41C99.76,299.52,98.83,299.21,99.51,298.05Z" transform="translate(-58.81 -0.75)"/><path class="cls-1" d="M95,301c-.16.33-.78.44-.35,1.07.26.36-.18.47-.44.57-.62.26-.27-.31-.35-.49a5.11,5.11,0,0,0-.31-.86c-.69-.94-.1-1.12.6-1.26A4.18,4.18,0,0,1,95,301Z" transform="translate(-58.81 -0.75)"/><path class="cls-1" d="M89.31,303.82c.52,1.05.12,1.06-.74.9-.49-.09-1.11-1.29-1.57,0l0,0-.79-1.11c.88-.48,1.55.08,2.27.27C88.78,304,89,303.63,89.31,303.82Z" transform="translate(-58.81 -0.75)"/><path class="cls-1" d="M92.23,303.57c-1.79.91-1.89-.53-2.33-1.33-.26-.47.32-.36.5-.49s.34-.06.38.3C90.87,302.79,91.08,303.5,92.23,303.57Z" transform="translate(-58.81 -0.75)"/><path class="cls-13" d="M101.29,299.57c.39-1.08-.29-1.62-1-2.15.69-.08,1.44-.16,1.74.71S101.91,299.32,101.29,299.57Z" transform="translate(-58.81 -0.75)"/><path class="cls-33" d="M98,301c-1.12.36-1.3-1.14-2.42-1.19,1.16-1,1.49.23,2.08.49C97.94,300.47,98.18,300.63,98,301Z" transform="translate(-58.81 -0.75)"/><path class="cls-34" d="M99.51,298.05a2.53,2.53,0,0,0,.89,1.93,1,1,0,0,1-1.46-.58A1,1,0,0,1,99.51,298.05Z" transform="translate(-58.81 -0.75)"/><path class="cls-35" d="M95,301c-.76.16-1-.24-.85-1a.75.75,0,0,1,1.13,0A.65.65,0,0,1,95,301Z" transform="translate(-58.81 -0.75)"/><path class="cls-36" d="M98,301l-.34-.7c.78-.38-.38-1.6.88-1.93C98.14,299.3,98.48,300.22,98,301Z" transform="translate(-58.81 -0.75)"/><path class="cls-37" d="M88.55,308.89c.74,0,1.2.5,1.8.4C89.69,309.61,89,310.2,88.55,308.89Z" transform="translate(-58.81 -0.75)"/><path class="cls-38" d="M103.69,303.51a2.08,2.08,0,0,1,.71-1.46C104.45,302.9,104.73,303.5,103.69,303.51Z" transform="translate(-58.81 -0.75)"/><path class="cls-39" d="M89.31,303.82c-.26.13-.51.48-.81.08.07-.07.15-.12.22-.2.39-.44-.75-.94-.12-1.11C89.41,302.37,89,303.47,89.31,303.82Z" transform="translate(-58.81 -0.75)"/><path class="cls-40" d="M95.92,302.57l.59.58a3.11,3.11,0,0,0-1.81.11C94.82,302.44,95.42,302.61,95.92,302.57Z" transform="translate(-58.81 -0.75)"/><path class="cls-41" d="M92.54,303.42c-.1-.53-.21-1,.11-1.08s.29.28.25.52S92.75,303.1,92.54,303.42Z" transform="translate(-58.81 -0.75)"/><path class="cls-42" d="M102.11,304.35l-.25-.59,1,.09C102.75,304.27,102.36,304.2,102.11,304.35Z" transform="translate(-58.81 -0.75)"/><path class="cls-43" d="M87,304.76l1,.81c-1.1.3-1-.3-1-.83Z" transform="translate(-58.81 -0.75)"/><path class="cls-3" d="M199.87,344.15c0,2.62-1.15,4.25-3.12,4.44s-3.64-1.26-4.12-3.7c-.71-3.51,1.15-6.15,4-5.72C198.65,339.48,199.88,341.37,199.87,344.15Z" transform="translate(-58.81 -0.75)"/><path class="cls-29" d="M210.17,331.42a1.92,1.92,0,0,1,2,1.48,3.62,3.62,0,0,1-.84,4,2.09,2.09,0,0,1-2.6-1.85C208.33,333.31,208.79,332.19,210.17,331.42Z" transform="translate(-58.81 -0.75)"/><rect class="cls-44" x="81.09" y="53.39" width="220.07" height="40.87"/><rect class="cls-45" x="89.55" y="66.67" width="30.47" height="1.51"/><rect class="cls-45" x="89.55" y="82.02" width="30.47" height="1.51"/><rect class="cls-45" x="89.55" y="74.34" width="30.47" height="1.51"/><text class="cls-46" transform="translate(136.4 82.54) scale(0.98 1)">GREEN <tspan class="cls-47" x="70.13" y="0">M</tspan><tspan class="cls-48" x="88.45" y="0">ARS</tspan></text><text class="cls-49" transform="translate(249.81 23.78)">2:30 <tspan class="cls-50" x="23.5" y="0">A</tspan><tspan class="cls-51" x="30.79" y="0">M</tspan></text></svg>