<svg xmlns="http://www.w3.org/2000/svg" xmlns:xlink="http://www.w3.org/1999/xlink" viewBox="0 0 512 397.35"><defs><style>.cls-1{mask:url(#mask);}.cls-15,.cls-2,.cls-4,.cls-5,.cls-7,.cls-8,.cls-9{mix-blend-mode:multiply;}.cls-2{fill:url(#radial-gradient);}.cls-3{mask:url(#mask-2);}.cls-4{fill:url(#radial-gradient-2);}.cls-5{fill:url(#radial-gradient-3);}.cls-6{mask:url(#mask-4);}.cls-7{fill:url(#radial-gradient-4);}.cls-8{fill:url(#radial-gradient-5);}.cls-9{fill:url(#radial-gradient-6);}.cls-10{isolation:isolate;}.cls-11{mask:url(#mask-7);}.cls-12,.cls-14,.cls-17{opacity:0.3;}.cls-12{fill:url(#radial-gradient-7);}.cls-13{mask:url(#mask-9);}.cls-14{fill:url(#radial-gradient-8);}.cls-16{mask:url(#mask-11);}.cls-17{fill:url(#radial-gradient-9);}.cls-18{fill:#42c1b5;}.cls-19{fill:#007aff;}.cls-20{fill:#5aafad;}.cls-21{filter:url(#luminosity-noclip-11);}.cls-22{filter:url(#luminosity-noclip-9);}.cls-23{filter:url(#luminosity-noclip-7);}.cls-24{filter:url(#luminosity-noclip-4);}.cls-25{filter:url(#luminosity-noclip-2);}.cls-26{filter:url(#luminosity-noclip);}</style><filter id="luminosity-noclip" x="173.17" y="-8447.89" width="236.89" height="32766" filterUnits="userSpaceOnUse" color-interpolation-filters="sRGB"><feFlood flood-color="#fff" result="bg"/><feBlend in="SourceGraphic" in2="bg"/></filter><mask id="mask" x="173.17" y="-8447.89" width="236.89" height="32766" maskUnits="userSpaceOnUse"><g class="cls-26"/></mask><radialGradient id="radial-gradient" cx="281.01" cy="199.05" r="119.67" gradientTransform="translate(-56.06 -16.45) scale(1.24 1.25)" gradientUnits="userSpaceOnUse"><stop offset="0.6"/><stop offset="0.62" stop-color="#050505"/><stop offset="0.64" stop-color="#121212"/><stop offset="0.67" stop-color="#292929"/><stop offset="0.7" stop-color="#494949"/><stop offset="0.72" stop-color="#737373"/><stop offset="0.75" stop-color="#a4a4a4"/><stop offset="0.75" stop-color="#a6a6a6"/><stop offset="0.8" stop-color="#a8a8a8"/><stop offset="0.82" stop-color="#afafaf"/><stop offset="0.83" stop-color="#bababa"/><stop offset="0.84" stop-color="#cbcbcb"/><stop offset="0.84" stop-color="#e1e1e1"/><stop offset="0.85" stop-color="#fcfcfc"/><stop offset="0.85" stop-color="#fff"/></radialGradient><filter id="luminosity-noclip-2" x="431.78" y="-8447.89" width="51.41" height="32766" filterUnits="userSpaceOnUse" color-interpolation-filters="sRGB"><feFlood flood-color="#fff" result="bg"/><feBlend in="SourceGraphic" in2="bg"/></filter><mask id="mask-2" x="431.78" y="-8447.89" width="51.41" height="32766" maskUnits="userSpaceOnUse"><g class="cls-25"/></mask><radialGradient id="radial-gradient-2" cx="415.08" cy="259.66" r="25.97" gradientTransform="translate(-56.06 -16.45) scale(1.24 1.25)" gradientUnits="userSpaceOnUse"><stop offset="0.6" stop-color="#b3b3b3"/><stop offset="0.63" stop-color="#b8b8b8"/><stop offset="0.67" stop-color="#c5c5c5"/><stop offset="0.71" stop-color="#dcdcdc"/><stop offset="0.75" stop-color="#fcfcfc"/><stop offset="0.75" stop-color="#fff"/><stop offset="0.84" stop-color="#fff"/><stop offset="0.85" stop-color="#fff"/></radialGradient><radialGradient id="radial-gradient-3" cx="281.01" cy="199.05" r="119.67" xlink:href="#radial-gradient-2"/><filter id="luminosity-noclip-4" x="46.65" y="-8447.89" width="156.01" height="32766" filterUnits="userSpaceOnUse" color-interpolation-filters="sRGB"><feFlood flood-color="#fff" result="bg"/><feBlend in="SourceGraphic" in2="bg"/></filter><mask id="mask-4" x="46.65" y="-8447.89" width="156.01" height="32766" maskUnits="userSpaceOnUse"><g class="cls-24"/></mask><radialGradient id="radial-gradient-4" cx="146.06" cy="278.79" r="78.81" xlink:href="#radial-gradient"/><radialGradient id="radial-gradient-5" cx="146.06" cy="278.79" r="78.81" xlink:href="#radial-gradient-2"/><radialGradient id="radial-gradient-6" cx="415.08" cy="259.66" r="25.97" xlink:href="#radial-gradient"/><filter id="luminosity-noclip-7" x="173.17" y="113.2" width="236.89" height="240.26" filterUnits="userSpaceOnUse" color-interpolation-filters="sRGB"><feFlood flood-color="#fff" result="bg"/><feBlend in="SourceGraphic" in2="bg"/></filter><mask id="mask-7" x="173.17" y="48.66" width="236.89" height="240.26" maskUnits="userSpaceOnUse"><g class="cls-23"><g transform="translate(0 -64.54)"><g class="cls-1"><path class="cls-2" d="M173.17,233.33c0-66.34,53-120.13,118.44-120.13S410.06,167,410.06,233.33,357,353.47,291.61,353.47,173.17,299.68,173.17,233.33Z"/></g></g></g></mask><radialGradient id="radial-gradient-7" cx="281.01" cy="199.05" r="119.67" gradientTransform="translate(-56.06 -16.45) scale(1.24 1.25)" gradientUnits="userSpaceOnUse"><stop offset="0.6" stop-color="#fff"/><stop offset="0.61" stop-color="#fafafa"/><stop offset="0.63" stop-color="#edeced"/><stop offset="0.65" stop-color="#d7d6d6"/><stop offset="0.68" stop-color="#b8b6b6"/><stop offset="0.7" stop-color="#908c8d"/><stop offset="0.72" stop-color="#5f5a5b"/><stop offset="0.75" stop-color="#261f21"/><stop offset="0.75" stop-color="#130c0e"/><stop offset="0.84" stop-color="#130c0e"/><stop offset="0.85" stop-color="#130c0e"/></radialGradient><filter id="luminosity-noclip-9" x="46.65" y="254.28" width="156.01" height="158.23" filterUnits="userSpaceOnUse" color-interpolation-filters="sRGB"><feFlood flood-color="#fff" result="bg"/><feBlend in="SourceGraphic" in2="bg"/></filter><mask id="mask-9" x="46.65" y="189.74" width="156.01" height="158.23" maskUnits="userSpaceOnUse"><g class="cls-22"><g transform="translate(0 -64.54)"><g class="cls-6"><path class="cls-7" d="M46.65,333.39c0-43.69,34.92-79.11,78-79.11s78,35.42,78,79.11-34.93,79.12-78,79.12S46.65,377.09,46.65,333.39Z"/></g></g></g></mask><radialGradient id="radial-gradient-8" cx="146.06" cy="278.79" r="78.81" xlink:href="#radial-gradient-7"/><filter id="luminosity-noclip-11" x="431.78" y="283.32" width="51.41" height="52.14" filterUnits="userSpaceOnUse" color-interpolation-filters="sRGB"><feFlood flood-color="#fff" result="bg"/><feBlend in="SourceGraphic" in2="bg"/></filter><mask id="mask-11" x="431.78" y="218.78" width="51.41" height="52.14" maskUnits="userSpaceOnUse"><g class="cls-21"><g transform="translate(0 -64.54)"><g class="cls-3"><path class="cls-9" d="M431.78,309.39a25.71,25.71,0,1,1,25.71,26.07A25.89,25.89,0,0,1,431.78,309.39Z"/></g></g></g></mask><radialGradient id="radial-gradient-9" cx="415.08" cy="259.66" r="25.97" xlink:href="#radial-gradient-7"/></defs><title>settings (4)</title><g class="cls-10"><g id="Layer_1" data-name="Layer 1"><g id="Shadow_Cog_and_Bubble" data-name="Shadow Cog and Bubble"><g class="cls-11"><g class="cls-11"><path class="cls-12" d="M173.17,233.33c0-66.34,53-120.13,118.44-120.13S410.06,167,410.06,233.33,357,353.47,291.61,353.47,173.17,299.68,173.17,233.33Z" transform="translate(0 -64.54)"/></g></g></g><g id="Shadow_Cog_and_Bubble-2" data-name="Shadow Cog and Bubble"><g class="cls-13"><g class="cls-13"><path class="cls-14" d="M46.65,333.39c0-43.69,34.92-79.11,78-79.11s78,35.42,78,79.11-34.93,79.12-78,79.12S46.65,377.09,46.65,333.39Z" transform="translate(0 -64.54)"/></g></g></g><g id="Shadow_Cog_and_Bubble-3" data-name="Shadow Cog and Bubble" class="cls-15"><g class="cls-16"><g class="cls-16"><path class="cls-17" d="M431.92,312.06a25.71,25.71,0,1,1,22.95,23.27A25.9,25.9,0,0,1,431.92,312.06Z" transform="translate(0 -64.54)"/></g></g></g><path class="cls-18" d="M502.83,312.82l9.17-3.6a55.22,55.22,0,0,0-1.59-13.17l-9.77-1.21a46,46,0,0,0-2.19-5.48l6.17-7.76A56.1,56.1,0,0,0,496.73,271l-9.05,3.9a46.22,46.22,0,0,0-4.59-3.65l1.52-9.84a53.44,53.44,0,0,0-12.06-5.17l-5.91,8c-1.4-.29-2.82-.52-4.27-.68l-1.5-.13-3.54-9.3a53.81,53.81,0,0,0-13,1.61l-1.2,9.91a46.37,46.37,0,0,0-5.4,2.22l-7.65-6.25a54.71,54.71,0,0,0-10.44,8l3.85,9.18a45.38,45.38,0,0,0-3.6,4.65l-9.71-1.53a55.26,55.26,0,0,0-5.09,12.22l7.85,6c-.29,1.42-.52,2.86-.67,4.33-.06.51-.09,1-.13,1.52L403,309.55a55.8,55.8,0,0,0,1.59,13.17l9.77,1.21a45.68,45.68,0,0,0,2.19,5.48l-6.17,7.76a54.94,54.94,0,0,0,7.89,10.59l9.05-3.9a43.48,43.48,0,0,0,4.59,3.65l-1.52,9.85a53.79,53.79,0,0,0,12.05,5.16l5.92-8a42.67,42.67,0,0,0,4.27.68c.5.06,1,.09,1.49.13l3.55,9.31a53.66,53.66,0,0,0,13-1.61l1.2-9.91a44.88,44.88,0,0,0,5.41-2.23l7.65,6.25a54.66,54.66,0,0,0,10.44-8L491.49,340a46.87,46.87,0,0,0,3.59-4.66l9.7,1.54a55.77,55.77,0,0,0,5.1-12.23l-7.85-6c.28-1.42.52-2.87.67-4.34C502.76,313.83,502.79,313.32,502.83,312.82ZM481,312a23.67,23.67,0,1,1-21-26.44A23.74,23.74,0,0,1,481,312Z" transform="translate(0 -64.54)"/><path class="cls-19" d="M422.1,264l29.28-6.75a170.28,170.28,0,0,0,.93-40.48l-29-8a137.94,137.94,0,0,0-4.24-17.54l22-20.65A170.84,170.84,0,0,0,421.91,135l-29,7.71a141.84,141.84,0,0,0-12.29-13.08l8.88-29a165,165,0,0,0-34.16-21L334,101q-6.15-2.27-12.6-4c-1.49-.4-3-.72-4.47-1.06l-6.64-29.69a163.15,163.15,0,0,0-39.92-1l-7.94,29.4A133.54,133.54,0,0,0,245.14,99L224.77,76.7a166.5,166.5,0,0,0-35,19.48l7.62,29.45a137.51,137.51,0,0,0-12.89,12.44l-28.65-9a168.1,168.1,0,0,0-20.7,34.64l21.09,21.62c-1.49,4.16-2.81,8.41-3.92,12.79-.39,1.51-.7,3-1,4.53L122,209.39a171.35,171.35,0,0,0-.93,40.48l29,8.05a142.51,142.51,0,0,0,4.22,17.53l-22,20.66a170.24,170.24,0,0,0,19.21,35.53l29-7.72A137.89,137.89,0,0,0,192.76,337l-8.87,29.06A165.21,165.21,0,0,0,218,387l21.31-21.39c4.11,1.51,8.31,2.85,12.63,4,1.48.4,3,.71,4.45,1l6.64,29.71a163.64,163.64,0,0,0,39.92,1l7.94-29.4a136.31,136.31,0,0,0,17.28-4.29L348.59,390a166.75,166.75,0,0,0,35-19.48L376,341.05a144.13,144.13,0,0,0,12.88-12.46l28.63,9a167.6,167.6,0,0,0,20.71-34.65l-21.08-21.61c1.47-4.17,2.81-8.42,3.92-12.8C421.46,267,421.77,265.53,422.1,264Zm-26.39-2.14c-15.56,61.09-77,97.83-137.19,82s-96.42-78.07-80.87-139.14,77-97.8,137.19-82S411.26,200.82,395.71,261.87Z" transform="translate(0 -64.54)"/><path class="cls-20" d="M236.37,313.86l10.22-4.54a129.5,129.5,0,0,0-3.3-12.61l-11.09,1.2a115.88,115.88,0,0,0-7.83-18.05l8.29-7.5a126.63,126.63,0,0,0-7-10.93L215.54,266a115.71,115.71,0,0,0-13-14.65l5.63-9.77q-4.78-4.37-10-8.24L189.9,241a114.22,114.22,0,0,0-16.8-9.92l2.38-11a119,119,0,0,0-12-4.71l-5.54,9.75a111,111,0,0,0-19-4.09l-1.1-11.27A121.24,121.24,0,0,0,125,209l-2.31,11.06a117.56,117.56,0,0,0-15.2,1.31c-1.39.21-2.75.49-4.12.75l-4.48-10.37a126.65,126.65,0,0,0-12.42,3.34l1.18,11.25a111.74,111.74,0,0,0-17.8,7.94l-7.39-8.41A124.53,124.53,0,0,0,51.66,233l4.55,10.28a115.4,115.4,0,0,0-14.46,13.21l-9.62-5.72A127.53,127.53,0,0,0,24,260.89l7.48,8.39a116.24,116.24,0,0,0-9.78,17l-10.86-2.41a126.27,126.27,0,0,0-4.63,12.16l9.62,5.61a116.36,116.36,0,0,0-4,19.29L.7,322.1a122,122,0,0,0-.7,13l10.93,2.33a117.28,117.28,0,0,0,1.27,15.42c.21,1.4.48,2.79.73,4.18L2.71,361.59A127.23,127.23,0,0,0,6,374.19L17.1,373A115.88,115.88,0,0,0,24.93,391l-8.29,7.49a126.21,126.21,0,0,0,7,11l10.16-4.6a112,112,0,0,0,13,14.64l-5.64,9.78c3.19,2.9,6.52,5.66,10,8.22l8.29-7.59a111.54,111.54,0,0,0,16.79,9.92l-2.37,11a125.36,125.36,0,0,0,12,4.72l5.53-9.78a111.84,111.84,0,0,0,19,4.12l1.11,11.26a124.11,124.11,0,0,0,12.83.71l2.31-11.09a112.56,112.56,0,0,0,15.2-1.29c1.39-.22,2.75-.49,4.12-.74l4.48,10.36q6.36-1.38,12.43-3.34l-1.19-11.25a111.78,111.78,0,0,0,17.8-8l7.38,8.41a120,120,0,0,0,10.79-7.08l-4.53-10.29a115.86,115.86,0,0,0,14.45-13.19l9.62,5.71a123.47,123.47,0,0,0,8.1-10.13l-7.47-8.39a117.21,117.21,0,0,0,9.79-17l10.84,2.4a126.1,126.1,0,0,0,4.66-12.14l-9.63-5.62a116.24,116.24,0,0,0,4-19.3l11.11-1.13a127.27,127.27,0,0,0,.69-13l-10.93-2.34A116,116,0,0,0,237.1,318C236.89,316.63,236.63,315.25,236.37,313.86Zm-38.54,10.27c6.18,41-21.58,79.28-62,85.55s-78.19-21.89-84.36-62.89,21.59-79.31,62-85.59S191.66,283.11,197.83,324.13Z" transform="translate(0 -64.54)"/></g></g></svg>