<?xml version="1.0" encoding="utf-8"?>
<!-- Generator: Adobe Illustrator 23.0.3, SVG Export Plug-In . SVG Version: 6.00 Build 0)  -->
<svg version="1.1" id="Capa_1" xmlns="http://www.w3.org/2000/svg" xmlns:xlink="http://www.w3.org/1999/xlink" x="0px" y="0px"
	 viewBox="0 0 512 397.4" style="enable-background:new 0 0 512 397.4;" xml:space="preserve">
<style type="text/css">
	.st0{display:none;fill:url(#SVGID_1_);}
	.st1{fill:url(#SVGID_2_);}
	.st2{fill:none;stroke:#FFFFFF;stroke-width:40.6744;stroke-miterlimit:10;}
	.st3{fill:#FFFFFF;}
	.st4{display:none;}
	.st5{display:inline;}
	.st6{fill:#191A1A;}
	.st7{fill-rule:evenodd;clip-rule:evenodd;fill:#191A1A;}
</style>
<title>settings (4)</title>
<g>
	<radialGradient id="SVGID_1_" cx="256" cy="198.675" r="489.7216" gradientUnits="userSpaceOnUse">
		<stop  offset="0.4412" style="stop-color:#E6E5E5"/>
		<stop  offset="0.6467" style="stop-color:#E4E3E3"/>
		<stop  offset="0.7528" style="stop-color:#DCDBDB"/>
		<stop  offset="0.836" style="stop-color:#CFCECE"/>
		<stop  offset="0.848" style="stop-color:#CCCBCB"/>
	</radialGradient>
	<rect x="-49.1" y="-106.4" class="st0" width="610.1" height="610.1"/>
	<g>
		<linearGradient id="SVGID_2_" gradientUnits="userSpaceOnUse" x1="35.7224" y1="192.2052" x2="473.8372" y2="192.2052">
			<stop  offset="0" style="stop-color:#FFFFFF"/>
			<stop  offset="0.4207" style="stop-color:#FFB36E"/>
			<stop  offset="1" style="stop-color:#000000"/>
		</linearGradient>
		<path class="st1" d="M254.8,329.7c-44.9,0-88.7-12.3-126.8-35.7c-37-22.7-67.3-54.9-87.7-93.2l-4.6-8.6l4.6-8.6
			C60.7,145.3,91,113.1,128,90.4c38.1-23.3,81.9-35.7,126.8-35.7c44.9,0,88.7,12.3,126.8,35.7c37,22.7,67.3,54.9,87.7,93.2l4.6,8.6
			l-4.6,8.6c-20.4,38.3-50.7,70.5-87.7,93.2C343.5,317.3,299.7,329.7,254.8,329.7z"/>
	</g>
	<ellipse transform="matrix(0.7071 -0.7071 0.7071 0.7071 -61.2864 236.4521)" class="st2" cx="254.8" cy="192.2" rx="95" ry="95"/>
	
		<ellipse transform="matrix(0.7071 -0.7071 0.7071 0.7071 -40.0091 192.6494)" class="st3" cx="212.5" cy="144.6" rx="43.5" ry="43.5"/>
	<g class="st4">
		<g class="st5">
			<path class="st6" d="M253.6,468.9h0.6v-0.7c0-0.8,0.1-1.4,0.3-1.8c0.2-0.5,0.5-0.8,1-1c0.5-0.2,1.1-0.3,1.9-0.3
				c1.4,0,2.2,0.3,2.2,1.1c0,0.2-0.1,0.4-0.2,0.6c-0.1,0.2-0.3,0.2-0.5,0.2c-0.1,0-0.3,0-0.5-0.1c-0.2,0-0.4-0.1-0.6-0.1
				c-0.4,0-0.7,0.1-0.9,0.4c-0.1,0.3-0.2,0.6-0.2,1.1v0.6h0.6c0.9,0,1.4,0.3,1.4,0.8c0,0.4-0.1,0.7-0.4,0.8c-0.2,0.1-0.6,0.2-1,0.2
				h-0.6v6.5c0,0.5-0.1,0.9-0.4,1.1c-0.2,0.3-0.5,0.4-0.9,0.4c-0.4,0-0.6-0.1-0.9-0.4c-0.2-0.3-0.3-0.6-0.3-1.1v-6.5h-0.7
				c-0.4,0-0.6-0.1-0.8-0.2c-0.2-0.2-0.3-0.4-0.3-0.6C252.3,469.2,252.8,468.9,253.6,468.9"/>
			<path class="st6" d="M261.6,475.2v2.1c0,0.5-0.1,0.9-0.4,1.1c-0.2,0.3-0.5,0.4-0.9,0.4c-0.4,0-0.7-0.1-0.9-0.4
				c-0.2-0.3-0.3-0.6-0.3-1.1v-6.9c0-1.1,0.4-1.7,1.2-1.7c0.4,0,0.7,0.1,0.9,0.4c0.2,0.3,0.3,0.6,0.3,1.1c0.3-0.5,0.6-0.9,0.9-1.1
				c0.3-0.3,0.7-0.4,1.2-0.4c0.5,0,1,0.1,1.5,0.4c0.5,0.3,0.7,0.6,0.7,1c0,0.3-0.1,0.6-0.3,0.7c-0.2,0.2-0.4,0.3-0.7,0.3
				c-0.1,0-0.3-0.1-0.7-0.2c-0.3-0.1-0.7-0.2-0.9-0.2c-0.4,0-0.7,0.1-0.9,0.3c-0.2,0.2-0.4,0.5-0.5,0.8c-0.1,0.4-0.2,0.8-0.3,1.3
				C261.7,473.8,261.6,474.4,261.6,475.2"/>
			<path class="st6" d="M273,474.3h-4.8c0,0.6,0.1,1.1,0.3,1.5c0.2,0.4,0.5,0.7,0.9,1c0.4,0.2,0.8,0.3,1.2,0.3c0.3,0,0.6,0,0.8-0.1
				c0.2-0.1,0.5-0.2,0.7-0.3c0.2-0.1,0.4-0.3,0.6-0.5c0.2-0.2,0.4-0.4,0.7-0.7c0.1-0.1,0.3-0.2,0.5-0.2c0.3,0,0.5,0.1,0.6,0.2
				c0.2,0.1,0.2,0.3,0.2,0.6c0,0.2-0.1,0.5-0.3,0.8c-0.2,0.3-0.4,0.6-0.8,0.9c-0.4,0.3-0.8,0.5-1.3,0.7c-0.5,0.2-1.1,0.3-1.8,0.3
				c-1.6,0-2.8-0.4-3.7-1.4c-0.9-0.9-1.3-2.1-1.3-3.7c0-0.7,0.1-1.4,0.3-2c0.2-0.6,0.5-1.2,0.9-1.6c0.4-0.4,0.9-0.8,1.5-1
				c0.6-0.2,1.3-0.4,2-0.4c1,0,1.8,0.2,2.5,0.6c0.7,0.4,1.2,0.9,1.5,1.6c0.3,0.6,0.5,1.3,0.5,2c0,0.6-0.2,1-0.5,1.2
				C274.1,474.2,273.6,474.3,273,474.3 M268.1,472.9h4.5c-0.1-0.8-0.3-1.5-0.7-1.9c-0.4-0.4-0.9-0.6-1.6-0.6c-0.6,0-1.1,0.2-1.5,0.6
				C268.5,471.5,268.2,472.1,268.1,472.9"/>
			<path class="st6" d="M283.2,474.3h-4.8c0,0.6,0.1,1.1,0.3,1.5c0.2,0.4,0.5,0.7,0.9,1c0.4,0.2,0.8,0.3,1.2,0.3
				c0.3,0,0.6,0,0.8-0.1c0.2-0.1,0.5-0.2,0.7-0.3c0.2-0.1,0.4-0.3,0.6-0.5c0.2-0.2,0.4-0.4,0.7-0.7c0.1-0.1,0.3-0.2,0.5-0.2
				c0.3,0,0.5,0.1,0.6,0.2c0.2,0.1,0.2,0.3,0.2,0.6c0,0.2-0.1,0.5-0.3,0.8c-0.2,0.3-0.4,0.6-0.8,0.9c-0.4,0.3-0.8,0.5-1.3,0.7
				c-0.5,0.2-1.1,0.3-1.8,0.3c-1.6,0-2.8-0.4-3.7-1.4c-0.9-0.9-1.3-2.1-1.3-3.7c0-0.7,0.1-1.4,0.3-2c0.2-0.6,0.5-1.2,0.9-1.6
				c0.4-0.4,0.9-0.8,1.5-1c0.6-0.2,1.3-0.4,2-0.4c1,0,1.8,0.2,2.5,0.6c0.7,0.4,1.2,0.9,1.5,1.6c0.3,0.6,0.5,1.3,0.5,2
				c0,0.6-0.2,1-0.5,1.2C284.3,474.2,283.8,474.3,283.2,474.3 M278.4,472.9h4.5c-0.1-0.8-0.3-1.5-0.7-1.9c-0.4-0.4-0.9-0.6-1.6-0.6
				c-0.6,0-1.1,0.2-1.5,0.6C278.7,471.5,278.5,472.1,278.4,472.9"/>
			<path class="st6" d="M288.6,470.1v0.3c0.5-0.6,0.9-1,1.4-1.3c0.5-0.3,1.1-0.4,1.7-0.4c0.8,0,1.5,0.2,2.1,0.6
				c0.6,0.4,1.1,1,1.5,1.7c0.4,0.8,0.6,1.6,0.6,2.7c0,0.8-0.1,1.5-0.3,2.1c-0.2,0.6-0.5,1.2-0.9,1.6c-0.4,0.4-0.8,0.8-1.3,1
				c-0.5,0.2-1.1,0.3-1.6,0.3c-0.7,0-1.3-0.1-1.8-0.4c-0.5-0.3-0.9-0.7-1.4-1.2v3.7c0,1.1-0.4,1.6-1.2,1.6c-0.5,0-0.8-0.1-0.9-0.4
				c-0.1-0.3-0.2-0.7-0.2-1.2v-10.6c0-0.5,0.1-0.8,0.3-1c0.2-0.2,0.5-0.4,0.8-0.4c0.4,0,0.6,0.1,0.8,0.4
				C288.5,469.3,288.6,469.6,288.6,470.1 M293.4,473.7c0-0.6-0.1-1.2-0.3-1.7c-0.2-0.5-0.5-0.8-0.8-1.1c-0.3-0.2-0.7-0.4-1.2-0.4
				c-0.7,0-1.2,0.3-1.7,0.8c-0.5,0.5-0.7,1.3-0.7,2.4c0,1,0.2,1.7,0.7,2.3c0.5,0.5,1,0.8,1.7,0.8c0.4,0,0.8-0.1,1.1-0.4
				c0.4-0.2,0.6-0.6,0.8-1.1C293.3,474.9,293.4,474.3,293.4,473.7"/>
			<path class="st6" d="M298.4,467.5c-0.3,0-0.6-0.1-0.9-0.3c-0.2-0.2-0.4-0.5-0.4-0.9c0-0.3,0.1-0.6,0.4-0.9
				c0.2-0.2,0.5-0.3,0.9-0.3c0.3,0,0.6,0.1,0.8,0.3c0.2,0.2,0.4,0.5,0.4,0.9c0,0.4-0.1,0.7-0.4,0.9
				C299,467.4,298.7,467.5,298.4,467.5 M299.6,470.1v7.1c0,0.5-0.1,0.9-0.4,1.1c-0.2,0.3-0.5,0.4-0.9,0.4c-0.4,0-0.6-0.1-0.9-0.4
				c-0.2-0.3-0.3-0.6-0.3-1.1v-7.1c0-0.5,0.1-0.8,0.3-1.1c0.2-0.3,0.5-0.4,0.9-0.4c0.4,0,0.7,0.1,0.9,0.4
				C299.5,469.3,299.6,469.7,299.6,470.1"/>
			<path class="st6" d="M307.5,477.6l-2.2-3.6l-1.3,1.3v2c0,0.5-0.1,0.8-0.4,1.1c-0.2,0.3-0.5,0.4-0.9,0.4c-0.4,0-0.7-0.1-0.9-0.4
				c-0.2-0.3-0.3-0.6-0.3-1.1v-10.5c0-0.5,0.1-1,0.3-1.2c0.2-0.3,0.5-0.4,0.9-0.4c0.4,0,0.7,0.1,0.9,0.4c0.2,0.3,0.3,0.6,0.3,1.1v6
				l2.8-2.9c0.3-0.4,0.6-0.6,0.8-0.7c0.2-0.1,0.4-0.2,0.7-0.2c0.3,0,0.6,0.1,0.8,0.3c0.2,0.2,0.3,0.4,0.3,0.7c0,0.4-0.3,0.8-1,1.4
				l-1.3,1.2l2.5,4c0.2,0.3,0.3,0.5,0.4,0.7c0.1,0.2,0.1,0.3,0.1,0.4c0,0.4-0.1,0.7-0.3,0.9c-0.2,0.2-0.5,0.3-0.8,0.3
				c-0.3,0-0.5-0.1-0.7-0.2C308,478.3,307.8,478,307.5,477.6"/>
			<path class="st6" d="M312.9,478.7c-0.4,0-0.7-0.1-1-0.4c-0.3-0.2-0.4-0.6-0.4-1c0-0.4,0.1-0.7,0.4-0.9c0.3-0.3,0.6-0.4,1-0.4
				c0.4,0,0.7,0.1,1,0.4c0.3,0.3,0.4,0.6,0.4,1c0,0.4-0.1,0.8-0.4,1C313.6,478.6,313.2,478.7,312.9,478.7"/>
			<path class="st6" d="M325.1,475.7c0,0.3-0.1,0.6-0.3,1c-0.2,0.4-0.5,0.7-0.8,1c-0.4,0.3-0.8,0.6-1.4,0.8
				c-0.6,0.2-1.2,0.3-1.9,0.3c-1.5,0-2.7-0.4-3.6-1.3c-0.9-0.9-1.3-2.1-1.3-3.6c0-1,0.2-1.9,0.6-2.7c0.4-0.8,1-1.4,1.7-1.8
				c0.7-0.4,1.6-0.6,2.7-0.6c0.6,0,1.2,0.1,1.8,0.3c0.5,0.2,1,0.4,1.4,0.7c0.4,0.3,0.6,0.6,0.8,0.9c0.2,0.3,0.3,0.6,0.3,0.9
				c0,0.3-0.1,0.5-0.3,0.7c-0.2,0.2-0.5,0.3-0.8,0.3c-0.2,0-0.4-0.1-0.5-0.2c-0.1-0.1-0.3-0.3-0.5-0.5c-0.3-0.5-0.6-0.8-0.9-1
				c-0.3-0.2-0.7-0.3-1.2-0.3c-0.7,0-1.3,0.3-1.8,0.9c-0.4,0.6-0.7,1.3-0.7,2.3c0,0.5,0.1,0.9,0.2,1.3c0.1,0.4,0.3,0.7,0.5,1
				c0.2,0.3,0.5,0.5,0.8,0.6c0.3,0.1,0.6,0.2,1,0.2c0.5,0,0.9-0.1,1.3-0.3c0.4-0.2,0.7-0.6,0.9-1c0.1-0.3,0.3-0.5,0.5-0.6
				c0.2-0.2,0.4-0.2,0.6-0.2c0.3,0,0.6,0.1,0.7,0.3C325,475.2,325.1,475.4,325.1,475.7"/>
			<path class="st6" d="M335.8,473.7c0,0.7-0.1,1.4-0.3,2c-0.2,0.6-0.6,1.2-1,1.6c-0.4,0.4-1,0.8-1.5,1c-0.6,0.2-1.3,0.4-2,0.4
				c-0.7,0-1.4-0.1-2-0.4c-0.6-0.2-1.1-0.6-1.5-1c-0.4-0.5-0.8-1-1-1.6c-0.2-0.6-0.3-1.3-0.3-2c0-0.7,0.1-1.4,0.3-2.1
				c0.2-0.6,0.6-1.1,1-1.6c0.4-0.4,0.9-0.8,1.5-1c0.6-0.2,1.3-0.4,2-0.4c0.7,0,1.4,0.1,2,0.4c0.6,0.2,1.1,0.6,1.6,1
				c0.4,0.5,0.8,1,1,1.6C335.6,472.3,335.8,473,335.8,473.7 M333.3,473.7c0-1-0.2-1.8-0.7-2.3c-0.4-0.6-1-0.8-1.8-0.8
				c-0.5,0-0.9,0.1-1.3,0.4c-0.4,0.3-0.6,0.6-0.8,1.1c-0.2,0.5-0.3,1.1-0.3,1.7c0,0.6,0.1,1.2,0.3,1.7c0.2,0.5,0.5,0.9,0.8,1.1
				c0.4,0.3,0.8,0.4,1.3,0.4c0.7,0,1.3-0.3,1.8-0.8C333.1,475.5,333.3,474.7,333.3,473.7"/>
			<path class="st6" d="M345.2,473.9v3.3c0,0.5-0.1,0.9-0.3,1.2c-0.2,0.3-0.5,0.4-0.9,0.4c-0.4,0-0.7-0.1-0.9-0.4
				c-0.2-0.3-0.4-0.6-0.4-1.2v-3.9c0-0.6,0-1.1-0.1-1.4c0-0.3-0.2-0.6-0.3-0.8c-0.2-0.2-0.5-0.3-0.9-0.3c-0.8,0-1.3,0.3-1.6,0.8
				c-0.3,0.5-0.4,1.3-0.4,2.4v3.3c0,0.5-0.1,0.9-0.3,1.2c-0.2,0.3-0.5,0.4-0.9,0.4c-0.4,0-0.7-0.1-0.9-0.4c-0.2-0.3-0.4-0.6-0.4-1.2
				v-7c0-0.5,0.1-0.8,0.3-1.1c0.2-0.2,0.5-0.4,0.8-0.4c0.3,0,0.6,0.1,0.8,0.3c0.2,0.2,0.3,0.5,0.3,0.9v0.2c0.4-0.5,0.9-0.9,1.4-1.1
				c0.5-0.2,1-0.4,1.6-0.4c0.6,0,1.1,0.1,1.6,0.4c0.4,0.3,0.8,0.6,1.1,1.1c0.4-0.5,0.9-0.9,1.3-1.1c0.5-0.2,1-0.4,1.6-0.4
				c0.7,0,1.3,0.1,1.7,0.4c0.5,0.3,0.8,0.6,1.1,1.1c0.2,0.4,0.3,1.2,0.3,2.1v4.8c0,0.5-0.1,0.9-0.4,1.2c-0.2,0.3-0.5,0.4-0.9,0.4
				c-0.4,0-0.7-0.1-0.9-0.4c-0.2-0.3-0.4-0.6-0.4-1.2V473c0-0.5,0-1-0.1-1.3c0-0.3-0.2-0.6-0.4-0.8c-0.2-0.2-0.5-0.3-0.9-0.3
				c-0.3,0-0.6,0.1-0.9,0.3c-0.3,0.2-0.5,0.5-0.7,0.8C345.2,472.1,345.2,472.8,345.2,473.9"/>
			<path class="st7" d="M236.5,479.6c0,0-1.3-0.2-2.7-1.6c-1.3-1.4-1.5-3-1.5-3s1.7,0.4,2.9,0.5c2.1,0.2,4,0.1,4.9,0
				c2-0.2,3-0.6,3.4-0.7c2.5-0.6,4.9-2.2,4.9-2.2s0.3,1.9-1.1,3.9c-0.6,0.8-1.6,1.7-2.9,2.4C240.1,480.8,236.5,479.6,236.5,479.6"/>
			<path class="st7" d="M246.7,468.9c-0.5-0.6-2-3.2-5.1-3.6c-0.8-0.1-5,0.1-7.6,2.4c-0.2,0.2-1.5,1.4-2,3.5
				c-0.3,1.6,0.2,3.5,0.2,3.5s2.8,0.6,4.9,0.5c3.4-0.1,5-0.4,6.8-0.9c2.6-0.8,4.4-2.1,4.4-2.1S247.2,469.5,246.7,468.9 M237,473
				c-1.4,0.1-2.6-1-2.7-2.4c-0.1-1.4,1-2.6,2.4-2.7c1.4-0.1,2.6,1,2.7,2.4C239.5,471.6,238.4,472.9,237,473 M244.3,471.1
				c-0.9,0.1-1.7-0.6-1.7-1.5c-0.1-0.9,0.6-1.7,1.5-1.7c0.9-0.1,1.7,0.6,1.7,1.5C245.8,470.3,245.2,471.1,244.3,471.1"/>
			<path class="st7" d="M245.5,467.1l0.8-1c0,0,1.1,0.6,1.9,1.6c0.7,1,1.2,2,1.2,2l-1.3,0.8c0,0-0.4-1-1-1.8
				C246.3,467.9,245.5,467.1,245.5,467.1"/>
			<path class="st7" d="M248,467.8c0.2-0.1,0.6-0.1,0.5-0.4c0-0.3-0.2-0.9,0.4-1.1c0.6-0.2,0.3,0.2,0.1,0.4
				c-0.2,0.3-0.1,0.4-0.1,0.8c0,0.4-0.2,0.5-0.6,0.7C247.9,468.4,247.8,467.9,248,467.8"/>
			<path class="st7" d="M233.1,468.4c0,0-0.9,1.1-1.2,2.1c-0.2,1-0.2,2.2-0.2,2.2l-1.4-0.5c0,0-0.1-1.4,0.6-2.5
				c0.7-1.2,1.6-1.8,1.6-1.8L233.1,468.4z"/>
			<path class="st7" d="M231,469.6c-0.2-0.1-0.2-0.5-0.4-0.7c-0.2-0.2-0.2-0.1-0.6-0.1c-0.4,0-0.4-0.2-0.5-0.3
				c-0.1-0.1-0.2,0.3-0.2,0.3s0.1,0.3,0.5,0.4c0.4,0,0.4-0.2,0.6,0.2c0.2,0.4,0.6,0.7,0.6,0.7S231.3,469.8,231,469.6"/>
			<path class="st7" d="M238.5,464.4c2.3-0.6,3.7,0.1,3.7,0.1l-0.1,0.7c0,0-1.7-0.1-3,0.1c-1.3,0.2-1.9,0.6-1.9,0.6l-0.3-0.7
				C236.8,465.2,237.5,464.7,238.5,464.4"/>
			<polygon class="st7" points="239.1,463.5 239.5,463.4 239.9,464.5 239.6,464.6 			"/>
			<path class="st7" d="M249.2,465.6c0.3,0,0.6,0.2,0.6,0.5c0,0.3-0.2,0.6-0.5,0.6c-0.3,0-0.6-0.2-0.6-0.5
				C248.7,465.9,248.9,465.6,249.2,465.6"/>
			<path class="st7" d="M229.1,467.8c0.3,0,0.6,0.2,0.6,0.5c0,0.3-0.2,0.6-0.6,0.6c-0.3,0-0.6-0.2-0.6-0.5
				C228.5,468.1,228.8,467.9,229.1,467.8"/>
			<path class="st7" d="M239.4,462c0.5,0,1,0.4,1,0.9c0,0.5-0.4,1-0.9,1c-0.5,0-1-0.4-1-0.9C238.5,462.5,238.9,462.1,239.4,462"/>
			<path class="st6" d="M166.1,477.3c0,0.6-0.4,1-0.9,1c-0.5,0-0.8-0.3-0.9-0.7c-0.3,0.5-1,0.8-1.6,0.8c-1.7,0-2.8-1.6-2.8-3.2
				c0-1.7,0.9-3.4,2.8-3.4c0.6,0,1.2,0.2,1.6,0.6V470c0-0.6,0.4-1,0.9-1c0.5,0,0.9,0.4,0.9,1V477.3z M163.1,473.3
				c-0.9,0-1.3,0.9-1.3,1.8c0,0.8,0.4,1.7,1.3,1.7c0.9,0,1.3-1,1.3-1.8C164.4,474.2,164,473.3,163.1,473.3"/>
			<path class="st6" d="M168.5,475.6c0.1,0.8,0.8,1.2,1.6,1.2c0.9,0,1.5-0.7,1.9-0.7c0.4,0,0.7,0.4,0.7,0.7c0,0.7-1.5,1.4-2.8,1.4
				c-1.9,0-3.2-1.4-3.2-3.3c0-1.7,1.3-3.3,3.1-3.3c1.9,0,3.1,1.7,3.1,3.1c0,0.5-0.2,0.8-0.8,0.8H168.5z M171.2,474.5
				c-0.1-0.8-0.6-1.3-1.4-1.3c-0.8,0-1.3,0.6-1.4,1.3H171.2z"/>
			<path class="st6" d="M177.2,473.7c-0.3,0-1-0.5-1.5-0.5c-0.3,0-0.6,0.1-0.6,0.5c0,0.8,3,0.7,3,2.6c0,1.1-1,2-2.5,2
				c-1,0-2.4-0.5-2.4-1.3c0-0.3,0.3-0.8,0.7-0.8c0.7,0,1,0.6,1.8,0.6c0.5,0,0.7-0.2,0.7-0.5c0-0.8-3-0.7-3-2.6c0-1.2,1-2,2.3-2
				c0.8,0,2.1,0.4,2.1,1.2C177.9,473.4,177.6,473.7,177.2,473.7"/>
			<path class="st6" d="M180.4,470.2c0,0.5-0.4,1-1,1c-0.5,0-1-0.5-1-1c0-0.5,0.5-0.9,1-0.9C180,469.2,180.4,469.7,180.4,470.2
				 M178.6,472.8c0-0.6,0.4-1,0.9-1c0.5,0,0.9,0.4,0.9,1v4.6c0,0.6-0.4,1-0.9,1c-0.5,0-0.9-0.4-0.9-1V472.8z"/>
			<path class="st6" d="M187.2,477.7c0,2.1-1.4,3.1-3.3,3.1c-0.7,0-2.7-0.4-2.7-1.3c0-0.3,0.4-0.8,0.7-0.8c0.5,0,1.2,0.5,2.1,0.5
				c0.8,0,1.5-0.5,1.5-1.4v-0.4h0c-0.4,0.5-0.9,0.8-1.7,0.8c-1.8,0-2.7-1.6-2.7-3.3c0-1.7,1.1-3.3,2.8-3.3c0.6,0,1.3,0.3,1.6,0.8
				c0.1-0.4,0.4-0.7,0.9-0.7c0.5,0,0.9,0.4,0.9,1V477.7z M184.1,473.3c-0.9,0-1.3,0.9-1.3,1.7c0,0.9,0.4,1.8,1.3,1.8
				c0.9,0,1.4-0.9,1.4-1.7C185.4,474.3,185,473.3,184.1,473.3"/>
			<path class="st6" d="M188.1,472.8c0-0.6,0.4-1,0.9-1c0.4,0,0.7,0.2,0.8,0.6c0.3-0.5,0.8-0.7,1.7-0.7c1.4,0,2.4,0.9,2.4,2.3v3.3
				c0,0.6-0.4,1-0.9,1c-0.5,0-0.9-0.4-0.9-1v-3c0-0.8-0.5-1.2-1.1-1.2c-0.7,0-1.1,0.5-1.1,1.2v3c0,0.6-0.4,1-0.9,1
				c-0.5,0-0.9-0.4-0.9-1V472.8z"/>
			<path class="st6" d="M196.2,475.6c0.1,0.8,0.8,1.2,1.6,1.2c0.9,0,1.5-0.7,1.9-0.7c0.4,0,0.7,0.4,0.7,0.7c0,0.7-1.5,1.4-2.8,1.4
				c-1.9,0-3.2-1.4-3.2-3.3c0-1.7,1.3-3.3,3.1-3.3c1.9,0,3.1,1.7,3.1,3.1c0,0.5-0.2,0.8-0.8,0.8H196.2z M198.9,474.5
				c-0.1-0.8-0.6-1.3-1.4-1.3c-0.8,0-1.3,0.6-1.4,1.3H198.9z"/>
			<path class="st6" d="M207.1,477.3c0,0.6-0.4,1-0.9,1c-0.5,0-0.7-0.3-0.9-0.7c-0.3,0.5-1,0.8-1.6,0.8c-1.7,0-2.8-1.6-2.8-3.2
				c0-1.7,0.9-3.4,2.8-3.4c0.6,0,1.2,0.2,1.6,0.6V470c0-0.6,0.4-1,0.9-1c0.5,0,0.9,0.4,0.9,1V477.3z M204,473.3
				c-0.9,0-1.3,0.9-1.3,1.8c0,0.8,0.4,1.7,1.3,1.7c0.9,0,1.4-1,1.4-1.8C205.4,474.2,204.9,473.3,204,473.3"/>
			<path class="st6" d="M211.3,470c0-0.6,0.4-1,0.9-1c0.5,0,0.9,0.4,0.9,1v2.3c0.5-0.4,1-0.6,1.6-0.6c1.9,0,2.8,1.7,2.8,3.4
				c0,1.6-1.1,3.2-2.8,3.2c-0.6,0-1.3-0.3-1.6-0.8c-0.1,0.5-0.4,0.7-0.9,0.7c-0.5,0-0.9-0.4-0.9-1V470z M214.3,476.8
				c0.9,0,1.3-0.9,1.3-1.7c0-0.8-0.4-1.8-1.3-1.8c-0.9,0-1.4,0.9-1.4,1.7C213,475.8,213.4,476.8,214.3,476.8"/>
			<path class="st6" d="M217.7,473c0-0.1-0.1-0.3-0.1-0.4c0-0.4,0.5-0.7,0.8-0.7c0.4,0,0.7,0.2,0.9,0.6l1.2,3.2l1.3-3.2
				c0.1-0.4,0.4-0.6,0.9-0.6c0.4,0,0.8,0.3,0.8,0.7c0,0.2,0,0.3-0.1,0.4l-2.9,7.2c-0.1,0.4-0.4,0.7-0.8,0.7c-0.6,0-0.9-0.4-0.9-0.7
				c0-0.2,0-0.4,0.1-0.5l0.8-1.9L217.7,473z"/>
		</g>
	</g>
</g>
</svg>
