<svg xmlns="http://www.w3.org/2000/svg" xmlns:xlink="http://www.w3.org/1999/xlink" viewBox="0 0 193.49 174.64"><defs><style>.cls-1{isolation:isolate;}.cls-11,.cls-2{opacity:0.09;}.cls-12,.cls-2{mix-blend-mode:multiply;}.cls-3{fill:#e53c00;}.cls-4{fill:#ed6300;}.cls-5{fill:#e39200;}.cls-6{font-size:36.45px;fill:#fff;font-family:Corbel;}.cls-7{letter-spacing:-0.05em;}.cls-8{letter-spacing:-0.02em;}.cls-9{fill:none;stroke:#624718;stroke-miterlimit:10;}.cls-10{fill:#d59f00;}.cls-12{opacity:0.13;}.cls-13{fill:url(#Degradado_sin_nombre_8);}</style><radialGradient id="Degradado_sin_nombre_8" cx="128.91" cy="172.42" r="23.76" gradientTransform="translate(-273.59 -157.55) scale(2.86 1.87)" gradientUnits="userSpaceOnUse"><stop offset="0" stop-color="#fff"/><stop offset="0.02" stop-color="#f7f7f7"/><stop offset="0.31" stop-color="#a1a1a1"/><stop offset="0.55" stop-color="#5c5c5c"/><stop offset="0.76" stop-color="#2a2a2a"/><stop offset="0.91" stop-color="#0b0b0b"/><stop offset="1"/></radialGradient></defs><title>logoRado</title><g class="cls-1"><g id="Capa_1" data-name="Capa 1"><g class="cls-2"><polygon points="41.34 147.49 11 147.32 68.97 16.44 99.08 17.11 41.34 147.49"/></g><polygon class="cls-3" points="38.34 143.49 8 143.32 65.97 12.44 96.08 13.11 38.34 143.49"/><g class="cls-2"><polygon points="128.85 102.69 153.68 75.77 136.2 17.41 104.53 16.44 128.85 102.69"/></g><polygon class="cls-4" points="125.85 98.69 150.68 71.77 133.2 13.41 101.53 12.44 125.85 98.69"/><g class="cls-2"><polygon points="135.55 146.96 105.22 146.8 163.19 15.91 193.3 16.59 135.55 146.96"/></g><polygon class="cls-4" points="132.55 142.96 102.22 142.8 160.19 11.91 190.3 12.59 132.55 142.96"/><g class="cls-2"><polygon points="93.1 111.44 62.81 111.44 104.59 16.44 134.7 17.11 93.1 111.44"/></g><polygon class="cls-5" points="90.1 107.44 59.81 107.44 101.59 12.44 131.7 13.11 90.1 107.44"/><text class="cls-6" transform="matrix(0.57, -1.29, 0.88, 0.48, 134.87, 133.2)">J<tspan class="cls-7" x="13.65" y="0">A</tspan><tspan class="cls-8" x="34.85" y="0">T</tspan><tspan x="54.2" y="0">O</tspan></text><path class="cls-9" d="M43.58,20.11" transform="translate(-4.47 -25.11)"/><path class="cls-9" d="M60.08,21.79" transform="translate(-4.47 -25.11)"/><path class="cls-9" d="M43.58,21.79" transform="translate(-4.47 -25.11)"/><path class="cls-9" d="M60.08,28.89" transform="translate(-4.47 -25.11)"/><polyline class="cls-10" points="31.45 0 55.6 0 56.19 29.16 31.45 80.62"/><g class="cls-11"><g class="cls-12"><ellipse cx="98.24" cy="166.02" rx="95.24" ry="8.62"/></g><ellipse class="cls-13" cx="95.24" cy="164.02" rx="95.24" ry="8.62"/></g></g></g></svg>