<?xml version="1.0" encoding="utf-8"?>
<!-- Generator: Adobe Illustrator 23.0.3, SVG Export Plug-In . SVG Version: 6.00 Build 0)  -->
<svg version="1.1" id="Capa_1" xmlns="http://www.w3.org/2000/svg" xmlns:xlink="http://www.w3.org/1999/xlink" x="0px" y="0px"
	 viewBox="0 0 200 227" style="enable-background:new 0 0 200 227;" xml:space="preserve">
<style type="text/css">
	.st0{fill:#D99D85;}
	.st1{fill:#CB7259;}
	.st2{fill:#F8EFE9;}
	.st3{fill:#CA7058;}
	.st4{fill:#B7252A;}
	.st5{fill:#FFFFFF;}
	.st6{fill:#FFFFFE;}
	.st7{fill:#FFFEFE;}
	.st8{fill:#FEFEFD;}
	.st9{fill:#FEFDFB;}
	.st10{fill:#B82429;}
	.st11{fill:#B82529;}
	.st12{fill:#B8252A;}
</style>
<g>
	<path class="st0" d="M-31.78,70.02c0.03-0.03-0.06-0.11,0.06-0.11c0.15,0,0.31,0,0.46,0c92.09,0,174.52,4.92,266.61,4.92
		c0.03,0.08,0.01,0.14-0.05,0.19c-0.16,0.13-0.35,0.13-0.54,0.14c-0.27,0.01-0.54,0.01-0.8,0.01c-91.32,0-172.98-4.92-264.3-4.92
		c-0.42,0-0.84,0.07-1.25-0.1C-31.66,70.11-31.72,70.07-31.78,70.02z"/>
	<path class="st1" d="M235.36,167.9c-92.42,0-174.59-11.06-267.02-11.06c-0.03-0.08-0.01-0.14,0.05-0.19
		c0.18-0.14,0.39-0.13,0.6-0.14c0.27-0.01,0.54,0,0.8,0c91.45,0,172.65,11.06,264.1,11.07c0.47,0,0.96-0.11,1.4,0.14
		C235.37,167.76,235.38,167.83,235.36,167.9z"/>
	<path class="st2" d="M235.36,167.9c-0.01-0.04-0.01-0.08-0.02-0.12c-0.16-0.15-0.22-0.33-0.22-0.54c0-0.23-0.01-0.47-0.01-0.7
		c0-28.07,0-62.28,0.01-90.35c0-0.42-0.15-0.88,0.22-1.24c0-0.04,0.01-0.08,0.01-0.12c0.04,0.02,0.12-0.05,0.12,0.05
		c0,0.14,0,0.29,0,0.43c0,28.65,0,63.45-0.01,92.1C235.46,167.57,235.6,167.78,235.36,167.9z"/>
	<path class="st3" d="M-31.66,156.73c0,0.04,0,0.07,0,0.11c-0.04-0.02-0.12,0.05-0.12-0.05c0-0.14,0-0.29,0-0.43
		c0-28.78,0-57.56,0-86.34c0.04,0,0.09,0.01,0.13,0.01c0.17,0.14,0.22,0.33,0.22,0.54c0,0.23,0.01,0.47,0.01,0.7
		c0,28.07,0,56.15-0.01,84.22C-31.42,155.91-31.28,156.37-31.66,156.73z"/>
	<path class="st4" d="M-61.28,265.21c0-113.84,0-215.34,0-304.88c0-0.51,0.01-1.02,0.01-1.53c0.45-0.02,0.89-0.05,1.34-0.05
		c101.66,0,203.31,0,304.97,0c0.25,0,0.51,0.03,0.76,0.05c0.01,1.4,0.01,2.81,0.01,4.21c0,93.27,0,193.3,0,300.08
		c0,0.7-0.01,1.4-0.02,2.1c-0.23,0.01-0.47,0.03-0.7,0.03c-101.98,0-203.95,0-305.93,0C-60.98,265.22-61.13,265.21-61.28,265.21z"/>
	<path class="st5" d="M131.47,149.12c-0.56-0.22-0.93-0.53-1.29-0.84c-3.74-3.18-6.01-7.08-6.58-11.84
		c-0.26-2.17-0.47-4.35-0.55-6.53c-0.01-0.25-0.04-0.45-0.3-0.58c-3.06-1.54-5.74-3.64-8.68-5.35c-0.06-0.04-0.14-0.07-0.2-0.11
		c-0.41-0.29-0.44-0.09-0.44,0.26c-0.02,1.21,0.06,2.42-0.14,3.62c-0.42,2.51-1.39,4.77-3.47,6.47c-1.99,1.63-4.48,1.57-6.44-0.1
		c-1.8-1.53-2.72-3.49-3.17-5.69c-0.31-1.51-0.39-3.04-0.34-4.61c-0.32-0.02-0.54,0.17-0.78,0.29c-1.79,0.91-3.34,2.16-5.07,3.16
		c-1.03,0.59-2.06,1.18-3.05,1.82c-0.52,0.34-0.74,0.73-0.75,1.34c-0.04,2.88-0.37,5.72-1.04,8.53c-0.61,2.59-2.03,4.76-3.67,6.85
		c-0.75,0.96-1.54,1.89-2.53,2.65c-0.32,0.25-0.66,0.48-1.16,0.58c0.17-0.53,0.44-0.97,0.86-1.27c2.97-2.12,4.1-5.2,5.01-8.41
		c0.8-2.83,1.29-5.71,1.69-8.61c0.21-1.47,0.81-2.66,1.96-3.67c2.43-2.13,4.98-4.11,7.9-5.62c0.8-0.42,1.43-0.95,1.84-1.71
		c0.28-0.51,0.61-1,0.9-1.51c0.56-1,1.36-1.78,2.39-2.35c0.37-0.2,0.5-0.48,0.57-0.87c0.29-1.76-0.44-3.13-1.95-4.04
		c-3.4-2.04-6.74-4.19-10.27-6.04c-0.53-0.28-0.75-0.17-0.96,0.3c-0.55,1.28-1.08,2.58-1.7,3.84c-1.91,3.87-4.41,7.34-7.9,10.11
		c-0.62,0.49-1.31,0.88-2.1,1.07c-0.65,0.16-1.29,0.14-1.86-0.25c-0.14-0.1-0.37-0.17-0.23-0.42c0.11-0.19,0.2-0.4,0.49-0.38
		c0.29,0.02,0.58,0.01,0.86,0.06c0.95,0.17,1.73-0.14,2.41-0.74c0.91-0.81,1.6-1.79,2.27-2.78c1.83-2.73,3.36-5.63,5.07-8.42
		c0.69-1.12,1.4-2.24,2.27-3.25c0.23-0.27,0.42-0.35,0.81-0.19c3.3,1.37,6.62,2.71,9.93,4.06c0.1,0.04,0.21,0.08,0.4,0.15
		c-0.23-1.6-0.11-3.18-0.58-4.69c-0.2-0.64-0.63-1.09-1.32-1.33c-0.84-0.29-1.65-0.65-2.44-1.06c-1.6-0.84-2.7-2.06-3.16-3.74
		c-1.25-4.62-3.44-8.85-5.94-12.95c-0.37-0.61-0.68-1.25-0.98-1.89c-0.14-0.31-0.29-0.63-0.22-1.02c0.37,0.12,0.55,0.4,0.74,0.66
		c0.69,0.94,1.18,1.98,1.7,3c0.48,0.92,1.08,1.7,1.99,2.32c1.19,0.81,1.67,2.12,2.18,3.37c0.63,1.57,0.79,3.23,0.9,4.89
		c0.1,1.46,0.66,2.62,1.95,3.49c1.21,0.81,2.42,1.57,3.81,2.07c0.45,0.16,0.54,0.07,0.51-0.37c-0.08-1.26-0.05-2.53,0.3-3.76
		c0.18-0.63,0.5-1.19,0.85-1.83c-0.62,0.03-1.17,0.05-1.71,0.08c-0.25,0.01-0.5,0.04-0.74,0.04c-1.85,0-2.66-0.84-2.48-2.59
		c0.28-2.74,1.34-5.12,3.53-7.01c1.04-0.9,1.02-0.93,0.13-1.98c-0.51-0.61-1.03-1.22-1.6-1.77c-0.79-0.76-1.05-1.62-0.85-2.67
		c0.64-3.42-0.2-6.59-1.9-9.6c-0.34-0.6-0.7-1.2-1.04-1.81c-0.13-0.24-0.22-0.5-0.31-0.75c-0.15-0.43,0.08-0.73,0.43-0.97
		c0.38-0.25,0.73-0.13,1.04,0.12c0.49,0.4,0.79,0.92,1.07,1.46c1.8,3.46,2.41,7.08,1.68,10.89c-0.06,0.32-0.1,0.64-0.16,0.96
		c-0.17,0.9,0.07,1.65,0.73,2.34c0.72,0.75,1.48,1.46,2.08,2.31c0.13,0.18,0.26,0.14,0.44,0.09c0.75-0.22,1.5-0.41,2.24-0.65
		c0.83-0.27,1.64-0.27,2.47-0.01c0.69,0.21,1.39,0.39,2.08,0.61c0.3,0.09,0.48,0.04,0.68-0.18c0.8-0.9,1.6-1.8,2.44-2.66
		c0.44-0.44,0.53-0.91,0.45-1.48c-0.17-1.14-0.26-2.3-0.43-3.44c-0.25-1.72,0.14-3.38,0.53-5.03c0.33-1.41,0.75-2.79,1.49-4.07
		c0.21-0.37,0.45-0.71,0.8-0.98c0.46-0.35,1-0.37,1.42-0.06c0.47,0.35,0.42,0.79,0.17,1.21c-0.28,0.47-0.62,0.91-0.91,1.38
		c-1.8,2.81-2.71,5.82-2.37,9.13c0.07,0.68,0.04,1.37,0.07,2.06c0.04,0.65-0.2,1.18-0.67,1.66c-0.73,0.74-1.43,1.51-2.11,2.29
		c-0.55,0.62-0.53,0.64,0.02,1.24c0.69,0.75,1.41,1.47,2.08,2.24c1.58,1.83,2.03,3.97,1.7,6.26c-0.17,1.18-0.83,1.64-2.11,1.57
		c-0.86-0.05-1.71-0.16-2.69-0.25c1.28,1.92,1.4,3.99,1.17,6.14c0.67-0.1,1.19-0.35,1.71-0.61c1.22-0.61,2.34-1.37,3.42-2.18
		c0.94-0.71,0.98-1.72,1.12-2.69c0.27-1.86,0.47-3.73,1.17-5.5c0.31-0.8,0.72-1.55,1.23-2.25c0.15-0.21,0.3-0.45,0.51-0.58
		c1.13-0.66,1.72-1.72,2.35-2.75c0.56-0.92,1.09-1.86,1.61-2.81c0.18-0.33,0.41-0.54,0.86-0.55c0,0.37-0.19,0.67-0.34,0.97
		c-0.97,2.02-2.28,3.88-3.29,5.88c-1.41,2.78-2.73,5.59-3.53,8.6c-0.76,2.86-3,4.4-5.78,5.29c-0.88,0.28-1.23,0.7-1.31,1.5
		c-0.15,1.45-0.35,2.9-0.53,4.39c0.38,0.02,0.7-0.15,1.02-0.27c2.39-0.88,4.64-2.03,6.99-2.99c0.81-0.33,1.61-0.65,2.47-0.86
		c0.33-0.08,0.52,0,0.72,0.25c1.25,1.54,2.29,3.2,3.3,4.88c1.48,2.46,2.95,4.93,4.42,7.4c0.31,0.52,0.67,1.01,1.07,1.47
		c0.78,0.88,1.74,1.38,2.99,1.33c0.38-0.02,0.77-0.04,1.14,0.08c0.19,0.06,0.36,0.17,0.4,0.36c0.05,0.19-0.15,0.27-0.28,0.37
		c-0.54,0.39-1.15,0.47-1.79,0.31c-1.01-0.25-1.83-0.82-2.58-1.46c-2.45-2.1-4.27-4.66-6.04-7.26c-1.3-1.92-2.06-4.06-2.97-6.14
		c-0.38-0.88-0.39-0.89-1.28-0.43c-2.77,1.44-5.37,3.12-8.06,4.67c-0.64,0.37-1.28,0.73-1.91,1.09c-1.62,0.93-2.11,2.39-2.08,4.08
		c0,0.27,0.15,0.49,0.33,0.68c0.31,0.32,0.61,0.65,0.96,0.93c1.13,0.94,2.11,1.99,2.73,3.31c0.37,0.79,1.01,1.29,1.83,1.71
		c3.17,1.63,5.9,3.79,8.43,6.21c0.73,0.7,0.92,1.54,1.11,2.43c0.7,3.29,1.33,6.59,2.12,9.86c0.7,2.89,1.9,5.56,4.47,7.48
		C130.83,147.93,131.26,148.38,131.47,149.12z"/>
	<path class="st6" d="M151.95,111.15c0.99,0,1.99,0.02,2.98-0.01c0.41-0.01,0.56,0.07,0.54,0.51c-0.19,4.48-3.47,7.37-8.29,7.31
		c-3.37-0.04-6.08-1.23-7.93-3.97c-2.87-4.23-0.54-10.28,4.54-11.77c3.94-1.16,7.41-0.32,10.47,2.25c0.22,0.18,0.22,0.28,0.01,0.46
		c-0.33,0.27-0.61,0.72-0.98,0.8c-0.37,0.08-0.64-0.43-0.97-0.66c-2.31-1.62-4.82-2.29-7.65-1.44c-2.9,0.87-4.91,3.36-4.94,6.12
		c-0.04,2.76,2.04,5.47,4.94,6.32c2.57,0.75,5.02,0.61,7.16-1.14c0.91-0.75,1.45-1.71,1.75-2.8c0.09-0.35,0.05-0.5-0.41-0.49
		c-1.43,0.03-2.87,0-4.3,0.02c-0.36,0.01-0.44-0.1-0.44-0.42c0-1.08-0.02-1.08,1.12-1.08C150.35,111.15,151.15,111.15,151.95,111.15
		C151.95,111.15,151.95,111.15,151.95,111.15z"/>
	<path class="st6" d="M48.59,110.83c0.04-4.62,3.84-8.22,8.69-8.12c5.19,0.1,8.72,3.7,8.55,8.61c-0.14,3.99-3.84,7.97-9.31,7.62
		C52.11,118.65,48.46,115.05,48.59,110.83z"/>
	<path class="st7" d="M73.82,111.37c1.99,2.42,3.9,4.76,5.89,7.18c-0.69,0-1.29,0-1.89,0c-0.23,0-0.3-0.2-0.41-0.34
		c-1.77-2.15-3.53-4.31-5.3-6.46c-0.12-0.15-0.2-0.34-0.45-0.38c-0.63-0.11-0.77-0.01-0.77,0.61c0,2-0.01,4.01,0.01,6.01
		c0.01,0.44-0.09,0.59-0.59,0.58c-1.09-0.03-1.09,0-1.09-1.02c0-4.62,0.01-9.25-0.01-13.87c0-0.48,0.13-0.6,0.64-0.59
		c1.87,0.05,3.75-0.04,5.62,0.12c2.38,0.21,3.94,1.72,4.03,3.95c0.09,2.09-1.43,3.74-3.76,4.08
		C75.15,111.32,74.56,111.36,73.82,111.37z"/>
	<path class="st8" d="M45.3,110.83c0,2.42-0.01,4.84,0.01,7.26c0,0.38-0.1,0.48-0.5,0.48c-1.13-0.02-1.13,0-1.13-1.07
		c0-1.97-0.01-3.94,0.01-5.9c0-0.37-0.08-0.49-0.5-0.49c-2.47,0.02-4.94,0.02-7.4,0c-0.39,0-0.48,0.11-0.47,0.46
		c0.02,2.17,0,4.33,0.02,6.5c0,0.41-0.12,0.51-0.54,0.5c-1.1-0.02-1.1,0-1.1-1.04c0-4.6,0.01-9.21-0.01-13.81
		c0-0.47,0.08-0.65,0.64-0.63c1.01,0.04,1.01,0.01,1.01,0.97c0,1.7,0.01,3.39-0.01,5.09c0,0.34,0.08,0.47,0.47,0.46
		c2.49-0.02,4.97-0.02,7.46,0c0.36,0,0.44-0.11,0.44-0.43c-0.01-1.86,0-3.72-0.02-5.58c0-0.39,0.08-0.52,0.53-0.51
		c1.11,0.03,1.11,0,1.11,1.03C45.3,106.35,45.3,108.59,45.3,110.83z"/>
	<path class="st7" d="M172.92,118.55c-0.54,0-1.03,0-1.52,0c-0.31,0-0.35-0.25-0.44-0.43c-0.72-1.41-1.44-2.82-2.14-4.24
		c-0.15-0.3-0.31-0.43-0.68-0.42c-2.07,0.01-4.13,0.01-6.2,0c-0.29,0-0.44,0.08-0.56,0.34c-0.71,1.45-1.46,2.89-2.17,4.35
		c-0.16,0.33-0.36,0.44-0.74,0.43c-1.29-0.03-1.3-0.01-0.74-1.14c2.33-4.66,4.66-9.31,6.99-13.97c0.08-0.17,0.12-0.39,0.41-0.37
		c0.26,0.02,0.28,0.22,0.35,0.37c2.44,4.94,4.88,9.88,7.32,14.83C172.86,118.35,172.87,118.42,172.92,118.55z"/>
	<path class="st9" d="M134.96,110.82c0,2.38-0.01,4.77,0.01,7.15c0,0.43-0.09,0.6-0.59,0.59c-1.08-0.02-1.08,0-1.08-1.03
		c0-4.62,0.01-9.25-0.01-13.87c0-0.49,0.14-0.6,0.64-0.59c1.03,0.04,1.03,0.01,1.03,0.97C134.96,106.3,134.96,108.56,134.96,110.82z
		"/>
	<path class="st10" d="M64.14,110.8c0.02,3.8-2.96,6.61-7.02,6.63c-3.76,0.02-6.87-2.91-6.86-6.46c0.01-3.76,3.05-6.75,6.9-6.76
		C61.06,104.2,64.13,107.1,64.14,110.8z"/>
	<path class="st11" d="M70.88,107.2c0-0.74,0-1.48,0-2.22c0-0.21-0.02-0.39,0.31-0.38c1.45,0.05,2.91-0.09,4.35,0.13
		c1.26,0.19,2.14,1.09,2.24,2.26c0.1,1.23-0.64,2.29-1.88,2.65c-0.97,0.28-1.97,0.23-2.96,0.24c-0.52,0-1.04-0.03-1.55,0.01
		c-0.45,0.03-0.54-0.14-0.52-0.53C70.91,108.65,70.88,107.92,70.88,107.2z"/>
	<path class="st12" d="M162.3,111.98c0.96-1.91,1.87-3.72,2.81-5.6c0.91,1.83,1.77,3.56,2.64,5.3c0.13,0.25,0.06,0.31-0.21,0.31
		C165.83,111.98,164.11,111.98,162.3,111.98z"/>
</g>
</svg>
